<?xml version="1.0" encoding="utf-8" standalone="no"?>
<!DOCTYPE svg PUBLIC "-//W3C//DTD SVG 1.1//EN"
  "http://www.w3.org/Graphics/SVG/1.1/DTD/svg11.dtd">
<svg xmlns:xlink="http://www.w3.org/1999/xlink" width="866.81145pt" height="516.684027pt" viewBox="0 0 866.81145 516.684027" xmlns="http://www.w3.org/2000/svg" version="1.1">
 <metadata>
  <rdf:RDF xmlns:dc="http://purl.org/dc/elements/1.1/" xmlns:cc="http://creativecommons.org/ns#" xmlns:rdf="http://www.w3.org/1999/02/22-rdf-syntax-ns#">
   <cc:Work>
    <dc:type rdf:resource="http://purl.org/dc/dcmitype/StillImage"/>
    <dc:date>2022-05-03T17:16:34.412332</dc:date>
    <dc:format>image/svg+xml</dc:format>
    <dc:creator>
     <cc:Agent>
      <dc:title>Matplotlib v3.5.1, https://matplotlib.org/</dc:title>
     </cc:Agent>
    </dc:creator>
   </cc:Work>
  </rdf:RDF>
 </metadata>
 <defs>
  <style type="text/css">*{stroke-linejoin: round; stroke-linecap: butt}</style>
 </defs>
 <g id="figure_1">
  <g id="patch_1">
   <path d="M 0 516.684027 
L 866.81145 516.684027 
L 866.81145 0 
L 0 0 
z
" style="fill: #ffffff"/>
  </g>
  <g id="axes_1">
   <g id="patch_2">
    <path d="M 45.329852 474.287617 
L 603.329852 474.287617 
L 603.329852 39.407617 
L 45.329852 39.407617 
z
" style="fill: #ffffff"/>
   </g>
   <g id="axes_2">
    <g id="patch_3">
     <path d="M 45.329852 39.407617 
L 603.329852 39.407617 
L 603.329852 39.407617 
L 45.329852 39.407617 
z
" style="fill: #ffffff"/>
    </g>
    <g id="matplotlib.axis_1">
     <g id="xtick_1">
      <g id="line2d_1">
       <defs>
        <path id="m25da187b1e" d="M 0 0 
L 0 -6 
" style="stroke: #262626; stroke-width: 1.25"/>
       </defs>
       <g>
        <use xlink:href="#m25da187b1e" x="521.602579" y="39.407617" style="fill: #262626; stroke: #262626; stroke-width: 1.25"/>
       </g>
      </g>
      <g id="text_1">
       <!-- $\mathdefault{15}$ -->
       <g style="fill: #262626" transform="translate(516.123112 27.776723)scale(0.11 -0.11)">
        <defs>
         <path id="CMR17-31" d="M 1702 4058 
C 1702 4192 1696 4192 1606 4192 
C 1357 3916 979 3827 621 3827 
C 602 3827 570 3827 563 3808 
C 557 3795 557 3782 557 3648 
C 755 3648 1088 3686 1344 3839 
L 1344 461 
C 1344 236 1331 160 781 160 
L 589 160 
L 589 0 
C 896 0 1216 0 1523 0 
C 1830 0 2150 0 2458 0 
L 2458 160 
L 2266 160 
C 1715 160 1702 230 1702 458 
L 1702 4058 
z
" transform="scale(0.015625)"/>
         <path id="CMR17-35" d="M 730 3692 
C 794 3666 1056 3584 1325 3584 
C 1920 3584 2246 3911 2432 4100 
C 2432 4157 2432 4192 2394 4192 
C 2387 4192 2374 4192 2323 4163 
C 2099 4058 1837 3973 1517 3973 
C 1325 3973 1037 3999 723 4139 
C 653 4171 640 4171 634 4171 
C 602 4171 595 4164 595 4037 
L 595 2203 
C 595 2089 595 2057 659 2057 
C 691 2057 704 2070 736 2114 
C 941 2401 1222 2522 1542 2522 
C 1766 2522 2246 2382 2246 1289 
C 2246 1085 2246 715 2054 421 
C 1894 159 1645 25 1370 25 
C 947 25 518 320 403 814 
C 429 807 480 795 506 795 
C 589 795 749 840 749 1038 
C 749 1210 627 1280 506 1280 
C 358 1280 262 1190 262 1011 
C 262 454 704 -128 1382 -128 
C 2042 -128 2669 440 2669 1264 
C 2669 2030 2170 2624 1549 2624 
C 1222 2624 947 2503 730 2274 
L 730 3692 
z
" transform="scale(0.015625)"/>
        </defs>
        <use xlink:href="#CMR17-31" transform="scale(0.996264)"/>
        <use xlink:href="#CMR17-35" transform="translate(45.690477 0)scale(0.996264)"/>
       </g>
      </g>
     </g>
     <g id="xtick_2">
      <g id="line2d_2">
       <g>
        <use xlink:href="#m25da187b1e" x="352.51167" y="39.407617" style="fill: #262626; stroke: #262626; stroke-width: 1.25"/>
       </g>
      </g>
      <g id="text_2">
       <!-- $\mathdefault{20}$ -->
       <g style="fill: #262626" transform="translate(347.032203 27.776723)scale(0.11 -0.11)">
        <defs>
         <path id="CMR17-32" d="M 2669 989 
L 2554 989 
C 2490 536 2438 459 2413 420 
C 2381 369 1920 369 1830 369 
L 602 369 
C 832 619 1280 1072 1824 1597 
C 2214 1967 2669 2402 2669 3035 
C 2669 3790 2067 4224 1395 4224 
C 691 4224 262 3604 262 3030 
C 262 2780 448 2748 525 2748 
C 589 2748 781 2787 781 3010 
C 781 3207 614 3264 525 3264 
C 486 3264 448 3258 422 3245 
C 544 3790 915 4058 1306 4058 
C 1862 4058 2227 3617 2227 3035 
C 2227 2479 1901 2000 1536 1584 
L 262 146 
L 262 0 
L 2515 0 
L 2669 989 
z
" transform="scale(0.015625)"/>
         <path id="CMR17-30" d="M 2688 2025 
C 2688 2416 2682 3080 2413 3591 
C 2176 4039 1798 4198 1466 4198 
C 1158 4198 768 4058 525 3597 
C 269 3118 243 2524 243 2025 
C 243 1661 250 1106 448 619 
C 723 -39 1216 -128 1466 -128 
C 1760 -128 2208 -7 2470 600 
C 2662 1042 2688 1559 2688 2025 
z
M 1466 -26 
C 1056 -26 813 325 723 812 
C 653 1188 653 1738 653 2096 
C 653 2588 653 2997 736 3387 
C 858 3929 1216 4096 1466 4096 
C 1728 4096 2067 3923 2189 3400 
C 2272 3036 2278 2607 2278 2096 
C 2278 1680 2278 1169 2202 792 
C 2067 95 1690 -26 1466 -26 
z
" transform="scale(0.015625)"/>
        </defs>
        <use xlink:href="#CMR17-32" transform="scale(0.996264)"/>
        <use xlink:href="#CMR17-30" transform="translate(45.690477 0)scale(0.996264)"/>
       </g>
      </g>
     </g>
     <g id="xtick_3">
      <g id="line2d_3">
       <g>
        <use xlink:href="#m25da187b1e" x="251.057125" y="39.407617" style="fill: #262626; stroke: #262626; stroke-width: 1.25"/>
       </g>
      </g>
      <g id="text_3">
       <!-- $\mathdefault{25}$ -->
       <g style="fill: #262626" transform="translate(245.577657 27.776723)scale(0.11 -0.11)">
        <use xlink:href="#CMR17-32" transform="scale(0.996264)"/>
        <use xlink:href="#CMR17-35" transform="translate(45.690477 0)scale(0.996264)"/>
       </g>
      </g>
     </g>
     <g id="xtick_4">
      <g id="line2d_4">
       <g>
        <use xlink:href="#m25da187b1e" x="183.420761" y="39.407617" style="fill: #262626; stroke: #262626; stroke-width: 1.25"/>
       </g>
      </g>
      <g id="text_4">
       <!-- $\mathdefault{30}$ -->
       <g style="fill: #262626" transform="translate(177.941294 27.776723)scale(0.11 -0.11)">
        <defs>
         <path id="CMR17-33" d="M 1414 2157 
C 1984 2157 2234 1662 2234 1090 
C 2234 320 1824 25 1453 25 
C 1114 25 563 194 390 693 
C 422 680 454 680 486 680 
C 640 680 755 782 755 948 
C 755 1133 614 1216 486 1216 
C 378 1216 211 1165 211 926 
C 211 335 787 -128 1466 -128 
C 2176 -128 2720 430 2720 1085 
C 2720 1707 2208 2157 1600 2227 
C 2086 2328 2554 2756 2554 3329 
C 2554 3820 2048 4179 1472 4179 
C 890 4179 378 3829 378 3329 
C 378 3110 544 3072 627 3072 
C 762 3072 877 3155 877 3321 
C 877 3486 762 3569 627 3569 
C 602 3569 570 3569 544 3557 
C 730 3959 1235 4032 1459 4032 
C 1683 4032 2106 3925 2106 3320 
C 2106 3143 2080 2828 1862 2550 
C 1670 2304 1453 2304 1242 2284 
C 1210 2284 1062 2269 1037 2269 
C 992 2263 966 2257 966 2208 
C 966 2163 973 2157 1101 2157 
L 1414 2157 
z
" transform="scale(0.015625)"/>
        </defs>
        <use xlink:href="#CMR17-33" transform="scale(0.996264)"/>
        <use xlink:href="#CMR17-30" transform="translate(45.690477 0)scale(0.996264)"/>
       </g>
      </g>
     </g>
     <g id="xtick_5">
      <g id="line2d_5">
       <g>
        <use xlink:href="#m25da187b1e" x="135.109073" y="39.407617" style="fill: #262626; stroke: #262626; stroke-width: 1.25"/>
       </g>
      </g>
      <g id="text_5">
       <!-- $\mathdefault{35}$ -->
       <g style="fill: #262626" transform="translate(129.629605 27.776723)scale(0.11 -0.11)">
        <use xlink:href="#CMR17-33" transform="scale(0.996264)"/>
        <use xlink:href="#CMR17-35" transform="translate(45.690477 0)scale(0.996264)"/>
       </g>
      </g>
     </g>
     <g id="xtick_6">
      <g id="line2d_6">
       <g>
        <use xlink:href="#m25da187b1e" x="98.875306" y="39.407617" style="fill: #262626; stroke: #262626; stroke-width: 1.25"/>
       </g>
      </g>
      <g id="text_6">
       <!-- $\mathdefault{40}$ -->
       <g style="fill: #262626" transform="translate(93.395839 27.776723)scale(0.11 -0.11)">
        <defs>
         <path id="CMR17-34" d="M 2150 4122 
C 2150 4256 2144 4256 2029 4256 
L 128 1254 
L 128 1088 
L 1779 1088 
L 1779 457 
C 1779 224 1766 160 1318 160 
L 1197 160 
L 1197 0 
C 1402 0 1747 0 1965 0 
C 2182 0 2528 0 2733 0 
L 2733 160 
L 2611 160 
C 2163 160 2150 224 2150 457 
L 2150 1088 
L 2803 1088 
L 2803 1254 
L 2150 1254 
L 2150 4122 
z
M 1798 3703 
L 1798 1254 
L 256 1254 
L 1798 3703 
z
" transform="scale(0.015625)"/>
        </defs>
        <use xlink:href="#CMR17-34" transform="scale(0.996264)"/>
        <use xlink:href="#CMR17-30" transform="translate(45.690477 0)scale(0.996264)"/>
       </g>
      </g>
     </g>
     <g id="xtick_7">
      <g id="line2d_7">
       <g>
        <use xlink:href="#m25da187b1e" x="70.693488" y="39.407617" style="fill: #262626; stroke: #262626; stroke-width: 1.25"/>
       </g>
      </g>
      <g id="text_7">
       <!-- $\mathdefault{45}$ -->
       <g style="fill: #262626" transform="translate(65.214021 27.776723)scale(0.11 -0.11)">
        <use xlink:href="#CMR17-34" transform="scale(0.996264)"/>
        <use xlink:href="#CMR17-35" transform="translate(45.690477 0)scale(0.996264)"/>
       </g>
      </g>
     </g>
     <g id="xtick_8">
      <g id="line2d_8">
       <g>
        <use xlink:href="#m25da187b1e" x="48.148034" y="39.407617" style="fill: #262626; stroke: #262626; stroke-width: 1.25"/>
       </g>
      </g>
      <g id="text_8">
       <!-- $\mathdefault{50}$ -->
       <g style="fill: #262626" transform="translate(42.668566 27.776723)scale(0.11 -0.11)">
        <use xlink:href="#CMR17-35" transform="scale(0.996264)"/>
        <use xlink:href="#CMR17-30" transform="translate(45.690477 0)scale(0.996264)"/>
       </g>
      </g>
     </g>
     <g id="text_9">
      <!-- angle [degrees] -->
      <g style="fill: #262626" transform="translate(288.320835 16.166376)scale(0.12 -0.12)">
       <defs>
        <path id="CMSS17-61" d="M 2406 1791 
C 2406 2392 1978 2808 1402 2808 
C 1120 2808 813 2757 461 2553 
L 499 2135 
C 659 2248 934 2432 1395 2432 
C 1722 2432 1920 2180 1920 1782 
L 1920 1536 
C 896 1536 256 1238 256 726 
C 256 461 416 -64 947 -64 
C 1043 -64 1562 -64 1933 217 
L 1933 -19 
L 2406 -19 
L 2406 1791 
z
M 1920 816 
C 1920 701 1920 548 1728 434 
C 1562 325 1350 325 1261 325 
C 941 325 723 511 723 744 
C 723 1211 1722 1211 1920 1211 
L 1920 816 
z
" transform="scale(0.015625)"/>
        <path id="CMSS17-6e" d="M 2618 1877 
C 2618 2283 2522 2816 1798 2816 
C 1389 2816 1120 2606 941 2389 
L 941 2758 
L 474 2758 
L 474 0 
L 960 0 
L 960 1559 
C 960 1964 1114 2428 1549 2428 
C 2112 2428 2131 2048 2131 1829 
L 2131 0 
L 2618 0 
L 2618 1877 
z
" transform="scale(0.015625)"/>
        <path id="CMSS17-67" d="M 2848 2808 
C 2483 2808 2170 2738 1914 2617 
C 1702 2777 1485 2808 1338 2808 
C 781 2808 358 2349 358 1814 
C 358 1468 550 1207 563 1195 
C 448 1035 384 863 384 672 
C 384 448 474 289 544 200 
C 211 -3 166 -314 166 -435 
C 166 -898 749 -1280 1498 -1280 
C 2253 -1280 2835 -898 2835 -428 
C 2835 448 1856 448 1587 448 
L 1069 448 
C 973 448 717 448 717 791 
C 717 921 774 1004 781 1010 
C 877 940 1075 832 1338 832 
C 1869 832 2310 1278 2310 1827 
C 2310 2132 2170 2355 2112 2432 
L 2131 2432 
C 2150 2432 2419 2432 2515 2432 
C 2720 2432 2739 2429 2918 2419 
L 2848 2808 
z
M 1338 1182 
C 1120 1182 813 1315 813 1823 
C 813 2375 1165 2464 1331 2464 
C 1549 2464 1856 2331 1856 1823 
C 1856 1271 1504 1182 1338 1182 
z
M 1581 -10 
C 1734 -10 2381 -10 2381 -442 
C 2381 -714 1984 -929 1504 -929 
C 1018 -929 621 -720 621 -435 
C 621 -403 621 -10 1062 -10 
L 1581 -10 
z
" transform="scale(0.015625)"/>
        <path id="CMSS17-6c" d="M 947 4416 
L 474 4416 
L 474 0 
L 947 0 
L 947 4416 
z
" transform="scale(0.015625)"/>
        <path id="CMSS17-65" d="M 2502 1377 
C 2502 1590 2490 2003 2285 2345 
C 2061 2713 1696 2816 1421 2816 
C 755 2816 192 2188 192 1375 
C 192 582 774 -64 1510 -64 
C 1798 -64 2150 19 2470 248 
C 2470 274 2458 414 2451 420 
C 2451 433 2432 630 2432 656 
C 2125 407 1773 325 1517 325 
C 1107 325 666 667 646 1377 
L 2502 1377 
z
M 698 1728 
C 781 2084 1062 2421 1421 2421 
C 1517 2421 1965 2421 2080 1728 
L 698 1728 
z
" transform="scale(0.015625)"/>
        <path id="CMSS17-5b" d="M 1613 -1600 
L 1613 -1212 
L 1062 -1212 
L 1062 4352 
L 1613 4352 
L 1613 4741 
L 595 4741 
L 595 -1600 
L 1613 -1600 
z
" transform="scale(0.015625)"/>
        <path id="CMSS17-64" d="M 2611 4416 
L 2138 4416 
L 2138 2438 
C 1939 2603 1613 2756 1254 2756 
C 672 2756 211 2131 211 1347 
C 211 562 666 -64 1235 -64 
C 1677 -64 1971 172 2125 306 
L 2125 -13 
L 2611 -13 
L 2611 4416 
z
M 2125 836 
C 2125 747 2125 653 1926 482 
C 1798 375 1645 325 1498 325 
C 1152 325 698 576 698 1340 
C 698 2134 1210 2368 1562 2368 
C 1798 2368 1990 2254 2125 2065 
L 2125 836 
z
" transform="scale(0.015625)"/>
        <path id="CMSS17-72" d="M 954 1363 
C 954 1965 1395 2368 1958 2368 
L 1958 2789 
C 1549 2789 1165 2585 934 2253 
L 934 2758 
L 480 2758 
L 480 0 
L 954 0 
L 954 1363 
z
" transform="scale(0.015625)"/>
        <path id="CMSS17-73" d="M 2061 2627 
C 1683 2807 1389 2807 1197 2807 
C 742 2807 198 2648 198 2003 
C 198 1359 902 1218 1094 1179 
C 1389 1122 1715 1058 1715 740 
C 1715 337 1254 337 1171 337 
C 915 337 563 407 243 638 
L 166 210 
C 531 0 883 -64 1178 -64 
C 1965 -64 2163 416 2163 781 
C 2163 1094 1984 1305 1862 1401 
C 1651 1568 1574 1587 1050 1696 
C 960 1709 646 1779 646 2066 
C 646 2432 1050 2432 1139 2432 
C 1555 2432 1811 2303 1984 2208 
L 2061 2627 
z
" transform="scale(0.015625)"/>
        <path id="CMSS17-5d" d="M 1146 4741 
L 128 4741 
L 128 4352 
L 678 4352 
L 678 -1212 
L 128 -1212 
L 128 -1600 
L 1146 -1600 
L 1146 4741 
z
" transform="scale(0.015625)"/>
       </defs>
       <use xlink:href="#CMSS17-61" transform="scale(0.996264)"/>
       <use xlink:href="#CMSS17-6e" transform="translate(44.921921 0)scale(0.996264)"/>
       <use xlink:href="#CMSS17-67" transform="translate(93.126864 0)scale(0.996264)"/>
       <use xlink:href="#CMSS17-6c" transform="translate(139.970487 0)scale(0.996264)"/>
       <use xlink:href="#CMSS17-65" transform="translate(162.15121 0)scale(0.996264)"/>
       <use xlink:href="#CMSS17-5b" transform="translate(235.019145 0)scale(0.996264)"/>
       <use xlink:href="#CMSS17-64" transform="translate(262.204584 0)scale(0.996264)"/>
       <use xlink:href="#CMSS17-65" transform="translate(310.409527 0)scale(0.996264)"/>
       <use xlink:href="#CMSS17-67" transform="translate(352.048349 0)scale(0.996264)"/>
       <use xlink:href="#CMSS17-72" transform="translate(398.891972 0)scale(0.996264)"/>
       <use xlink:href="#CMSS17-65" transform="translate(430.801745 0)scale(0.996264)"/>
       <use xlink:href="#CMSS17-65" transform="translate(472.440567 0)scale(0.996264)"/>
       <use xlink:href="#CMSS17-73" transform="translate(514.079389 0)scale(0.996264)"/>
       <use xlink:href="#CMSS17-5d" transform="translate(549.992931 0)scale(0.996264)"/>
      </g>
     </g>
    </g>
    <g id="matplotlib.axis_2"/>
    <g id="patch_4">
     <path d="M 603.329852 39.407617 
L 45.329852 39.407617 
" style="fill: none; stroke: #262626; stroke-width: 1.25; stroke-linejoin: miter; stroke-linecap: square"/>
    </g>
   </g>
   <g id="matplotlib.axis_3">
    <g id="xtick_9">
     <g id="line2d_9">
      <defs>
       <path id="m48285992c5" d="M 0 0 
L 0 6 
" style="stroke: #262626; stroke-width: 1.25"/>
      </defs>
      <g>
       <use xlink:href="#m48285992c5" x="70.693488" y="474.287617" style="fill: #262626; stroke: #262626; stroke-width: 1.25"/>
      </g>
     </g>
     <g id="text_10">
      <!-- $\mathdefault{4}$ -->
      <g style="fill: #262626" transform="translate(67.953755 491.397964)scale(0.11 -0.11)">
       <use xlink:href="#CMR17-34" transform="scale(0.996264)"/>
      </g>
     </g>
    </g>
    <g id="xtick_10">
     <g id="line2d_10">
      <g>
       <use xlink:href="#m48285992c5" x="183.420761" y="474.287617" style="fill: #262626; stroke: #262626; stroke-width: 1.25"/>
      </g>
     </g>
     <g id="text_11">
      <!-- $\mathdefault{6}$ -->
      <g style="fill: #262626" transform="translate(180.681027 491.397964)scale(0.11 -0.11)">
       <defs>
        <path id="CMR17-36" d="M 678 2176 
C 678 3690 1395 4032 1811 4032 
C 1946 4032 2272 4009 2400 3776 
C 2298 3776 2106 3776 2106 3553 
C 2106 3381 2246 3323 2336 3323 
C 2394 3323 2566 3348 2566 3560 
C 2566 3954 2246 4179 1805 4179 
C 1043 4179 243 3390 243 1984 
C 243 253 966 -128 1478 -128 
C 2099 -128 2688 427 2688 1283 
C 2688 2081 2170 2662 1517 2662 
C 1126 2662 838 2407 678 1960 
L 678 2176 
z
M 1478 25 
C 691 25 691 1200 691 1436 
C 691 1896 909 2560 1504 2560 
C 1613 2560 1926 2560 2138 2120 
C 2253 1870 2253 1609 2253 1289 
C 2253 944 2253 690 2118 434 
C 1978 171 1773 25 1478 25 
z
" transform="scale(0.015625)"/>
       </defs>
       <use xlink:href="#CMR17-36" transform="scale(0.996264)"/>
      </g>
     </g>
    </g>
    <g id="xtick_11">
     <g id="line2d_11">
      <g>
       <use xlink:href="#m48285992c5" x="296.148034" y="474.287617" style="fill: #262626; stroke: #262626; stroke-width: 1.25"/>
      </g>
     </g>
     <g id="text_12">
      <!-- $\mathdefault{8}$ -->
      <g style="fill: #262626" transform="translate(293.4083 491.397964)scale(0.11 -0.11)">
       <defs>
        <path id="CMR17-38" d="M 1741 2264 
C 2144 2467 2554 2773 2554 3263 
C 2554 3841 1990 4179 1472 4179 
C 890 4179 378 3759 378 3180 
C 378 3021 416 2747 666 2505 
C 730 2442 998 2251 1171 2130 
C 883 1983 211 1634 211 934 
C 211 279 838 -128 1459 -128 
C 2144 -128 2720 362 2720 1010 
C 2720 1590 2330 1857 2074 2029 
L 1741 2264 
z
M 902 2822 
C 851 2854 595 3051 595 3351 
C 595 3739 998 4032 1459 4032 
C 1965 4032 2336 3676 2336 3262 
C 2336 2669 1670 2331 1638 2331 
C 1632 2331 1626 2331 1574 2370 
L 902 2822 
z
M 2080 1519 
C 2176 1449 2483 1240 2483 851 
C 2483 381 2010 25 1472 25 
C 890 25 448 438 448 940 
C 448 1443 838 1862 1280 2060 
L 2080 1519 
z
" transform="scale(0.015625)"/>
       </defs>
       <use xlink:href="#CMR17-38" transform="scale(0.996264)"/>
      </g>
     </g>
    </g>
    <g id="xtick_12">
     <g id="line2d_12">
      <g>
       <use xlink:href="#m48285992c5" x="408.875306" y="474.287617" style="fill: #262626; stroke: #262626; stroke-width: 1.25"/>
      </g>
     </g>
     <g id="text_13">
      <!-- $\mathdefault{10}$ -->
      <g style="fill: #262626" transform="translate(403.395839 491.397964)scale(0.11 -0.11)">
       <use xlink:href="#CMR17-31" transform="scale(0.996264)"/>
       <use xlink:href="#CMR17-30" transform="translate(45.690477 0)scale(0.996264)"/>
      </g>
     </g>
    </g>
    <g id="xtick_13">
     <g id="line2d_13">
      <g>
       <use xlink:href="#m48285992c5" x="521.602579" y="474.287617" style="fill: #262626; stroke: #262626; stroke-width: 1.25"/>
      </g>
     </g>
     <g id="text_14">
      <!-- $\mathdefault{12}$ -->
      <g style="fill: #262626" transform="translate(516.123112 491.397964)scale(0.11 -0.11)">
       <use xlink:href="#CMR17-31" transform="scale(0.996264)"/>
       <use xlink:href="#CMR17-32" transform="translate(45.690477 0)scale(0.996264)"/>
      </g>
     </g>
    </g>
    <g id="text_15">
     <!-- Trotter steps (N) -->
     <g style="fill: #262626" transform="translate(282.330862 506.495235)scale(0.12 -0.12)">
      <defs>
       <path id="CMSS17-54" d="M 2317 3968 
L 2848 3968 
C 2925 3968 3002 3968 3078 3968 
L 3878 3968 
L 3878 4376 
L 218 4376 
L 218 3968 
L 1018 3968 
C 1094 3968 1171 3968 1248 3968 
L 1779 3968 
L 1779 -32 
L 2317 -32 
L 2317 3968 
z
" transform="scale(0.015625)"/>
       <path id="CMSS17-6f" d="M 2829 1356 
C 2829 2176 2221 2816 1504 2816 
C 768 2816 173 2157 173 1356 
C 173 544 787 -64 1498 -64 
C 2227 -64 2829 563 2829 1356 
z
M 1504 337 
C 1050 337 659 709 659 1408 
C 659 2151 1114 2427 1498 2427 
C 1914 2427 2342 2126 2342 1408 
C 2342 683 1926 337 1504 337 
z
" transform="scale(0.015625)"/>
       <path id="CMSS17-74" d="M 1069 2368 
L 1901 2368 
L 1901 2737 
L 1069 2737 
L 1069 3520 
L 614 3520 
L 614 2737 
L 109 2737 
L 109 2368 
L 602 2368 
L 602 749 
C 602 384 685 -64 1107 -64 
C 1427 -64 1722 25 2003 172 
L 1901 548 
C 1747 414 1562 337 1363 337 
C 1082 337 1069 696 1069 856 
L 1069 2368 
z
" transform="scale(0.015625)"/>
       <path id="CMSS17-70" d="M 966 333 
C 1178 129 1466 -5 1773 -5 
C 2368 -5 2880 603 2880 1412 
C 2880 2159 2496 2816 1946 2816 
C 1626 2816 1242 2702 954 2472 
L 954 2765 
L 480 2765 
L 480 -1216 
L 966 -1216 
L 966 333 
z
M 966 2100 
C 1018 2176 1235 2415 1587 2415 
C 2035 2415 2394 1960 2394 1412 
C 2394 787 1958 384 1530 384 
C 1402 384 1267 415 1139 523 
C 966 674 966 768 966 857 
L 966 2100 
z
" transform="scale(0.015625)"/>
       <path id="CMSS17-28" d="M 1613 4768 
C 1267 4417 474 3601 474 1588 
C 474 -433 1267 -1243 1613 -1600 
L 2003 -1600 
C 1216 -784 960 357 960 1581 
C 960 2798 1203 3946 2003 4768 
L 1613 4768 
z
" transform="scale(0.015625)"/>
       <path id="CMSS17-4e" d="M 1466 4180 
L 1350 4416 
L 563 4416 
L 563 0 
L 1062 0 
L 1062 3926 
L 1069 3932 
C 1114 3817 1139 3760 1402 3194 
L 2771 236 
L 2886 0 
L 3674 0 
L 3674 4416 
L 3174 4416 
L 3174 490 
L 3168 483 
C 3123 598 3098 655 2835 1221 
L 1466 4180 
z
" transform="scale(0.015625)"/>
       <path id="CMSS17-29" d="M 723 -1600 
C 1069 -1249 1862 -433 1862 1581 
C 1862 3601 1069 4411 723 4768 
L 333 4768 
C 1120 3952 1376 2811 1376 1588 
C 1376 370 1133 -778 333 -1600 
L 723 -1600 
z
" transform="scale(0.015625)"/>
      </defs>
      <use xlink:href="#CMSS17-54" transform="scale(0.996264)"/>
      <use xlink:href="#CMSS17-72" transform="translate(56.012199 0)scale(0.996264)"/>
      <use xlink:href="#CMSS17-6f" transform="translate(87.921971 0)scale(0.996264)"/>
      <use xlink:href="#CMSS17-74" transform="translate(134.765595 0)scale(0.996264)"/>
      <use xlink:href="#CMSS17-74" transform="translate(168.597161 0)scale(0.996264)"/>
      <use xlink:href="#CMSS17-65" transform="translate(202.428728 0)scale(0.996264)"/>
      <use xlink:href="#CMSS17-72" transform="translate(244.06755 0)scale(0.996264)"/>
      <use xlink:href="#CMSS17-73" transform="translate(307.206435 0)scale(0.996264)"/>
      <use xlink:href="#CMSS17-74" transform="translate(343.119977 0)scale(0.996264)"/>
      <use xlink:href="#CMSS17-65" transform="translate(376.951544 0)scale(0.996264)"/>
      <use xlink:href="#CMSS17-70" transform="translate(418.590366 0)scale(0.996264)"/>
      <use xlink:href="#CMSS17-73" transform="translate(466.795309 0)scale(0.996264)"/>
      <use xlink:href="#CMSS17-28" transform="translate(533.937964 0)scale(0.996264)"/>
      <use xlink:href="#CMSS17-4e" transform="translate(570.371878 0)scale(0.996264)"/>
      <use xlink:href="#CMSS17-29" transform="translate(636.433397 0)scale(0.996264)"/>
     </g>
    </g>
   </g>
   <g id="matplotlib.axis_4">
    <g id="ytick_1">
     <g id="line2d_14">
      <path d="M 45.329852 474.287617 
L 603.329852 474.287617 
" clip-path="url(#p86169754ee)" style="fill: none; stroke-dasharray: 1.85,0.8; stroke-dashoffset: 0; stroke: #cccccc; stroke-width: 0.5"/>
     </g>
     <g id="line2d_15">
      <defs>
       <path id="m1a52fbc7b8" d="M 0 0 
L -6 0 
" style="stroke: #262626; stroke-width: 1.25"/>
      </defs>
      <g>
       <use xlink:href="#m1a52fbc7b8" x="45.329852" y="474.287617" style="fill: #262626; stroke: #262626; stroke-width: 1.25"/>
      </g>
     </g>
     <g id="text_16">
      <!-- $\mathdefault{0.0}$ -->
      <g style="fill: #262626" transform="translate(21.826776 478.092791)scale(0.11 -0.11)">
       <defs>
        <path id="CMMI12-3a" d="M 1178 307 
C 1178 492 1024 619 870 619 
C 685 619 557 466 557 313 
C 557 128 710 0 864 0 
C 1050 0 1178 153 1178 307 
z
" transform="scale(0.015625)"/>
       </defs>
       <use xlink:href="#CMR17-30" transform="scale(0.996264)"/>
       <use xlink:href="#CMMI12-3a" transform="translate(45.690477 0)scale(0.996264)"/>
       <use xlink:href="#CMR17-30" transform="translate(72.787654 0)scale(0.996264)"/>
      </g>
     </g>
    </g>
    <g id="ytick_2">
     <g id="line2d_16">
      <path d="M 45.329852 431.886155 
L 603.329852 431.886155 
" clip-path="url(#p86169754ee)" style="fill: none; stroke-dasharray: 1.85,0.8; stroke-dashoffset: 0; stroke: #cccccc; stroke-width: 0.5"/>
     </g>
     <g id="line2d_17">
      <g>
       <use xlink:href="#m1a52fbc7b8" x="45.329852" y="431.886155" style="fill: #262626; stroke: #262626; stroke-width: 1.25"/>
      </g>
     </g>
     <g id="text_17">
      <!-- $\mathdefault{0.1}$ -->
      <g style="fill: #262626" transform="translate(21.826776 435.691328)scale(0.11 -0.11)">
       <use xlink:href="#CMR17-30" transform="scale(0.996264)"/>
       <use xlink:href="#CMMI12-3a" transform="translate(45.690477 0)scale(0.996264)"/>
       <use xlink:href="#CMR17-31" transform="translate(72.787654 0)scale(0.996264)"/>
      </g>
     </g>
    </g>
    <g id="ytick_3">
     <g id="line2d_18">
      <path d="M 45.329852 389.484692 
L 603.329852 389.484692 
" clip-path="url(#p86169754ee)" style="fill: none; stroke-dasharray: 1.85,0.8; stroke-dashoffset: 0; stroke: #cccccc; stroke-width: 0.5"/>
     </g>
     <g id="line2d_19">
      <g>
       <use xlink:href="#m1a52fbc7b8" x="45.329852" y="389.484692" style="fill: #262626; stroke: #262626; stroke-width: 1.25"/>
      </g>
     </g>
     <g id="text_18">
      <!-- $\mathdefault{0.2}$ -->
      <g style="fill: #262626" transform="translate(21.826776 393.289866)scale(0.11 -0.11)">
       <use xlink:href="#CMR17-30" transform="scale(0.996264)"/>
       <use xlink:href="#CMMI12-3a" transform="translate(45.690477 0)scale(0.996264)"/>
       <use xlink:href="#CMR17-32" transform="translate(72.787654 0)scale(0.996264)"/>
      </g>
     </g>
    </g>
    <g id="ytick_4">
     <g id="line2d_20">
      <path d="M 45.329852 347.08323 
L 603.329852 347.08323 
" clip-path="url(#p86169754ee)" style="fill: none; stroke-dasharray: 1.85,0.8; stroke-dashoffset: 0; stroke: #cccccc; stroke-width: 0.5"/>
     </g>
     <g id="line2d_21">
      <g>
       <use xlink:href="#m1a52fbc7b8" x="45.329852" y="347.08323" style="fill: #262626; stroke: #262626; stroke-width: 1.25"/>
      </g>
     </g>
     <g id="text_19">
      <!-- $\mathdefault{0.3}$ -->
      <g style="fill: #262626" transform="translate(21.826776 350.888403)scale(0.11 -0.11)">
       <use xlink:href="#CMR17-30" transform="scale(0.996264)"/>
       <use xlink:href="#CMMI12-3a" transform="translate(45.690477 0)scale(0.996264)"/>
       <use xlink:href="#CMR17-33" transform="translate(72.787654 0)scale(0.996264)"/>
      </g>
     </g>
    </g>
    <g id="ytick_5">
     <g id="line2d_22">
      <path d="M 45.329852 304.681767 
L 603.329852 304.681767 
" clip-path="url(#p86169754ee)" style="fill: none; stroke-dasharray: 1.85,0.8; stroke-dashoffset: 0; stroke: #cccccc; stroke-width: 0.5"/>
     </g>
     <g id="line2d_23">
      <g>
       <use xlink:href="#m1a52fbc7b8" x="45.329852" y="304.681767" style="fill: #262626; stroke: #262626; stroke-width: 1.25"/>
      </g>
     </g>
     <g id="text_20">
      <!-- $\mathdefault{0.4}$ -->
      <g style="fill: #262626" transform="translate(21.826776 308.486941)scale(0.11 -0.11)">
       <use xlink:href="#CMR17-30" transform="scale(0.996264)"/>
       <use xlink:href="#CMMI12-3a" transform="translate(45.690477 0)scale(0.996264)"/>
       <use xlink:href="#CMR17-34" transform="translate(72.787654 0)scale(0.996264)"/>
      </g>
     </g>
    </g>
    <g id="ytick_6">
     <g id="line2d_24">
      <path d="M 45.329852 262.280305 
L 603.329852 262.280305 
" clip-path="url(#p86169754ee)" style="fill: none; stroke-dasharray: 1.85,0.8; stroke-dashoffset: 0; stroke: #cccccc; stroke-width: 0.5"/>
     </g>
     <g id="line2d_25">
      <g>
       <use xlink:href="#m1a52fbc7b8" x="45.329852" y="262.280305" style="fill: #262626; stroke: #262626; stroke-width: 1.25"/>
      </g>
     </g>
     <g id="text_21">
      <!-- $\mathdefault{0.5}$ -->
      <g style="fill: #262626" transform="translate(21.826776 266.085478)scale(0.11 -0.11)">
       <use xlink:href="#CMR17-30" transform="scale(0.996264)"/>
       <use xlink:href="#CMMI12-3a" transform="translate(45.690477 0)scale(0.996264)"/>
       <use xlink:href="#CMR17-35" transform="translate(72.787654 0)scale(0.996264)"/>
      </g>
     </g>
    </g>
    <g id="ytick_7">
     <g id="line2d_26">
      <path d="M 45.329852 219.878842 
L 603.329852 219.878842 
" clip-path="url(#p86169754ee)" style="fill: none; stroke-dasharray: 1.85,0.8; stroke-dashoffset: 0; stroke: #cccccc; stroke-width: 0.5"/>
     </g>
     <g id="line2d_27">
      <g>
       <use xlink:href="#m1a52fbc7b8" x="45.329852" y="219.878842" style="fill: #262626; stroke: #262626; stroke-width: 1.25"/>
      </g>
     </g>
     <g id="text_22">
      <!-- $\mathdefault{0.6}$ -->
      <g style="fill: #262626" transform="translate(21.826776 223.684016)scale(0.11 -0.11)">
       <use xlink:href="#CMR17-30" transform="scale(0.996264)"/>
       <use xlink:href="#CMMI12-3a" transform="translate(45.690477 0)scale(0.996264)"/>
       <use xlink:href="#CMR17-36" transform="translate(72.787654 0)scale(0.996264)"/>
      </g>
     </g>
    </g>
    <g id="ytick_8">
     <g id="line2d_28">
      <path d="M 45.329852 177.47738 
L 603.329852 177.47738 
" clip-path="url(#p86169754ee)" style="fill: none; stroke-dasharray: 1.85,0.8; stroke-dashoffset: 0; stroke: #cccccc; stroke-width: 0.5"/>
     </g>
     <g id="line2d_29">
      <g>
       <use xlink:href="#m1a52fbc7b8" x="45.329852" y="177.47738" style="fill: #262626; stroke: #262626; stroke-width: 1.25"/>
      </g>
     </g>
     <g id="text_23">
      <!-- $\mathdefault{0.7}$ -->
      <g style="fill: #262626" transform="translate(21.826776 181.282553)scale(0.11 -0.11)">
       <defs>
        <path id="CMR17-37" d="M 2886 3941 
L 2886 4081 
L 1382 4081 
C 634 4081 621 4165 595 4288 
L 480 4288 
L 294 3094 
L 410 3094 
C 429 3215 474 3540 550 3661 
C 589 3712 1062 3712 1171 3712 
L 2579 3712 
L 1869 2661 
C 1395 1954 1069 999 1069 165 
C 1069 89 1069 -128 1299 -128 
C 1530 -128 1530 89 1530 171 
L 1530 465 
C 1530 1508 1709 2196 2003 2636 
L 2886 3941 
z
" transform="scale(0.015625)"/>
       </defs>
       <use xlink:href="#CMR17-30" transform="scale(0.996264)"/>
       <use xlink:href="#CMMI12-3a" transform="translate(45.690477 0)scale(0.996264)"/>
       <use xlink:href="#CMR17-37" transform="translate(72.787654 0)scale(0.996264)"/>
      </g>
     </g>
    </g>
    <g id="ytick_9">
     <g id="line2d_30">
      <path d="M 45.329852 135.075917 
L 603.329852 135.075917 
" clip-path="url(#p86169754ee)" style="fill: none; stroke-dasharray: 1.85,0.8; stroke-dashoffset: 0; stroke: #cccccc; stroke-width: 0.5"/>
     </g>
     <g id="line2d_31">
      <g>
       <use xlink:href="#m1a52fbc7b8" x="45.329852" y="135.075917" style="fill: #262626; stroke: #262626; stroke-width: 1.25"/>
      </g>
     </g>
     <g id="text_24">
      <!-- $\mathdefault{0.8}$ -->
      <g style="fill: #262626" transform="translate(21.826776 138.881091)scale(0.11 -0.11)">
       <use xlink:href="#CMR17-30" transform="scale(0.996264)"/>
       <use xlink:href="#CMMI12-3a" transform="translate(45.690477 0)scale(0.996264)"/>
       <use xlink:href="#CMR17-38" transform="translate(72.787654 0)scale(0.996264)"/>
      </g>
     </g>
    </g>
    <g id="ytick_10">
     <g id="line2d_32">
      <path d="M 45.329852 92.674455 
L 603.329852 92.674455 
" clip-path="url(#p86169754ee)" style="fill: none; stroke-dasharray: 1.85,0.8; stroke-dashoffset: 0; stroke: #cccccc; stroke-width: 0.5"/>
     </g>
     <g id="line2d_33">
      <g>
       <use xlink:href="#m1a52fbc7b8" x="45.329852" y="92.674455" style="fill: #262626; stroke: #262626; stroke-width: 1.25"/>
      </g>
     </g>
     <g id="text_25">
      <!-- $\mathdefault{0.9}$ -->
      <g style="fill: #262626" transform="translate(21.826776 96.479628)scale(0.11 -0.11)">
       <defs>
        <path id="CMR17-39" d="M 2253 1864 
C 2253 464 1670 31 1190 31 
C 1043 31 685 31 538 294 
C 704 268 826 357 826 518 
C 826 692 685 749 595 749 
C 538 749 365 723 365 506 
C 365 71 742 -128 1203 -128 
C 1939 -128 2688 674 2688 2073 
C 2688 3817 1971 4179 1485 4179 
C 851 4179 243 3628 243 2778 
C 243 1991 762 1408 1414 1408 
C 1952 1408 2189 1903 2253 2112 
L 2253 1864 
z
M 1427 1510 
C 1254 1510 1011 1542 813 1922 
C 678 2169 678 2461 678 2771 
C 678 3146 678 3405 858 3684 
C 947 3817 1114 4032 1485 4032 
C 2240 4032 2240 2885 2240 2632 
C 2240 2182 2035 1510 1427 1510 
z
" transform="scale(0.015625)"/>
       </defs>
       <use xlink:href="#CMR17-30" transform="scale(0.996264)"/>
       <use xlink:href="#CMMI12-3a" transform="translate(45.690477 0)scale(0.996264)"/>
       <use xlink:href="#CMR17-39" transform="translate(72.787654 0)scale(0.996264)"/>
      </g>
     </g>
    </g>
    <g id="ytick_11">
     <g id="line2d_34">
      <path d="M 45.329852 50.272992 
L 603.329852 50.272992 
" clip-path="url(#p86169754ee)" style="fill: none; stroke-dasharray: 1.85,0.8; stroke-dashoffset: 0; stroke: #cccccc; stroke-width: 0.5"/>
     </g>
     <g id="line2d_35">
      <g>
       <use xlink:href="#m1a52fbc7b8" x="45.329852" y="50.272992" style="fill: #262626; stroke: #262626; stroke-width: 1.25"/>
      </g>
     </g>
     <g id="text_26">
      <!-- $\mathdefault{1.0}$ -->
      <g style="fill: #262626" transform="translate(21.826776 54.078166)scale(0.11 -0.11)">
       <use xlink:href="#CMR17-31" transform="scale(0.996264)"/>
       <use xlink:href="#CMMI12-3a" transform="translate(45.690477 0)scale(0.996264)"/>
       <use xlink:href="#CMR17-30" transform="translate(72.787654 0)scale(0.996264)"/>
      </g>
     </g>
    </g>
    <g id="text_27">
     <!-- State tomography fidelity -->
     <g style="fill: #262626" transform="translate(15.50218 318.739789)rotate(-90)scale(0.12 -0.12)">
      <defs>
       <path id="CMSS17-53" d="M 2797 4169 
C 2515 4334 2208 4480 1690 4480 
C 864 4480 333 3879 333 3266 
C 333 3025 403 2753 653 2475 
C 902 2196 1184 2121 1542 2033 
C 1690 1994 1939 1924 1984 1906 
C 2342 1767 2515 1444 2515 1140 
C 2515 742 2202 318 1645 318 
C 1453 318 890 318 358 819 
L 269 318 
C 794 -64 1363 -128 1651 -128 
C 2438 -128 3002 488 3002 1186 
C 3002 1440 2925 1763 2656 2061 
C 2394 2347 2163 2410 1638 2549 
C 1338 2626 1146 2677 986 2873 
C 877 3013 819 3146 819 3317 
C 819 3673 1126 4060 1690 4060 
C 1971 4060 2336 4002 2707 3660 
L 2797 4169 
z
" transform="scale(0.015625)"/>
       <path id="CMSS17-6d" d="M 4288 1877 
C 4288 2308 4179 2816 3462 2816 
C 2982 2816 2694 2516 2566 2331 
C 2451 2670 2182 2816 1798 2816 
C 1363 2816 1088 2568 941 2389 
L 941 2758 
L 474 2758 
L 474 0 
L 960 0 
L 960 1559 
C 960 1939 1101 2428 1555 2428 
C 2138 2428 2138 2016 2138 1829 
L 2138 0 
L 2624 0 
L 2624 1559 
C 2624 1939 2765 2428 3219 2428 
C 3802 2428 3802 2016 3802 1829 
L 3802 0 
L 4288 0 
L 4288 1877 
z
" transform="scale(0.015625)"/>
       <path id="CMSS17-68" d="M 2618 1891 
C 2618 2292 2522 2820 1798 2820 
C 1395 2820 1133 2623 947 2407 
L 947 4448 
L 474 4448 
L 474 32 
L 960 32 
L 960 1573 
C 960 1973 1114 2432 1549 2432 
C 2112 2432 2131 2056 2131 1839 
L 2131 32 
L 2618 32 
L 2618 1891 
z
" transform="scale(0.015625)"/>
       <path id="CMSS17-79" d="M 2675 2752 
L 2176 2752 
C 1632 1294 1446 702 1434 383 
L 1427 383 
C 1408 696 1126 1460 902 2007 
L 602 2752 
L 83 2752 
L 1216 13 
C 1146 -178 1043 -465 1011 -529 
C 870 -885 774 -885 672 -885 
C 646 -885 442 -885 211 -809 
L 250 -1229 
C 410 -1261 570 -1280 685 -1280 
C 845 -1280 1165 -1280 1459 -497 
L 2675 2752 
z
" transform="scale(0.015625)"/>
       <path id="CMSS17-c" d="M 2752 4416 
L 2240 4416 
L 2240 3906 
L 2752 3906 
L 2752 4416 
z
M 2733 2737 
L 2259 2737 
L 2259 0 
L 2733 0 
L 2733 2737 
z
M 1075 2368 
L 1773 2368 
L 1773 2737 
L 1062 2737 
L 1062 3578 
C 1062 3919 1216 4092 1421 4092 
C 1542 4092 1664 4056 1773 3992 
L 1773 4410 
C 1722 4428 1574 4480 1421 4480 
C 941 4480 602 3993 602 3372 
L 602 2737 
L 160 2737 
L 160 2368 
L 602 2368 
L 602 0 
L 1075 0 
L 1075 2368 
z
" transform="scale(0.015625)"/>
       <path id="CMSS17-69" d="M 979 4183 
L 442 4183 
L 442 3648 
L 979 3648 
L 979 4183 
z
M 947 2739 
L 474 2739 
L 474 0 
L 947 0 
L 947 2739 
z
" transform="scale(0.015625)"/>
      </defs>
      <use xlink:href="#CMSS17-53" transform="scale(0.996264)"/>
      <use xlink:href="#CMSS17-74" transform="translate(52.048516 0)scale(0.996264)"/>
      <use xlink:href="#CMSS17-61" transform="translate(85.880083 0)scale(0.996264)"/>
      <use xlink:href="#CMSS17-74" transform="translate(130.802003 0)scale(0.996264)"/>
      <use xlink:href="#CMSS17-65" transform="translate(164.63357 0)scale(0.996264)"/>
      <use xlink:href="#CMSS17-74" transform="translate(237.501505 0)scale(0.996264)"/>
      <use xlink:href="#CMSS17-6f" transform="translate(271.333072 0)scale(0.996264)"/>
      <use xlink:href="#CMSS17-6d" transform="translate(318.176695 0)scale(0.996264)"/>
      <use xlink:href="#CMSS17-6f" transform="translate(392.40595 0)scale(0.996264)"/>
      <use xlink:href="#CMSS17-67" transform="translate(439.249573 0)scale(0.996264)"/>
      <use xlink:href="#CMSS17-72" transform="translate(486.093197 0)scale(0.996264)"/>
      <use xlink:href="#CMSS17-61" transform="translate(518.002969 0)scale(0.996264)"/>
      <use xlink:href="#CMSS17-70" transform="translate(562.92489 0)scale(0.996264)"/>
      <use xlink:href="#CMSS17-68" transform="translate(611.129833 0)scale(0.996264)"/>
      <use xlink:href="#CMSS17-79" transform="translate(659.334776 0)scale(0.996264)"/>
      <use xlink:href="#CMSS17-c" transform="translate(733.564031 0)scale(0.996264)"/>
      <use xlink:href="#CMSS17-64" transform="translate(783.690768 0)scale(0.996264)"/>
      <use xlink:href="#CMSS17-65" transform="translate(831.895711 0)scale(0.996264)"/>
      <use xlink:href="#CMSS17-6c" transform="translate(873.534533 0)scale(0.996264)"/>
      <use xlink:href="#CMSS17-69" transform="translate(895.715256 0)scale(0.996264)"/>
      <use xlink:href="#CMSS17-74" transform="translate(917.895979 0)scale(0.996264)"/>
      <use xlink:href="#CMSS17-79" transform="translate(949.125092 0)scale(0.996264)"/>
     </g>
    </g>
   </g>
   <g id="line2d_36">
    <path d="M 70.693488 474.07561 
L 127.057125 365.570268 
L 183.420761 232.387274 
L 239.784397 153.647758 
L 296.148034 112.051923 
L 352.51167 89.367141 
L 408.875306 76.095483 
L 465.238943 68.46322 
L 521.602579 63.502249 
L 577.966215 60.110132 
" clip-path="url(#p86169754ee)" style="fill: none; stroke-dasharray: 2.59,1.12; stroke-dashoffset: 0; stroke: #a9a9a9; stroke-opacity: 0.85; stroke-width: 0.7"/>
    <defs>
     <path id="m1afc97953e" d="M 0 -3.5 
L -0.785799 -1.081559 
L -3.328698 -1.081559 
L -1.271449 0.413119 
L -2.057248 2.831559 
L -0 1.336881 
L 2.057248 2.831559 
L 1.271449 0.413119 
L 3.328698 -1.081559 
L 0.785799 -1.081559 
z
" style="stroke: #a9a9a9; stroke-opacity: 0.85; stroke-linejoin: bevel"/>
    </defs>
    <g clip-path="url(#p86169754ee)">
     <use xlink:href="#m1afc97953e" x="70.693488" y="474.07561" style="fill: #a9a9a9; fill-opacity: 0.85; stroke: #a9a9a9; stroke-opacity: 0.85; stroke-linejoin: bevel"/>
     <use xlink:href="#m1afc97953e" x="127.057125" y="365.570268" style="fill: #a9a9a9; fill-opacity: 0.85; stroke: #a9a9a9; stroke-opacity: 0.85; stroke-linejoin: bevel"/>
     <use xlink:href="#m1afc97953e" x="183.420761" y="232.387274" style="fill: #a9a9a9; fill-opacity: 0.85; stroke: #a9a9a9; stroke-opacity: 0.85; stroke-linejoin: bevel"/>
     <use xlink:href="#m1afc97953e" x="239.784397" y="153.647758" style="fill: #a9a9a9; fill-opacity: 0.85; stroke: #a9a9a9; stroke-opacity: 0.85; stroke-linejoin: bevel"/>
     <use xlink:href="#m1afc97953e" x="296.148034" y="112.051923" style="fill: #a9a9a9; fill-opacity: 0.85; stroke: #a9a9a9; stroke-opacity: 0.85; stroke-linejoin: bevel"/>
     <use xlink:href="#m1afc97953e" x="352.51167" y="89.367141" style="fill: #a9a9a9; fill-opacity: 0.85; stroke: #a9a9a9; stroke-opacity: 0.85; stroke-linejoin: bevel"/>
     <use xlink:href="#m1afc97953e" x="408.875306" y="76.095483" style="fill: #a9a9a9; fill-opacity: 0.85; stroke: #a9a9a9; stroke-opacity: 0.85; stroke-linejoin: bevel"/>
     <use xlink:href="#m1afc97953e" x="465.238943" y="68.46322" style="fill: #a9a9a9; fill-opacity: 0.85; stroke: #a9a9a9; stroke-opacity: 0.85; stroke-linejoin: bevel"/>
     <use xlink:href="#m1afc97953e" x="521.602579" y="63.502249" style="fill: #a9a9a9; fill-opacity: 0.85; stroke: #a9a9a9; stroke-opacity: 0.85; stroke-linejoin: bevel"/>
     <use xlink:href="#m1afc97953e" x="577.966215" y="60.110132" style="fill: #a9a9a9; fill-opacity: 0.85; stroke: #a9a9a9; stroke-opacity: 0.85; stroke-linejoin: bevel"/>
    </g>
   </g>
   <g id="line2d_37">
    <path d="M 70.693488 449.864375 
L 127.057125 413.48392 
L 183.420761 392.579999 
L 239.784397 390.714335 
L 296.148034 394.615269 
L 352.51167 399.957854 
L 408.875306 404.706817 
L 465.238943 409.455781 
L 521.602579 412.423884 
L 577.966215 415.349585 
" clip-path="url(#p86169754ee)" style="fill: none; stroke-dasharray: 2.59,1.12; stroke-dashoffset: 0; stroke: #00bfff; stroke-opacity: 0.85; stroke-width: 0.7"/>
    <defs>
     <path id="m6e5750720e" d="M -1.166667 3.5 
L 1.166667 3.5 
L 1.166667 1.166667 
L 3.5 1.166667 
L 3.5 -1.166667 
L 1.166667 -1.166667 
L 1.166667 -3.5 
L -1.166667 -3.5 
L -1.166667 -1.166667 
L -3.5 -1.166667 
L -3.5 1.166667 
L -1.166667 1.166667 
z
" style="stroke: #00bfff; stroke-opacity: 0.85; stroke-linejoin: miter"/>
    </defs>
    <g clip-path="url(#p86169754ee)">
     <use xlink:href="#m6e5750720e" x="70.693488" y="449.864375" style="fill: #00bfff; fill-opacity: 0.85; stroke: #00bfff; stroke-opacity: 0.85; stroke-linejoin: miter"/>
     <use xlink:href="#m6e5750720e" x="127.057125" y="413.48392" style="fill: #00bfff; fill-opacity: 0.85; stroke: #00bfff; stroke-opacity: 0.85; stroke-linejoin: miter"/>
     <use xlink:href="#m6e5750720e" x="183.420761" y="392.579999" style="fill: #00bfff; fill-opacity: 0.85; stroke: #00bfff; stroke-opacity: 0.85; stroke-linejoin: miter"/>
     <use xlink:href="#m6e5750720e" x="239.784397" y="390.714335" style="fill: #00bfff; fill-opacity: 0.85; stroke: #00bfff; stroke-opacity: 0.85; stroke-linejoin: miter"/>
     <use xlink:href="#m6e5750720e" x="296.148034" y="394.615269" style="fill: #00bfff; fill-opacity: 0.85; stroke: #00bfff; stroke-opacity: 0.85; stroke-linejoin: miter"/>
     <use xlink:href="#m6e5750720e" x="352.51167" y="399.957854" style="fill: #00bfff; fill-opacity: 0.85; stroke: #00bfff; stroke-opacity: 0.85; stroke-linejoin: miter"/>
     <use xlink:href="#m6e5750720e" x="408.875306" y="404.706817" style="fill: #00bfff; fill-opacity: 0.85; stroke: #00bfff; stroke-opacity: 0.85; stroke-linejoin: miter"/>
     <use xlink:href="#m6e5750720e" x="465.238943" y="409.455781" style="fill: #00bfff; fill-opacity: 0.85; stroke: #00bfff; stroke-opacity: 0.85; stroke-linejoin: miter"/>
     <use xlink:href="#m6e5750720e" x="521.602579" y="412.423884" style="fill: #00bfff; fill-opacity: 0.85; stroke: #00bfff; stroke-opacity: 0.85; stroke-linejoin: miter"/>
     <use xlink:href="#m6e5750720e" x="577.966215" y="415.349585" style="fill: #00bfff; fill-opacity: 0.85; stroke: #00bfff; stroke-opacity: 0.85; stroke-linejoin: miter"/>
    </g>
   </g>
   <g id="line2d_38">
    <path d="M 70.693488 455.842981 
L 127.057125 396.014518 
L 183.420761 345.005558 
L 239.784397 328.087375 
L 296.148034 327.493754 
L 352.51167 332.624331 
L 408.875306 341.062222 
L 465.238943 349.500113 
L 521.602579 357.429187 
L 577.966215 365.146253 
" clip-path="url(#p86169754ee)" style="fill: none; stroke-dasharray: 2.59,1.12; stroke-dashoffset: 0; stroke: #0000ff; stroke-opacity: 0.85; stroke-width: 0.7"/>
    <defs>
     <path id="m9633a16bb1" d="M 0 -3.5 
L -3.5 3.5 
L 3.5 3.5 
z
" style="stroke: #0000ff; stroke-opacity: 0.85; stroke-linejoin: miter"/>
    </defs>
    <g clip-path="url(#p86169754ee)">
     <use xlink:href="#m9633a16bb1" x="70.693488" y="455.842981" style="fill: #0000ff; fill-opacity: 0.85; stroke: #0000ff; stroke-opacity: 0.85; stroke-linejoin: miter"/>
     <use xlink:href="#m9633a16bb1" x="127.057125" y="396.014518" style="fill: #0000ff; fill-opacity: 0.85; stroke: #0000ff; stroke-opacity: 0.85; stroke-linejoin: miter"/>
     <use xlink:href="#m9633a16bb1" x="183.420761" y="345.005558" style="fill: #0000ff; fill-opacity: 0.85; stroke: #0000ff; stroke-opacity: 0.85; stroke-linejoin: miter"/>
     <use xlink:href="#m9633a16bb1" x="239.784397" y="328.087375" style="fill: #0000ff; fill-opacity: 0.85; stroke: #0000ff; stroke-opacity: 0.85; stroke-linejoin: miter"/>
     <use xlink:href="#m9633a16bb1" x="296.148034" y="327.493754" style="fill: #0000ff; fill-opacity: 0.85; stroke: #0000ff; stroke-opacity: 0.85; stroke-linejoin: miter"/>
     <use xlink:href="#m9633a16bb1" x="352.51167" y="332.624331" style="fill: #0000ff; fill-opacity: 0.85; stroke: #0000ff; stroke-opacity: 0.85; stroke-linejoin: miter"/>
     <use xlink:href="#m9633a16bb1" x="408.875306" y="341.062222" style="fill: #0000ff; fill-opacity: 0.85; stroke: #0000ff; stroke-opacity: 0.85; stroke-linejoin: miter"/>
     <use xlink:href="#m9633a16bb1" x="465.238943" y="349.500113" style="fill: #0000ff; fill-opacity: 0.85; stroke: #0000ff; stroke-opacity: 0.85; stroke-linejoin: miter"/>
     <use xlink:href="#m9633a16bb1" x="521.602579" y="357.429187" style="fill: #0000ff; fill-opacity: 0.85; stroke: #0000ff; stroke-opacity: 0.85; stroke-linejoin: miter"/>
     <use xlink:href="#m9633a16bb1" x="577.966215" y="365.146253" style="fill: #0000ff; fill-opacity: 0.85; stroke: #0000ff; stroke-opacity: 0.85; stroke-linejoin: miter"/>
    </g>
   </g>
   <g id="line2d_39">
    <path d="M 70.693488 456.818215 
L 127.057125 391.180751 
L 183.420761 334.447594 
L 239.784397 315.918155 
L 296.148034 315.536542 
L 352.51167 321.557549 
L 408.875306 331.225083 
L 465.238943 340.935018 
L 521.602579 350.008931 
L 577.966215 358.828435 
" clip-path="url(#p86169754ee)" style="fill: none; stroke-dasharray: 2.59,1.12; stroke-dashoffset: 0; stroke: #00008b; stroke-opacity: 0.85; stroke-width: 0.7"/>
    <defs>
     <path id="m2098d1d2e2" d="M -0 3.5 
L 3.5 -3.5 
L -3.5 -3.5 
z
" style="stroke: #00008b; stroke-opacity: 0.85; stroke-linejoin: miter"/>
    </defs>
    <g clip-path="url(#p86169754ee)">
     <use xlink:href="#m2098d1d2e2" x="70.693488" y="456.818215" style="fill: #00008b; fill-opacity: 0.85; stroke: #00008b; stroke-opacity: 0.85; stroke-linejoin: miter"/>
     <use xlink:href="#m2098d1d2e2" x="127.057125" y="391.180751" style="fill: #00008b; fill-opacity: 0.85; stroke: #00008b; stroke-opacity: 0.85; stroke-linejoin: miter"/>
     <use xlink:href="#m2098d1d2e2" x="183.420761" y="334.447594" style="fill: #00008b; fill-opacity: 0.85; stroke: #00008b; stroke-opacity: 0.85; stroke-linejoin: miter"/>
     <use xlink:href="#m2098d1d2e2" x="239.784397" y="315.918155" style="fill: #00008b; fill-opacity: 0.85; stroke: #00008b; stroke-opacity: 0.85; stroke-linejoin: miter"/>
     <use xlink:href="#m2098d1d2e2" x="296.148034" y="315.536542" style="fill: #00008b; fill-opacity: 0.85; stroke: #00008b; stroke-opacity: 0.85; stroke-linejoin: miter"/>
     <use xlink:href="#m2098d1d2e2" x="352.51167" y="321.557549" style="fill: #00008b; fill-opacity: 0.85; stroke: #00008b; stroke-opacity: 0.85; stroke-linejoin: miter"/>
     <use xlink:href="#m2098d1d2e2" x="408.875306" y="331.225083" style="fill: #00008b; fill-opacity: 0.85; stroke: #00008b; stroke-opacity: 0.85; stroke-linejoin: miter"/>
     <use xlink:href="#m2098d1d2e2" x="465.238943" y="340.935018" style="fill: #00008b; fill-opacity: 0.85; stroke: #00008b; stroke-opacity: 0.85; stroke-linejoin: miter"/>
     <use xlink:href="#m2098d1d2e2" x="521.602579" y="350.008931" style="fill: #00008b; fill-opacity: 0.85; stroke: #00008b; stroke-opacity: 0.85; stroke-linejoin: miter"/>
     <use xlink:href="#m2098d1d2e2" x="577.966215" y="358.828435" style="fill: #00008b; fill-opacity: 0.85; stroke: #00008b; stroke-opacity: 0.85; stroke-linejoin: miter"/>
    </g>
   </g>
   <g id="line2d_40">
    <path d="M 70.693488 472.506756 
L 127.057125 378.163502 
L 183.420761 266.181239 
L 239.784397 204.359907 
L 296.148034 173.449241 
L 352.51167 159.456758 
L 408.875306 153.13894 
L 465.238943 150.80686 
L 521.602579 150.849261 
L 577.966215 154.8774 
" clip-path="url(#p86169754ee)" style="fill: none; stroke-dasharray: 2.59,1.12; stroke-dashoffset: 0; stroke: #ff0000; stroke-opacity: 0.85; stroke-width: 0.7"/>
    <defs>
     <path id="mb36e638dbe" d="M -3.5 3.5 
L 3.5 3.5 
L 3.5 -3.5 
L -3.5 -3.5 
z
" style="stroke: #ff0000; stroke-opacity: 0.85; stroke-linejoin: miter"/>
    </defs>
    <g clip-path="url(#p86169754ee)">
     <use xlink:href="#mb36e638dbe" x="70.693488" y="472.506756" style="fill: #ff0000; fill-opacity: 0.85; stroke: #ff0000; stroke-opacity: 0.85; stroke-linejoin: miter"/>
     <use xlink:href="#mb36e638dbe" x="127.057125" y="378.163502" style="fill: #ff0000; fill-opacity: 0.85; stroke: #ff0000; stroke-opacity: 0.85; stroke-linejoin: miter"/>
     <use xlink:href="#mb36e638dbe" x="183.420761" y="266.181239" style="fill: #ff0000; fill-opacity: 0.85; stroke: #ff0000; stroke-opacity: 0.85; stroke-linejoin: miter"/>
     <use xlink:href="#mb36e638dbe" x="239.784397" y="204.359907" style="fill: #ff0000; fill-opacity: 0.85; stroke: #ff0000; stroke-opacity: 0.85; stroke-linejoin: miter"/>
     <use xlink:href="#mb36e638dbe" x="296.148034" y="173.449241" style="fill: #ff0000; fill-opacity: 0.85; stroke: #ff0000; stroke-opacity: 0.85; stroke-linejoin: miter"/>
     <use xlink:href="#mb36e638dbe" x="352.51167" y="159.456758" style="fill: #ff0000; fill-opacity: 0.85; stroke: #ff0000; stroke-opacity: 0.85; stroke-linejoin: miter"/>
     <use xlink:href="#mb36e638dbe" x="408.875306" y="153.13894" style="fill: #ff0000; fill-opacity: 0.85; stroke: #ff0000; stroke-opacity: 0.85; stroke-linejoin: miter"/>
     <use xlink:href="#mb36e638dbe" x="465.238943" y="150.80686" style="fill: #ff0000; fill-opacity: 0.85; stroke: #ff0000; stroke-opacity: 0.85; stroke-linejoin: miter"/>
     <use xlink:href="#mb36e638dbe" x="521.602579" y="150.849261" style="fill: #ff0000; fill-opacity: 0.85; stroke: #ff0000; stroke-opacity: 0.85; stroke-linejoin: miter"/>
     <use xlink:href="#mb36e638dbe" x="577.966215" y="154.8774" style="fill: #ff0000; fill-opacity: 0.85; stroke: #ff0000; stroke-opacity: 0.85; stroke-linejoin: miter"/>
    </g>
   </g>
   <g id="line2d_41">
    <path d="M 70.693488 474.160413 
L 127.057125 367.09672 
L 183.420761 242.266815 
L 239.784397 173.958058 
L 296.148034 139.612874 
L 352.51167 123.83953 
L 408.875306 116.970493 
L 465.238943 114.341602 
L 521.602579 114.426405 
L 577.966215 119.048164 
" clip-path="url(#p86169754ee)" style="fill: none; stroke-dasharray: 2.59,1.12; stroke-dashoffset: 0; stroke: #b22222; stroke-opacity: 0.85; stroke-width: 0.7"/>
    <defs>
     <path id="m53881627ad" d="M 0 3.5 
C 0.928211 3.5 1.81853 3.131218 2.474874 2.474874 
C 3.131218 1.81853 3.5 0.928211 3.5 0 
C 3.5 -0.928211 3.131218 -1.81853 2.474874 -2.474874 
C 1.81853 -3.131218 0.928211 -3.5 0 -3.5 
C -0.928211 -3.5 -1.81853 -3.131218 -2.474874 -2.474874 
C -3.131218 -1.81853 -3.5 -0.928211 -3.5 0 
C -3.5 0.928211 -3.131218 1.81853 -2.474874 2.474874 
C -1.81853 3.131218 -0.928211 3.5 0 3.5 
z
" style="stroke: #b22222; stroke-opacity: 0.85"/>
    </defs>
    <g clip-path="url(#p86169754ee)">
     <use xlink:href="#m53881627ad" x="70.693488" y="474.160413" style="fill: #b22222; fill-opacity: 0.85; stroke: #b22222; stroke-opacity: 0.85"/>
     <use xlink:href="#m53881627ad" x="127.057125" y="367.09672" style="fill: #b22222; fill-opacity: 0.85; stroke: #b22222; stroke-opacity: 0.85"/>
     <use xlink:href="#m53881627ad" x="183.420761" y="242.266815" style="fill: #b22222; fill-opacity: 0.85; stroke: #b22222; stroke-opacity: 0.85"/>
     <use xlink:href="#m53881627ad" x="239.784397" y="173.958058" style="fill: #b22222; fill-opacity: 0.85; stroke: #b22222; stroke-opacity: 0.85"/>
     <use xlink:href="#m53881627ad" x="296.148034" y="139.612874" style="fill: #b22222; fill-opacity: 0.85; stroke: #b22222; stroke-opacity: 0.85"/>
     <use xlink:href="#m53881627ad" x="352.51167" y="123.83953" style="fill: #b22222; fill-opacity: 0.85; stroke: #b22222; stroke-opacity: 0.85"/>
     <use xlink:href="#m53881627ad" x="408.875306" y="116.970493" style="fill: #b22222; fill-opacity: 0.85; stroke: #b22222; stroke-opacity: 0.85"/>
     <use xlink:href="#m53881627ad" x="465.238943" y="114.341602" style="fill: #b22222; fill-opacity: 0.85; stroke: #b22222; stroke-opacity: 0.85"/>
     <use xlink:href="#m53881627ad" x="521.602579" y="114.426405" style="fill: #b22222; fill-opacity: 0.85; stroke: #b22222; stroke-opacity: 0.85"/>
     <use xlink:href="#m53881627ad" x="577.966215" y="119.048164" style="fill: #b22222; fill-opacity: 0.85; stroke: #b22222; stroke-opacity: 0.85"/>
    </g>
   </g>
   <g id="line2d_42">
    <path d="M 239.784397 330.758667 
L 296.148034 311.932417 
L 352.51167 327.154543 
" clip-path="url(#p86169754ee)" style="fill: none; stroke-dasharray: 2.59,1.12; stroke-dashoffset: 0; stroke: #ffa500; stroke-opacity: 0.85; stroke-width: 0.7"/>
    <defs>
     <path id="m7edbeb3a7e" d="M -0 3.5 
L 3.5 -3.5 
L -3.5 -3.5 
z
" style="stroke: #ffa500; stroke-opacity: 0.85; stroke-linejoin: miter"/>
    </defs>
    <g clip-path="url(#p86169754ee)">
     <use xlink:href="#m7edbeb3a7e" x="239.784397" y="330.758667" style="fill: #ffa500; fill-opacity: 0.85; stroke: #ffa500; stroke-opacity: 0.85; stroke-linejoin: miter"/>
     <use xlink:href="#m7edbeb3a7e" x="296.148034" y="311.932417" style="fill: #ffa500; fill-opacity: 0.85; stroke: #ffa500; stroke-opacity: 0.85; stroke-linejoin: miter"/>
     <use xlink:href="#m7edbeb3a7e" x="352.51167" y="327.154543" style="fill: #ffa500; fill-opacity: 0.85; stroke: #ffa500; stroke-opacity: 0.85; stroke-linejoin: miter"/>
    </g>
   </g>
   <g id="line2d_43">
    <path d="M 127.057125 377.145867 
L 183.420761 315.536542 
L 239.784397 253.206392 
L 296.148034 284.498671 
L 352.51167 287.297168 
L 408.875306 274.873539 
L 465.238943 274.279919 
L 521.602579 279.664904 
" clip-path="url(#p86169754ee)" style="fill: none; stroke-dasharray: 2.59,1.12; stroke-dashoffset: 0; stroke: #ff8c00; stroke-opacity: 0.85; stroke-width: 0.7"/>
    <defs>
     <path id="m6e9bf4e5b1" d="M 0 3.5 
C 0.928211 3.5 1.81853 3.131218 2.474874 2.474874 
C 3.131218 1.81853 3.5 0.928211 3.5 0 
C 3.5 -0.928211 3.131218 -1.81853 2.474874 -2.474874 
C 1.81853 -3.131218 0.928211 -3.5 0 -3.5 
C -0.928211 -3.5 -1.81853 -3.131218 -2.474874 -2.474874 
C -3.131218 -1.81853 -3.5 -0.928211 -3.5 0 
C -3.5 0.928211 -3.131218 1.81853 -2.474874 2.474874 
C -1.81853 3.131218 -0.928211 3.5 0 3.5 
z
" style="stroke: #ff8c00; stroke-opacity: 0.85"/>
    </defs>
    <g clip-path="url(#p86169754ee)">
     <use xlink:href="#m6e9bf4e5b1" x="127.057125" y="377.145867" style="fill: #ff8c00; fill-opacity: 0.85; stroke: #ff8c00; stroke-opacity: 0.85"/>
     <use xlink:href="#m6e9bf4e5b1" x="183.420761" y="315.536542" style="fill: #ff8c00; fill-opacity: 0.85; stroke: #ff8c00; stroke-opacity: 0.85"/>
     <use xlink:href="#m6e9bf4e5b1" x="239.784397" y="253.206392" style="fill: #ff8c00; fill-opacity: 0.85; stroke: #ff8c00; stroke-opacity: 0.85"/>
     <use xlink:href="#m6e9bf4e5b1" x="296.148034" y="284.498671" style="fill: #ff8c00; fill-opacity: 0.85; stroke: #ff8c00; stroke-opacity: 0.85"/>
     <use xlink:href="#m6e9bf4e5b1" x="352.51167" y="287.297168" style="fill: #ff8c00; fill-opacity: 0.85; stroke: #ff8c00; stroke-opacity: 0.85"/>
     <use xlink:href="#m6e9bf4e5b1" x="408.875306" y="274.873539" style="fill: #ff8c00; fill-opacity: 0.85; stroke: #ff8c00; stroke-opacity: 0.85"/>
     <use xlink:href="#m6e9bf4e5b1" x="465.238943" y="274.279919" style="fill: #ff8c00; fill-opacity: 0.85; stroke: #ff8c00; stroke-opacity: 0.85"/>
     <use xlink:href="#m6e9bf4e5b1" x="521.602579" y="279.664904" style="fill: #ff8c00; fill-opacity: 0.85; stroke: #ff8c00; stroke-opacity: 0.85"/>
    </g>
   </g>
   <g id="patch_5">
    <path d="M 45.329852 474.287617 
L 45.329852 39.407617 
" style="fill: none; stroke: #262626; stroke-width: 1.25; stroke-linejoin: miter; stroke-linecap: square"/>
   </g>
   <g id="patch_6">
    <path d="M 603.329852 474.287617 
L 603.329852 39.407617 
" style="fill: none; stroke: #262626; stroke-width: 1.25; stroke-linejoin: miter; stroke-linecap: square"/>
   </g>
   <g id="patch_7">
    <path d="M 45.329852 474.287617 
L 603.329852 474.287617 
" style="fill: none; stroke: #262626; stroke-width: 1.25; stroke-linejoin: miter; stroke-linecap: square"/>
   </g>
   <g id="patch_8">
    <path d="M 45.329852 39.407617 
L 603.329852 39.407617 
" style="fill: none; stroke: #262626; stroke-width: 1.25; stroke-linejoin: miter; stroke-linecap: square"/>
   </g>
   <g id="legend_1">
    <g id="patch_9">
     <path d="M 616.609852 179.87885 
L 857.41145 179.87885 
Q 859.61145 179.87885 859.61145 177.67885 
L 859.61145 47.107617 
Q 859.61145 44.907617 857.41145 44.907617 
L 616.609852 44.907617 
Q 614.409852 44.907617 614.409852 47.107617 
L 614.409852 177.67885 
Q 614.409852 179.87885 616.609852 179.87885 
z
" style="fill: #ffffff; opacity: 0.8; stroke: #cccccc; stroke-linejoin: miter"/>
    </g>
    <g id="line2d_44">
     <path d="M 618.809852 53.676796 
L 629.809852 53.676796 
L 640.809852 53.676796 
" style="fill: none; stroke-dasharray: 2.59,1.12; stroke-dashoffset: 0; stroke: #a9a9a9; stroke-opacity: 0.85; stroke-width: 0.7"/>
     <g>
      <use xlink:href="#m1afc97953e" x="629.809852" y="53.676796" style="fill: #a9a9a9; fill-opacity: 0.85; stroke: #a9a9a9; stroke-opacity: 0.85; stroke-linejoin: bevel"/>
     </g>
    </g>
    <g id="text_28">
     <!-- Noiseless (QasmSimulator) -->
     <g style="fill: #262626" transform="translate(649.609852 57.526796)scale(0.11 -0.11)">
      <defs>
       <path id="CMSS17-51" d="M 3200 202 
C 3981 833 4096 1689 4096 2174 
C 4096 3501 3219 4497 2214 4497 
C 1210 4497 333 3497 333 2178 
C 333 847 1222 -128 2214 -128 
C 2438 -128 2630 -77 2765 -26 
L 3302 -832 
L 3930 -832 
L 3200 202 
z
M 2528 324 
C 2438 293 2330 273 2214 273 
C 1523 273 858 993 858 2178 
C 858 3357 1517 4096 2214 4096 
C 2918 4096 3571 3350 3571 2178 
C 3571 1771 3507 1089 2950 566 
L 2490 1210 
L 1939 1210 
L 2528 324 
z
" transform="scale(0.015625)"/>
       <path id="CMSS17-75" d="M 2618 2739 
L 2131 2739 
L 2131 972 
C 2131 498 1786 306 1421 306 
C 998 306 960 447 960 709 
L 960 2739 
L 474 2739 
L 474 678 
C 474 179 646 -64 1088 -64 
C 1306 -64 1798 -13 2144 306 
L 2144 0 
L 2618 0 
L 2618 2739 
z
" transform="scale(0.015625)"/>
      </defs>
      <use xlink:href="#CMSS17-4e" transform="scale(0.996264)"/>
      <use xlink:href="#CMSS17-6f" transform="translate(66.061519 0)scale(0.996264)"/>
      <use xlink:href="#CMSS17-69" transform="translate(112.905143 0)scale(0.996264)"/>
      <use xlink:href="#CMSS17-73" transform="translate(135.085866 0)scale(0.996264)"/>
      <use xlink:href="#CMSS17-65" transform="translate(170.999408 0)scale(0.996264)"/>
      <use xlink:href="#CMSS17-6c" transform="translate(212.63823 0)scale(0.996264)"/>
      <use xlink:href="#CMSS17-65" transform="translate(234.818953 0)scale(0.996264)"/>
      <use xlink:href="#CMSS17-73" transform="translate(276.457775 0)scale(0.996264)"/>
      <use xlink:href="#CMSS17-73" transform="translate(312.371317 0)scale(0.996264)"/>
      <use xlink:href="#CMSS17-28" transform="translate(379.513972 0)scale(0.996264)"/>
      <use xlink:href="#CMSS17-51" transform="translate(415.947886 0)scale(0.996264)"/>
      <use xlink:href="#CMSS17-61" transform="translate(484.972141 0)scale(0.996264)"/>
      <use xlink:href="#CMSS17-73" transform="translate(529.894062 0)scale(0.996264)"/>
      <use xlink:href="#CMSS17-6d" transform="translate(565.807604 0)scale(0.996264)"/>
      <use xlink:href="#CMSS17-53" transform="translate(640.036858 0)scale(0.996264)"/>
      <use xlink:href="#CMSS17-69" transform="translate(692.085374 0)scale(0.996264)"/>
      <use xlink:href="#CMSS17-6d" transform="translate(714.266097 0)scale(0.996264)"/>
      <use xlink:href="#CMSS17-75" transform="translate(788.495352 0)scale(0.996264)"/>
      <use xlink:href="#CMSS17-6c" transform="translate(836.700295 0)scale(0.996264)"/>
      <use xlink:href="#CMSS17-61" transform="translate(858.881018 0)scale(0.996264)"/>
      <use xlink:href="#CMSS17-74" transform="translate(903.802939 0)scale(0.996264)"/>
      <use xlink:href="#CMSS17-6f" transform="translate(937.634505 0)scale(0.996264)"/>
      <use xlink:href="#CMSS17-72" transform="translate(981.875675 0)scale(0.996264)"/>
      <use xlink:href="#CMSS17-29" transform="translate(1013.785448 0)scale(0.996264)"/>
     </g>
    </g>
    <g id="line2d_45">
     <path d="M 618.809852 70.1357 
L 629.809852 70.1357 
L 640.809852 70.1357 
" style="fill: none; stroke-dasharray: 2.59,1.12; stroke-dashoffset: 0; stroke: #00bfff; stroke-opacity: 0.85; stroke-width: 0.7"/>
     <g>
      <use xlink:href="#m6e5750720e" x="629.809852" y="70.1357" style="fill: #00bfff; fill-opacity: 0.85; stroke: #00bfff; stroke-opacity: 0.85; stroke-linejoin: miter"/>
     </g>
    </g>
    <g id="text_29">
     <!-- Native Gates (FakeJakarta) -->
     <g style="fill: #262626" transform="translate(649.609852 73.9857)scale(0.11 -0.11)">
      <defs>
       <path id="CMSS17-76" d="M 2675 2752 
L 2176 2752 
L 1747 1556 
C 1613 1165 1421 627 1389 352 
L 1382 352 
C 1370 468 1318 634 1286 749 
C 1248 890 1197 1056 1158 1172 
L 595 2752 
L 83 2752 
L 1094 0 
L 1664 0 
L 2675 2752 
z
" transform="scale(0.015625)"/>
       <path id="CMSS17-47" d="M 3610 1856 
L 2336 1856 
L 2336 1461 
L 3123 1461 
L 3123 471 
C 2874 401 2618 350 2362 350 
C 1466 350 934 1301 934 2200 
C 934 3095 1491 4032 2362 4032 
C 2854 4032 3130 3881 3469 3627 
L 3552 4134 
C 3130 4351 2867 4440 2387 4440 
C 1146 4440 397 3324 397 2182 
C 397 1090 1152 -64 2349 -64 
C 2797 -64 3213 51 3610 248 
L 3610 1856 
z
" transform="scale(0.015625)"/>
       <path id="CMSS17-46" d="M 2918 1984 
L 2918 2373 
L 1101 2373 
L 1101 3968 
L 1882 3968 
C 1958 3968 2035 3968 2112 3968 
L 3168 3968 
L 3168 4375 
L 563 4375 
L 563 -32 
L 1101 -32 
L 1101 1984 
L 2918 1984 
z
" transform="scale(0.015625)"/>
       <path id="CMSS17-6b" d="M 1696 1688 
L 2688 2739 
L 2074 2739 
L 954 1554 
L 954 4416 
L 480 4416 
L 480 0 
L 947 0 
L 947 892 
L 1376 1344 
L 2278 0 
L 2822 0 
L 1696 1688 
z
" transform="scale(0.015625)"/>
       <path id="CMSS17-4a" d="M 2336 4384 
L 1811 4384 
L 1811 940 
C 1811 636 1683 261 1107 261 
C 781 261 506 414 333 604 
L 250 140 
C 646 -71 1011 -128 1280 -128 
C 1901 -128 2336 228 2336 920 
L 2336 4384 
z
" transform="scale(0.015625)"/>
      </defs>
      <use xlink:href="#CMSS17-4e" transform="scale(0.996264)"/>
      <use xlink:href="#CMSS17-61" transform="translate(66.061519 0)scale(0.996264)"/>
      <use xlink:href="#CMSS17-74" transform="translate(110.98344 0)scale(0.996264)"/>
      <use xlink:href="#CMSS17-69" transform="translate(144.815006 0)scale(0.996264)"/>
      <use xlink:href="#CMSS17-76" transform="translate(166.99573 0)scale(0.996264)"/>
      <use xlink:href="#CMSS17-65" transform="translate(209.995871 0)scale(0.996264)"/>
      <use xlink:href="#CMSS17-47" transform="translate(282.863806 0)scale(0.996264)"/>
      <use xlink:href="#CMSS17-61" transform="translate(345.322032 0)scale(0.996264)"/>
      <use xlink:href="#CMSS17-74" transform="translate(390.243952 0)scale(0.996264)"/>
      <use xlink:href="#CMSS17-65" transform="translate(424.075519 0)scale(0.996264)"/>
      <use xlink:href="#CMSS17-73" transform="translate(465.714341 0)scale(0.996264)"/>
      <use xlink:href="#CMSS17-28" transform="translate(532.856996 0)scale(0.996264)"/>
      <use xlink:href="#CMSS17-46" transform="translate(569.29091 0)scale(0.996264)"/>
      <use xlink:href="#CMSS17-61" transform="translate(619.978015 0)scale(0.996264)"/>
      <use xlink:href="#CMSS17-6b" transform="translate(664.899936 0)scale(0.996264)"/>
      <use xlink:href="#CMSS17-65" transform="translate(707.899971 0)scale(0.996264)"/>
      <use xlink:href="#CMSS17-4a" transform="translate(749.538793 0)scale(0.996264)"/>
      <use xlink:href="#CMSS17-61" transform="translate(793.659869 0)scale(0.996264)"/>
      <use xlink:href="#CMSS17-6b" transform="translate(838.581789 0)scale(0.996264)"/>
      <use xlink:href="#CMSS17-61" transform="translate(881.581825 0)scale(0.996264)"/>
      <use xlink:href="#CMSS17-72" transform="translate(923.901291 0)scale(0.996264)"/>
      <use xlink:href="#CMSS17-74" transform="translate(955.811064 0)scale(0.996264)"/>
      <use xlink:href="#CMSS17-61" transform="translate(989.64263 0)scale(0.996264)"/>
      <use xlink:href="#CMSS17-29" transform="translate(1034.564551 0)scale(0.996264)"/>
     </g>
    </g>
    <g id="line2d_46">
     <path d="M 618.809852 86.594604 
L 629.809852 86.594604 
L 640.809852 86.594604 
" style="fill: none; stroke-dasharray: 2.59,1.12; stroke-dashoffset: 0; stroke: #0000ff; stroke-opacity: 0.85; stroke-width: 0.7"/>
     <g>
      <use xlink:href="#m9633a16bb1" x="629.809852" y="86.594604" style="fill: #0000ff; fill-opacity: 0.85; stroke: #0000ff; stroke-opacity: 0.85; stroke-linejoin: miter"/>
     </g>
    </g>
    <g id="text_30">
     <!-- Native Gates Opt 3 (FakeJakarta) -->
     <g style="fill: #262626" transform="translate(649.609852 90.444604)scale(0.11 -0.11)">
      <defs>
       <path id="CMSS17-4f" d="M 4096 2178 
C 4096 3503 3219 4497 2214 4497 
C 1210 4497 333 3497 333 2178 
C 333 847 1222 -128 2214 -128 
C 3206 -128 4096 847 4096 2178 
z
M 2214 273 
C 1510 273 870 1057 870 2261 
C 870 3433 1549 4096 2214 4096 
C 2880 4096 3558 3433 3558 2261 
C 3558 1051 2912 273 2214 273 
z
" transform="scale(0.015625)"/>
       <path id="CMSS17-33" d="M 1005 2025 
L 1440 2025 
C 2042 2025 2214 1507 2214 1146 
C 2214 653 1933 267 1472 267 
C 1114 267 608 444 320 912 
C 275 691 275 678 250 526 
C 550 88 1037 -128 1485 -128 
C 2214 -128 2752 473 2752 1138 
C 2752 1638 2400 2057 1920 2215 
C 2304 2424 2586 2816 2586 3273 
C 2586 3805 2093 4229 1491 4229 
C 941 4229 512 3892 333 3530 
C 378 3468 493 3284 550 3189 
C 691 3562 1056 3840 1485 3840 
C 1843 3840 2080 3607 2080 3271 
C 2080 2923 1856 2543 1478 2455 
C 1453 2455 1056 2417 1005 2411 
L 1005 2025 
z
" transform="scale(0.015625)"/>
      </defs>
      <use xlink:href="#CMSS17-4e" transform="scale(0.996264)"/>
      <use xlink:href="#CMSS17-61" transform="translate(66.061519 0)scale(0.996264)"/>
      <use xlink:href="#CMSS17-74" transform="translate(110.98344 0)scale(0.996264)"/>
      <use xlink:href="#CMSS17-69" transform="translate(144.815006 0)scale(0.996264)"/>
      <use xlink:href="#CMSS17-76" transform="translate(166.99573 0)scale(0.996264)"/>
      <use xlink:href="#CMSS17-65" transform="translate(209.995871 0)scale(0.996264)"/>
      <use xlink:href="#CMSS17-47" transform="translate(282.863806 0)scale(0.996264)"/>
      <use xlink:href="#CMSS17-61" transform="translate(345.322032 0)scale(0.996264)"/>
      <use xlink:href="#CMSS17-74" transform="translate(390.243952 0)scale(0.996264)"/>
      <use xlink:href="#CMSS17-65" transform="translate(424.075519 0)scale(0.996264)"/>
      <use xlink:href="#CMSS17-73" transform="translate(465.714341 0)scale(0.996264)"/>
      <use xlink:href="#CMSS17-4f" transform="translate(532.856996 0)scale(0.996264)"/>
      <use xlink:href="#CMSS17-70" transform="translate(601.881251 0)scale(0.996264)"/>
      <use xlink:href="#CMSS17-74" transform="translate(650.086194 0)scale(0.996264)"/>
      <use xlink:href="#CMSS17-33" transform="translate(715.146874 0)scale(0.996264)"/>
      <use xlink:href="#CMSS17-28" transform="translate(793.21961 0)scale(0.996264)"/>
      <use xlink:href="#CMSS17-46" transform="translate(829.653524 0)scale(0.996264)"/>
      <use xlink:href="#CMSS17-61" transform="translate(880.340629 0)scale(0.996264)"/>
      <use xlink:href="#CMSS17-6b" transform="translate(925.26255 0)scale(0.996264)"/>
      <use xlink:href="#CMSS17-65" transform="translate(968.262585 0)scale(0.996264)"/>
      <use xlink:href="#CMSS17-4a" transform="translate(1009.901407 0)scale(0.996264)"/>
      <use xlink:href="#CMSS17-61" transform="translate(1054.022483 0)scale(0.996264)"/>
      <use xlink:href="#CMSS17-6b" transform="translate(1098.944403 0)scale(0.996264)"/>
      <use xlink:href="#CMSS17-61" transform="translate(1141.944439 0)scale(0.996264)"/>
      <use xlink:href="#CMSS17-72" transform="translate(1184.263905 0)scale(0.996264)"/>
      <use xlink:href="#CMSS17-74" transform="translate(1216.173678 0)scale(0.996264)"/>
      <use xlink:href="#CMSS17-61" transform="translate(1250.005245 0)scale(0.996264)"/>
      <use xlink:href="#CMSS17-29" transform="translate(1294.927165 0)scale(0.996264)"/>
     </g>
    </g>
    <g id="line2d_47">
     <path d="M 618.809852 103.053508 
L 629.809852 103.053508 
L 640.809852 103.053508 
" style="fill: none; stroke-dasharray: 2.59,1.12; stroke-dashoffset: 0; stroke: #00008b; stroke-opacity: 0.85; stroke-width: 0.7"/>
     <g>
      <use xlink:href="#m2098d1d2e2" x="629.809852" y="103.053508" style="fill: #00008b; fill-opacity: 0.85; stroke: #00008b; stroke-opacity: 0.85; stroke-linejoin: miter"/>
     </g>
    </g>
    <g id="text_31">
     <!-- Native Gates Opt 3 and MEM (FakeJakarta) -->
     <g style="fill: #262626" transform="translate(649.609852 106.903508)scale(0.11 -0.11)">
      <defs>
       <path id="CMSS17-4d" d="M 3194 2371 
L 2886 1473 
C 2835 1307 2662 791 2624 587 
L 2618 587 
C 2598 715 2560 849 2458 1174 
C 2400 1365 2336 1562 2272 1741 
L 1325 4416 
L 576 4416 
L 576 0 
L 1075 0 
L 1075 3900 
L 1082 3900 
C 1082 3894 1139 3613 1530 2499 
L 2374 96 
L 2848 96 
L 3610 2231 
C 3661 2378 3821 2843 3891 3066 
C 3955 3257 4115 3728 4154 3913 
L 4160 3913 
L 4160 0 
L 4666 0 
L 4666 4416 
L 3923 4416 
L 3194 2371 
z
" transform="scale(0.015625)"/>
       <path id="CMSS17-45" d="M 1958 433 
C 1446 433 1216 433 1101 433 
L 1101 2107 
L 3085 2107 
L 3085 2496 
L 1101 2496 
L 1101 4009 
L 1926 4009 
C 2003 4009 2080 4009 2157 4009 
L 3251 4009 
L 3251 4416 
L 563 4416 
L 563 0 
L 3334 0 
L 3334 433 
L 1958 433 
z
" transform="scale(0.015625)"/>
      </defs>
      <use xlink:href="#CMSS17-4e" transform="scale(0.996264)"/>
      <use xlink:href="#CMSS17-61" transform="translate(66.061519 0)scale(0.996264)"/>
      <use xlink:href="#CMSS17-74" transform="translate(110.98344 0)scale(0.996264)"/>
      <use xlink:href="#CMSS17-69" transform="translate(144.815006 0)scale(0.996264)"/>
      <use xlink:href="#CMSS17-76" transform="translate(166.99573 0)scale(0.996264)"/>
      <use xlink:href="#CMSS17-65" transform="translate(209.995871 0)scale(0.996264)"/>
      <use xlink:href="#CMSS17-47" transform="translate(282.863806 0)scale(0.996264)"/>
      <use xlink:href="#CMSS17-61" transform="translate(345.322032 0)scale(0.996264)"/>
      <use xlink:href="#CMSS17-74" transform="translate(390.243952 0)scale(0.996264)"/>
      <use xlink:href="#CMSS17-65" transform="translate(424.075519 0)scale(0.996264)"/>
      <use xlink:href="#CMSS17-73" transform="translate(465.714341 0)scale(0.996264)"/>
      <use xlink:href="#CMSS17-4f" transform="translate(532.856996 0)scale(0.996264)"/>
      <use xlink:href="#CMSS17-70" transform="translate(601.881251 0)scale(0.996264)"/>
      <use xlink:href="#CMSS17-74" transform="translate(650.086194 0)scale(0.996264)"/>
      <use xlink:href="#CMSS17-33" transform="translate(715.146874 0)scale(0.996264)"/>
      <use xlink:href="#CMSS17-61" transform="translate(793.21961 0)scale(0.996264)"/>
      <use xlink:href="#CMSS17-6e" transform="translate(838.14153 0)scale(0.996264)"/>
      <use xlink:href="#CMSS17-64" transform="translate(886.346474 0)scale(0.996264)"/>
      <use xlink:href="#CMSS17-4d" transform="translate(965.780529 0)scale(0.996264)"/>
      <use xlink:href="#CMSS17-45" transform="translate(1047.456559 0)scale(0.996264)"/>
      <use xlink:href="#CMSS17-4d" transform="translate(1103.348573 0)scale(0.996264)"/>
      <use xlink:href="#CMSS17-28" transform="translate(1216.253715 0)scale(0.996264)"/>
      <use xlink:href="#CMSS17-46" transform="translate(1252.68763 0)scale(0.996264)"/>
      <use xlink:href="#CMSS17-61" transform="translate(1303.374735 0)scale(0.996264)"/>
      <use xlink:href="#CMSS17-6b" transform="translate(1348.296655 0)scale(0.996264)"/>
      <use xlink:href="#CMSS17-65" transform="translate(1391.296691 0)scale(0.996264)"/>
      <use xlink:href="#CMSS17-4a" transform="translate(1432.935513 0)scale(0.996264)"/>
      <use xlink:href="#CMSS17-61" transform="translate(1477.056588 0)scale(0.996264)"/>
      <use xlink:href="#CMSS17-6b" transform="translate(1521.978509 0)scale(0.996264)"/>
      <use xlink:href="#CMSS17-61" transform="translate(1564.978544 0)scale(0.996264)"/>
      <use xlink:href="#CMSS17-72" transform="translate(1607.298011 0)scale(0.996264)"/>
      <use xlink:href="#CMSS17-74" transform="translate(1639.207783 0)scale(0.996264)"/>
      <use xlink:href="#CMSS17-61" transform="translate(1673.03935 0)scale(0.996264)"/>
      <use xlink:href="#CMSS17-29" transform="translate(1717.961271 0)scale(0.996264)"/>
     </g>
    </g>
    <g id="line2d_48">
     <path d="M 618.809852 119.512412 
L 629.809852 119.512412 
L 640.809852 119.512412 
" style="fill: none; stroke-dasharray: 2.59,1.12; stroke-dashoffset: 0; stroke: #ff0000; stroke-opacity: 0.85; stroke-width: 0.7"/>
     <g>
      <use xlink:href="#mb36e638dbe" x="629.809852" y="119.512412" style="fill: #ff0000; fill-opacity: 0.85; stroke: #ff0000; stroke-opacity: 0.85; stroke-linejoin: miter"/>
     </g>
    </g>
    <g id="text_32">
     <!-- PE Template (FakeJakarta) -->
     <g style="fill: #262626" transform="translate(649.609852 123.362412)scale(0.11 -0.11)">
      <defs>
       <path id="CMSS17-50" d="M 2106 1856 
C 2874 1856 3501 2453 3501 3158 
C 3501 3850 2899 4453 2067 4453 
L 570 4453 
L 570 0 
L 1107 0 
L 1107 1856 
L 2106 1856 
z
M 1926 4096 
C 2669 4096 2995 3627 2995 3157 
C 2995 2720 2694 2226 1926 2226 
L 1094 2226 
L 1094 4096 
L 1926 4096 
z
" transform="scale(0.015625)"/>
      </defs>
      <use xlink:href="#CMSS17-50" transform="scale(0.996264)"/>
      <use xlink:href="#CMSS17-45" transform="translate(59.735586 0)scale(0.996264)"/>
      <use xlink:href="#CMSS17-54" transform="translate(146.856712 0)scale(0.996264)"/>
      <use xlink:href="#CMSS17-65" transform="translate(202.868911 0)scale(0.996264)"/>
      <use xlink:href="#CMSS17-6d" transform="translate(244.507733 0)scale(0.996264)"/>
      <use xlink:href="#CMSS17-70" transform="translate(318.736987 0)scale(0.996264)"/>
      <use xlink:href="#CMSS17-6c" transform="translate(366.94193 0)scale(0.996264)"/>
      <use xlink:href="#CMSS17-61" transform="translate(389.122653 0)scale(0.996264)"/>
      <use xlink:href="#CMSS17-74" transform="translate(434.044574 0)scale(0.996264)"/>
      <use xlink:href="#CMSS17-65" transform="translate(467.876141 0)scale(0.996264)"/>
      <use xlink:href="#CMSS17-28" transform="translate(540.744076 0)scale(0.996264)"/>
      <use xlink:href="#CMSS17-46" transform="translate(577.17799 0)scale(0.996264)"/>
      <use xlink:href="#CMSS17-61" transform="translate(627.865095 0)scale(0.996264)"/>
      <use xlink:href="#CMSS17-6b" transform="translate(672.787016 0)scale(0.996264)"/>
      <use xlink:href="#CMSS17-65" transform="translate(715.787051 0)scale(0.996264)"/>
      <use xlink:href="#CMSS17-4a" transform="translate(757.425873 0)scale(0.996264)"/>
      <use xlink:href="#CMSS17-61" transform="translate(801.546949 0)scale(0.996264)"/>
      <use xlink:href="#CMSS17-6b" transform="translate(846.468869 0)scale(0.996264)"/>
      <use xlink:href="#CMSS17-61" transform="translate(889.468904 0)scale(0.996264)"/>
      <use xlink:href="#CMSS17-72" transform="translate(931.788371 0)scale(0.996264)"/>
      <use xlink:href="#CMSS17-74" transform="translate(963.698144 0)scale(0.996264)"/>
      <use xlink:href="#CMSS17-61" transform="translate(997.52971 0)scale(0.996264)"/>
      <use xlink:href="#CMSS17-29" transform="translate(1042.451631 0)scale(0.996264)"/>
     </g>
    </g>
    <g id="line2d_49">
     <path d="M 618.809852 135.971316 
L 629.809852 135.971316 
L 640.809852 135.971316 
" style="fill: none; stroke-dasharray: 2.59,1.12; stroke-dashoffset: 0; stroke: #b22222; stroke-opacity: 0.85; stroke-width: 0.7"/>
     <g>
      <use xlink:href="#m53881627ad" x="629.809852" y="135.971316" style="fill: #b22222; fill-opacity: 0.85; stroke: #b22222; stroke-opacity: 0.85"/>
     </g>
    </g>
    <g id="text_33">
     <!-- PE Template and MEM (FakeJakarta) -->
     <g style="fill: #262626" transform="translate(649.609852 139.821316)scale(0.11 -0.11)">
      <use xlink:href="#CMSS17-50" transform="scale(0.996264)"/>
      <use xlink:href="#CMSS17-45" transform="translate(59.735586 0)scale(0.996264)"/>
      <use xlink:href="#CMSS17-54" transform="translate(146.856712 0)scale(0.996264)"/>
      <use xlink:href="#CMSS17-65" transform="translate(202.868911 0)scale(0.996264)"/>
      <use xlink:href="#CMSS17-6d" transform="translate(244.507733 0)scale(0.996264)"/>
      <use xlink:href="#CMSS17-70" transform="translate(318.736987 0)scale(0.996264)"/>
      <use xlink:href="#CMSS17-6c" transform="translate(366.94193 0)scale(0.996264)"/>
      <use xlink:href="#CMSS17-61" transform="translate(389.122653 0)scale(0.996264)"/>
      <use xlink:href="#CMSS17-74" transform="translate(434.044574 0)scale(0.996264)"/>
      <use xlink:href="#CMSS17-65" transform="translate(467.876141 0)scale(0.996264)"/>
      <use xlink:href="#CMSS17-61" transform="translate(540.744076 0)scale(0.996264)"/>
      <use xlink:href="#CMSS17-6e" transform="translate(585.665996 0)scale(0.996264)"/>
      <use xlink:href="#CMSS17-64" transform="translate(633.870939 0)scale(0.996264)"/>
      <use xlink:href="#CMSS17-4d" transform="translate(713.304995 0)scale(0.996264)"/>
      <use xlink:href="#CMSS17-45" transform="translate(794.981025 0)scale(0.996264)"/>
      <use xlink:href="#CMSS17-4d" transform="translate(850.873038 0)scale(0.996264)"/>
      <use xlink:href="#CMSS17-28" transform="translate(963.778181 0)scale(0.996264)"/>
      <use xlink:href="#CMSS17-46" transform="translate(1000.212095 0)scale(0.996264)"/>
      <use xlink:href="#CMSS17-61" transform="translate(1050.899201 0)scale(0.996264)"/>
      <use xlink:href="#CMSS17-6b" transform="translate(1095.821121 0)scale(0.996264)"/>
      <use xlink:href="#CMSS17-65" transform="translate(1138.821157 0)scale(0.996264)"/>
      <use xlink:href="#CMSS17-4a" transform="translate(1180.459979 0)scale(0.996264)"/>
      <use xlink:href="#CMSS17-61" transform="translate(1224.581054 0)scale(0.996264)"/>
      <use xlink:href="#CMSS17-6b" transform="translate(1269.502975 0)scale(0.996264)"/>
      <use xlink:href="#CMSS17-61" transform="translate(1312.50301 0)scale(0.996264)"/>
      <use xlink:href="#CMSS17-72" transform="translate(1354.822477 0)scale(0.996264)"/>
      <use xlink:href="#CMSS17-74" transform="translate(1386.732249 0)scale(0.996264)"/>
      <use xlink:href="#CMSS17-61" transform="translate(1420.563816 0)scale(0.996264)"/>
      <use xlink:href="#CMSS17-29" transform="translate(1465.485736 0)scale(0.996264)"/>
     </g>
    </g>
    <g id="line2d_50">
     <path d="M 618.809852 152.43022 
L 629.809852 152.43022 
L 640.809852 152.43022 
" style="fill: none; stroke-dasharray: 2.59,1.12; stroke-dashoffset: 0; stroke: #ffa500; stroke-opacity: 0.85; stroke-width: 0.7"/>
     <g>
      <use xlink:href="#m7edbeb3a7e" x="629.809852" y="152.43022" style="fill: #ffa500; fill-opacity: 0.85; stroke: #ffa500; stroke-opacity: 0.85; stroke-linejoin: miter"/>
     </g>
    </g>
    <g id="text_34">
     <!-- \textbf{Native Gates Opt 3 and MEM (Jakarta)} -->
     <g style="fill: #262626" transform="translate(649.609852 156.28022)scale(0.11 -0.11)">
      <defs>
       <path id="CMSSBX10-4e" d="M 1939 4222 
C 1805 4480 1613 4480 1485 4480 
L 890 4480 
C 659 4480 582 4409 582 4170 
L 582 302 
C 582 70 653 -8 890 -8 
L 1062 -8 
C 1306 -8 1370 76 1370 302 
L 1370 3698 
L 1376 3698 
L 3136 251 
C 3270 -8 3462 -8 3590 -8 
L 4186 -8 
C 4429 -8 4493 76 4493 302 
L 4493 4170 
C 4493 4377 4448 4480 4186 4480 
L 4013 4480 
C 3770 4480 3706 4396 3706 4170 
L 3706 774 
L 3699 774 
L 1939 4222 
z
" transform="scale(0.015625)"/>
       <path id="CMSSBX10-61" d="M 2970 2050 
C 2970 3072 1997 3072 1677 3072 
C 1376 3072 1056 3046 627 2868 
C 493 2811 461 2792 461 2722 
C 461 2677 499 2300 506 2248 
C 512 2209 544 2177 589 2177 
C 621 2177 640 2196 659 2216 
C 934 2508 1254 2651 1651 2651 
C 1997 2651 2099 2435 2099 2049 
L 2099 1820 
C 1875 1820 198 1820 198 868 
C 198 415 557 -64 1120 -64 
C 1338 -64 1818 1 2118 447 
L 2118 317 
C 2118 110 2163 7 2426 7 
L 2662 7 
C 2906 7 2970 91 2970 317 
L 2970 2050 
z
M 2099 988 
C 2099 402 1491 402 1472 402 
C 1203 402 1030 639 1030 889 
C 1030 1536 1920 1536 2099 1536 
L 2099 988 
z
" transform="scale(0.015625)"/>
       <path id="CMSSBX10-74" d="M 1395 2496 
L 1965 2496 
C 2042 2496 2272 2496 2272 2729 
C 2272 2962 2042 2962 1965 2962 
L 1395 2962 
L 1395 3498 
C 1395 3705 1350 3808 1088 3808 
L 890 3808 
C 659 3808 582 3737 582 3498 
L 582 2962 
L 435 2962 
C 365 2962 128 2962 128 2729 
C 128 2496 358 2496 435 2496 
L 563 2496 
L 563 864 
C 563 213 794 -64 1235 -64 
C 1293 -64 1574 -64 1907 39 
C 2016 72 2387 188 2387 311 
C 2387 330 2374 376 2336 510 
C 2304 639 2291 678 2234 678 
C 2202 678 2195 671 2157 632 
C 2086 582 1914 440 1645 440 
C 1491 440 1395 550 1395 975 
L 1395 2496 
z
" transform="scale(0.015625)"/>
       <path id="CMSSBX10-69" d="M 653 4480 
C 448 4480 346 4441 346 4182 
L 346 3885 
C 346 3678 410 3594 646 3594 
L 979 3594 
C 1286 3594 1286 3730 1286 4034 
C 1286 4344 1286 4480 979 4480 
L 653 4480 
z
M 1242 2634 
C 1242 2841 1197 2944 934 2944 
L 698 2944 
C 467 2944 390 2873 390 2634 
L 390 292 
C 390 60 461 -18 698 -18 
L 934 -18 
C 1178 -18 1242 66 1242 292 
L 1242 2634 
z
" transform="scale(0.015625)"/>
       <path id="CMSSBX10-76" d="M 2995 2671 
C 3027 2762 3027 2775 3027 2794 
C 3027 2976 2867 2976 2771 2976 
L 2637 2976 
C 2368 2976 2298 2879 2240 2697 
L 1606 734 
L 973 2697 
C 928 2833 883 2976 576 2976 
L 422 2976 
C 326 2976 166 2976 166 2794 
C 166 2775 166 2762 198 2670 
L 960 273 
C 1050 0 1248 0 1363 0 
L 1830 0 
C 1946 0 2144 0 2234 273 
L 2995 2671 
z
" transform="scale(0.015625)"/>
       <path id="CMSSBX10-65" d="M 2758 1385 
C 2906 1385 3066 1385 3066 1678 
C 3066 2514 2682 3072 1728 3072 
C 704 3072 198 2491 198 1510 
C 198 452 806 -64 1811 -64 
C 2054 -64 2419 -32 2842 182 
C 2982 253 3027 272 3027 350 
C 3027 395 3008 582 3002 633 
C 2976 833 2970 839 2912 839 
C 2886 839 2874 839 2803 775 
C 2426 447 2042 402 1837 402 
C 1114 402 1037 974 1018 1385 
L 2758 1385 
z
M 1024 1728 
C 1043 2122 1171 2606 1728 2606 
C 2240 2606 2336 2231 2355 1728 
L 1024 1728 
z
" transform="scale(0.015625)"/>
       <path id="CMSSBX10-47" d="M 4224 2002 
C 4224 2028 4205 2086 4147 2086 
L 2835 2086 
C 2784 2086 2739 2073 2739 1996 
L 2739 1537 
C 2739 1498 2771 1472 2810 1472 
L 3347 1472 
L 3347 654 
C 3290 615 2861 577 2765 577 
C 1690 577 1338 1254 1338 2247 
C 1338 3207 1683 3904 2726 3904 
C 3270 3904 3533 3768 3910 3412 
C 3930 3393 3949 3386 3968 3386 
C 4000 3386 4032 3412 4045 3470 
L 4160 4130 
C 4166 4162 4173 4201 4115 4234 
C 3923 4337 3450 4550 2765 4550 
C 1069 4550 397 3679 397 2247 
C 397 652 1235 -64 2726 -64 
C 3405 -64 4045 151 4224 299 
L 4224 2002 
z
" transform="scale(0.015625)"/>
       <path id="CMSSBX10-73" d="M 2534 902 
C 2534 1267 2342 1496 2227 1600 
C 1971 1836 1747 1875 1478 1927 
C 1126 1992 870 2045 870 2299 
C 870 2566 1082 2619 1331 2619 
C 1760 2619 1990 2456 2157 2313 
C 2221 2248 2234 2248 2259 2248 
C 2323 2248 2336 2306 2342 2332 
C 2355 2384 2419 2747 2419 2779 
C 2419 2884 2080 2975 2010 3000 
C 1754 3072 1549 3072 1382 3072 
C 1094 3072 237 3072 237 2145 
C 237 1827 378 1633 550 1477 
C 774 1270 1024 1225 1389 1154 
C 1574 1121 1901 1062 1901 778 
C 1901 473 1651 427 1402 427 
C 1120 427 762 512 461 877 
C 429 909 410 928 371 928 
C 307 928 294 871 288 832 
C 275 743 198 378 198 313 
C 198 198 672 51 678 45 
C 1030 -64 1293 -64 1402 -64 
C 1728 -64 2534 -64 2534 902 
z
" transform="scale(0.015625)"/>
       <path id="CMSSBX10-4f" d="M 4685 2236 
C 4685 3541 4218 4665 2541 4665 
C 768 4665 390 3424 390 2236 
C 390 1021 806 -128 2534 -128 
C 4186 -128 4685 904 4685 2236 
z
M 2541 389 
C 1331 389 1331 1748 1331 2339 
C 1331 2911 1331 4160 2534 4160 
C 3744 4160 3744 2924 3744 2339 
C 3744 1761 3744 389 2541 389 
z
" transform="scale(0.015625)"/>
       <path id="CMSSBX10-70" d="M 1261 242 
C 1549 -82 1901 -82 1990 -82 
C 3347 -82 3347 1154 3347 1476 
C 3347 1791 3347 3008 2189 3008 
C 1811 3008 1472 2853 1242 2633 
C 1242 2872 1152 2937 934 2937 
L 698 2937 
C 467 2937 390 2866 390 2627 
L 390 -969 
C 390 -1202 461 -1280 698 -1280 
L 954 -1280 
C 1197 -1280 1261 -1195 1261 -966 
L 1261 242 
z
M 1261 2292 
C 1331 2356 1542 2504 1818 2504 
C 2470 2504 2477 1746 2477 1463 
C 2477 1206 2477 384 1754 384 
C 1606 384 1491 435 1414 492 
C 1261 602 1261 634 1261 750 
L 1261 2292 
z
" transform="scale(0.015625)"/>
       <path id="CMSSBX10-33" d="M 614 3619 
C 666 3541 698 3541 710 3541 
C 755 3541 768 3568 800 3614 
C 1126 4096 1581 4096 1664 4096 
C 2074 4096 2131 3877 2131 3552 
C 2131 3458 2131 3140 1933 2887 
C 1779 2701 1619 2688 1427 2688 
C 1357 2669 1235 2669 1216 2656 
C 1171 2637 1171 2597 1171 2491 
L 1171 2374 
C 1171 2203 1178 2203 1344 2203 
L 1626 2203 
C 2208 2203 2278 1836 2278 1339 
C 2278 905 2234 480 1651 480 
C 1446 480 973 525 544 931 
C 486 990 480 990 454 990 
C 390 990 378 932 371 919 
C 371 912 294 508 294 476 
C 294 393 845 -128 1683 -128 
C 2784 -128 3219 466 3219 1325 
C 3219 1907 2912 2300 2336 2449 
C 2854 2738 3027 3164 3027 3538 
C 3027 4587 2112 4672 1696 4672 
C 819 4672 390 4031 390 3979 
C 390 3939 429 3888 435 3881 
L 614 3619 
z
" transform="scale(0.015625)"/>
       <path id="CMSSBX10-6e" d="M 3200 2096 
C 3200 2761 2918 3025 2266 3025 
C 1594 3025 1306 2535 1222 2360 
L 1216 2360 
L 1216 2687 
C 1216 2896 1171 3001 909 3001 
L 691 3001 
C 461 3001 384 2930 384 2690 
L 384 310 
C 384 78 454 0 691 0 
L 947 0 
C 1190 0 1254 84 1254 309 
L 1254 1735 
C 1254 2295 1626 2560 1958 2560 
C 2266 2560 2330 2411 2330 2082 
L 2330 309 
C 2330 103 2374 0 2637 0 
L 2893 0 
C 3136 0 3200 84 3200 309 
L 3200 2096 
z
" transform="scale(0.015625)"/>
       <path id="CMSSBX10-64" d="M 3194 4170 
C 3194 4377 3149 4480 2886 4480 
L 2650 4480 
C 2406 4480 2342 4396 2342 4170 
L 2342 2702 
C 2054 2980 1734 3025 1536 3025 
C 237 3025 237 1782 237 1465 
C 237 1167 237 -82 1504 -82 
C 1773 -82 2048 -5 2323 294 
C 2323 57 2413 -8 2630 -8 
L 2886 -8 
C 3130 -8 3194 76 3194 302 
L 3194 4170 
z
M 2323 798 
C 2323 687 2323 629 2138 500 
C 1978 396 1830 384 1754 384 
C 1107 384 1107 980 1107 1465 
C 1107 1951 1107 2560 1824 2560 
C 2010 2560 2182 2495 2323 2359 
L 2323 798 
z
" transform="scale(0.015625)"/>
       <path id="CMSSBX10-4d" d="M 3552 2106 
C 3418 1776 3181 1181 3130 955 
L 3123 955 
C 3066 1187 2803 1828 2669 2171 
L 1850 4215 
C 1741 4480 1536 4480 1421 4480 
L 890 4480 
C 659 4480 582 4409 582 4170 
L 582 302 
C 582 70 653 -8 890 -8 
L 1062 -8 
C 1306 -8 1370 76 1370 302 
L 1370 3646 
L 1376 3646 
C 1446 3355 1734 2637 1888 2256 
L 2630 412 
C 2746 134 2899 134 3117 134 
C 3334 134 3488 134 3603 412 
L 4422 2443 
C 4486 2598 4832 3478 4877 3646 
L 4883 3646 
L 4883 302 
C 4883 95 4928 -8 5190 -8 
L 5363 -8 
C 5606 -8 5670 76 5670 302 
L 5670 4170 
C 5670 4377 5626 4480 5363 4480 
L 4826 4480 
C 4666 4480 4506 4467 4397 4202 
L 3552 2106 
z
" transform="scale(0.015625)"/>
       <path id="CMSSBX10-45" d="M 1523 2016 
L 3206 2016 
C 3405 2016 3514 2062 3514 2320 
C 3514 2560 3430 2624 3206 2624 
L 1523 2624 
L 1523 3814 
L 1837 3814 
C 2336 3814 2842 3814 3341 3814 
C 3565 3814 3712 3814 3712 4122 
L 3712 4173 
C 3712 4377 3667 4480 3405 4480 
L 890 4480 
C 659 4480 582 4409 582 4170 
L 582 316 
C 582 84 653 6 890 6 
L 3501 6 
C 3744 6 3808 88 3808 310 
L 3808 400 
C 3808 704 3661 704 3450 704 
C 3117 704 2790 704 2458 704 
C 2298 704 1638 704 1523 704 
L 1523 2016 
z
" transform="scale(0.015625)"/>
       <path id="CMSSBX10-28" d="M 2054 4864 
C 1939 4864 1926 4864 1811 4760 
C 1043 4107 550 3002 550 1632 
C 550 849 710 -501 1779 -1477 
C 1914 -1600 1926 -1600 2054 -1600 
L 2170 -1600 
C 2272 -1600 2342 -1600 2342 -1516 
C 2342 -1496 2342 -1483 2266 -1399 
C 1862 -901 1421 -107 1421 1632 
C 1421 3532 1952 4281 2304 4708 
C 2330 4741 2342 4754 2342 4779 
C 2342 4864 2272 4864 2170 4864 
L 2054 4864 
z
" transform="scale(0.015625)"/>
       <path id="CMSSBX10-4a" d="M 2733 4171 
C 2733 4377 2688 4480 2426 4480 
L 2118 4480 
C 1875 4480 1811 4396 1811 4171 
L 1811 1008 
C 1811 874 1811 512 1248 512 
C 877 512 672 718 582 834 
C 531 898 518 911 480 911 
C 416 911 403 853 390 789 
C 358 589 294 246 294 220 
C 294 162 333 143 454 92 
C 832 -76 1216 -134 1504 -134 
C 2189 -134 2733 214 2733 968 
L 2733 4171 
z
" transform="scale(0.015625)"/>
       <path id="CMSSBX10-6b" d="M 2003 1751 
L 2989 2676 
C 3066 2747 3085 2766 3085 2818 
C 3085 2954 2957 2954 2867 2954 
L 2496 2954 
C 2381 2954 2259 2954 2112 2818 
L 1190 1952 
L 1190 4170 
C 1190 4377 1146 4480 883 4480 
L 749 4480 
C 518 4480 442 4409 442 4170 
L 442 302 
C 442 70 512 -8 749 -8 
L 864 -8 
C 1107 -8 1171 76 1171 302 
L 1171 975 
L 1472 1253 
L 2304 154 
C 2413 11 2458 -8 2643 -8 
L 2950 -8 
C 3040 -8 3181 -8 3181 134 
C 3181 147 3181 192 3117 277 
L 2003 1751 
z
" transform="scale(0.015625)"/>
       <path id="CMSSBX10-72" d="M 1242 1496 
C 1242 2115 1747 2368 2150 2368 
C 2266 2368 2278 2368 2278 2555 
L 2278 2860 
C 2278 2989 2278 3034 2163 3034 
C 1984 3034 1517 2970 1216 2271 
L 1210 2271 
L 1210 2690 
C 1210 2897 1165 3001 902 3001 
L 698 3001 
C 467 3001 390 2930 390 2690 
L 390 310 
C 390 78 461 0 698 0 
L 934 0 
C 1178 0 1242 84 1242 312 
L 1242 1496 
z
" transform="scale(0.015625)"/>
       <path id="CMSSBX10-29" d="M 563 4864 
C 461 4864 390 4864 390 4780 
C 390 4761 390 4748 467 4664 
C 864 4166 1312 3372 1312 1632 
C 1312 -262 781 -1011 429 -1445 
C 390 -1490 390 -1503 390 -1516 
C 390 -1600 461 -1600 563 -1600 
L 678 -1600 
C 794 -1600 806 -1600 922 -1496 
C 1690 -843 2182 262 2182 1632 
C 2182 2413 2022 3765 954 4741 
C 819 4864 806 4864 678 4864 
L 563 4864 
z
" transform="scale(0.015625)"/>
      </defs>
      <use xlink:href="#CMSSBX10-4e" transform="scale(0.996264)"/>
      <use xlink:href="#CMSSBX10-61" transform="translate(79.14808 0)scale(0.996264)"/>
      <use xlink:href="#CMSSBX10-74" transform="translate(131.452275 0)scale(0.996264)"/>
      <use xlink:href="#CMSSBX10-69" transform="translate(171.718178 0)scale(0.996264)"/>
      <use xlink:href="#CMSSBX10-76" transform="translate(197.178397 0)scale(0.996264)"/>
      <use xlink:href="#CMSSBX10-65" transform="translate(246.991871 0)scale(0.996264)"/>
      <use xlink:href="#CMSSBX10-47" transform="translate(334.442207 0)scale(0.996264)"/>
      <use xlink:href="#CMSSBX10-61" transform="translate(407.501973 0)scale(0.996264)"/>
      <use xlink:href="#CMSSBX10-74" transform="translate(459.806168 0)scale(0.996264)"/>
      <use xlink:href="#CMSSBX10-65" transform="translate(500.072072 0)scale(0.996264)"/>
      <use xlink:href="#CMSSBX10-73" transform="translate(550.992524 0)scale(0.996264)"/>
      <use xlink:href="#CMSSBX10-4f" transform="translate(629.531773 0)scale(0.996264)"/>
      <use xlink:href="#CMSSBX10-70" transform="translate(708.679853 0)scale(0.996264)"/>
      <use xlink:href="#CMSSBX10-74" transform="translate(764.581641 0)scale(0.996264)"/>
      <use xlink:href="#CMSSBX10-33" transform="translate(841.377427 0)scale(0.996264)"/>
      <use xlink:href="#CMSSBX10-61" transform="translate(932.702135 0)scale(0.996264)"/>
      <use xlink:href="#CMSSBX10-6e" transform="translate(985.00633 0)scale(0.996264)"/>
      <use xlink:href="#CMSSBX10-64" transform="translate(1040.908118 0)scale(0.996264)"/>
      <use xlink:href="#CMSSBX10-4d" transform="translate(1133.339789 0)scale(0.996264)"/>
      <use xlink:href="#CMSSBX10-45" transform="translate(1230.752811 0)scale(0.996264)"/>
      <use xlink:href="#CMSSBX10-4d" transform="translate(1294.680106 0)scale(0.996264)"/>
      <use xlink:href="#CMSSBX10-28" transform="translate(1428.62301 0)scale(0.996264)"/>
      <use xlink:href="#CMSSBX10-4a" transform="translate(1471.241207 0)scale(0.996264)"/>
      <use xlink:href="#CMSSBX10-61" transform="translate(1522.991875 0)scale(0.996264)"/>
      <use xlink:href="#CMSSBX10-6b" transform="translate(1575.29607 0)scale(0.996264)"/>
      <use xlink:href="#CMSSBX10-61" transform="translate(1625.109544 0)scale(0.996264)"/>
      <use xlink:href="#CMSSBX10-72" transform="translate(1674.369582 0)scale(0.996264)"/>
      <use xlink:href="#CMSSBX10-74" transform="translate(1711.452992 0)scale(0.996264)"/>
      <use xlink:href="#CMSSBX10-61" transform="translate(1751.718896 0)scale(0.996264)"/>
      <use xlink:href="#CMSSBX10-29" transform="translate(1804.023091 0)scale(0.996264)"/>
     </g>
    </g>
    <g id="line2d_51">
     <path d="M 618.809852 168.889124 
L 629.809852 168.889124 
L 640.809852 168.889124 
" style="fill: none; stroke-dasharray: 2.59,1.12; stroke-dashoffset: 0; stroke: #ff8c00; stroke-opacity: 0.85; stroke-width: 0.7"/>
     <g>
      <use xlink:href="#m6e9bf4e5b1" x="629.809852" y="168.889124" style="fill: #ff8c00; fill-opacity: 0.85; stroke: #ff8c00; stroke-opacity: 0.85"/>
     </g>
    </g>
    <g id="text_35">
     <!-- \textbf{PE Template and MEM (Jakarta)} -->
     <g style="fill: #262626" transform="translate(649.609852 172.739124)scale(0.11 -0.11)">
      <defs>
       <path id="CMSSBX10-50" d="M 1523 1728 
L 2496 1728 
C 3501 1728 4102 2155 4102 3085 
C 4102 4060 3475 4480 2490 4480 
L 890 4480 
C 659 4480 582 4409 582 4170 
L 582 298 
C 582 66 653 -12 890 -12 
L 1216 -12 
C 1459 -12 1523 72 1523 299 
L 1523 1728 
z
M 2291 3924 
C 3130 3924 3213 3537 3213 3085 
C 3213 2652 3142 2239 2285 2239 
L 1504 2239 
L 1504 3924 
L 2291 3924 
z
" transform="scale(0.015625)"/>
       <path id="CMSSBX10-54" d="M 1875 3776 
L 1875 308 
C 1875 78 1946 0 2182 0 
L 2509 0 
C 2752 0 2816 84 2816 308 
L 2816 3776 
C 3098 3776 3814 3776 4096 3776 
C 4275 3776 4429 3776 4429 4083 
L 4429 4135 
C 4429 4340 4384 4443 4122 4443 
L 563 4443 
C 333 4443 256 4372 256 4135 
L 256 4083 
C 256 3776 410 3776 589 3776 
L 1875 3776 
z
" transform="scale(0.015625)"/>
       <path id="CMSSBX10-6d" d="M 5158 2096 
C 5158 2761 4877 3025 4224 3025 
C 3770 3025 3418 2812 3187 2386 
C 3085 3012 2541 3012 2272 3012 
C 2150 3012 1882 3012 1594 2803 
C 1395 2658 1267 2455 1222 2360 
L 1216 2360 
L 1216 2687 
C 1216 2896 1171 3001 909 3001 
L 691 3001 
C 461 3001 384 2930 384 2690 
L 384 310 
C 384 78 454 0 691 0 
L 947 0 
C 1190 0 1254 84 1254 309 
L 1254 1735 
C 1254 2315 1645 2560 1958 2560 
C 2266 2560 2336 2424 2336 2082 
L 2336 309 
C 2336 78 2406 0 2643 0 
L 2899 0 
C 3142 0 3206 84 3206 309 
L 3206 1735 
C 3206 2315 3597 2560 3910 2560 
C 4218 2560 4288 2424 4288 2082 
L 4288 309 
C 4288 78 4358 0 4595 0 
L 4851 0 
C 5094 0 5158 84 5158 309 
L 5158 2096 
z
" transform="scale(0.015625)"/>
       <path id="CMSSBX10-6c" d="M 1242 4170 
C 1242 4377 1197 4480 934 4480 
L 698 4480 
C 467 4480 390 4409 390 4170 
L 390 302 
C 390 70 461 -8 698 -8 
L 934 -8 
C 1178 -8 1242 76 1242 302 
L 1242 4170 
z
" transform="scale(0.015625)"/>
      </defs>
      <use xlink:href="#CMSSBX10-50" transform="scale(0.996264)"/>
      <use xlink:href="#CMSSBX10-45" transform="translate(70.015609 0)scale(0.996264)"/>
      <use xlink:href="#CMSSBX10-54" transform="translate(170.472788 0)scale(0.996264)"/>
      <use xlink:href="#CMSSBX10-65" transform="translate(234.400083 0)scale(0.996264)"/>
      <use xlink:href="#CMSSBX10-6d" transform="translate(285.320536 0)scale(0.996264)"/>
      <use xlink:href="#CMSSBX10-70" transform="translate(371.663893 0)scale(0.996264)"/>
      <use xlink:href="#CMSSBX10-6c" transform="translate(427.565681 0)scale(0.996264)"/>
      <use xlink:href="#CMSSBX10-61" transform="translate(453.0259 0)scale(0.996264)"/>
      <use xlink:href="#CMSSBX10-74" transform="translate(505.330095 0)scale(0.996264)"/>
      <use xlink:href="#CMSSBX10-65" transform="translate(545.595998 0)scale(0.996264)"/>
      <use xlink:href="#CMSSBX10-61" transform="translate(633.046334 0)scale(0.996264)"/>
      <use xlink:href="#CMSSBX10-6e" transform="translate(685.350529 0)scale(0.996264)"/>
      <use xlink:href="#CMSSBX10-64" transform="translate(741.252317 0)scale(0.996264)"/>
      <use xlink:href="#CMSSBX10-4d" transform="translate(833.683988 0)scale(0.996264)"/>
      <use xlink:href="#CMSSBX10-45" transform="translate(931.097009 0)scale(0.996264)"/>
      <use xlink:href="#CMSSBX10-4d" transform="translate(995.024305 0)scale(0.996264)"/>
      <use xlink:href="#CMSSBX10-28" transform="translate(1128.967209 0)scale(0.996264)"/>
      <use xlink:href="#CMSSBX10-4a" transform="translate(1171.585406 0)scale(0.996264)"/>
      <use xlink:href="#CMSSBX10-61" transform="translate(1223.336074 0)scale(0.996264)"/>
      <use xlink:href="#CMSSBX10-6b" transform="translate(1275.640269 0)scale(0.996264)"/>
      <use xlink:href="#CMSSBX10-61" transform="translate(1325.453743 0)scale(0.996264)"/>
      <use xlink:href="#CMSSBX10-72" transform="translate(1374.713781 0)scale(0.996264)"/>
      <use xlink:href="#CMSSBX10-74" transform="translate(1411.797191 0)scale(0.996264)"/>
      <use xlink:href="#CMSSBX10-61" transform="translate(1452.063095 0)scale(0.996264)"/>
      <use xlink:href="#CMSSBX10-29" transform="translate(1504.36729 0)scale(0.996264)"/>
     </g>
    </g>
   </g>
  </g>
 </g>
 <defs>
  <clipPath id="p86169754ee">
   <rect x="45.329852" y="39.407617" width="558" height="434.88"/>
  </clipPath>
 </defs>
</svg>
