<?xml version="1.0" encoding="utf-8" standalone="no"?>
<!DOCTYPE svg PUBLIC "-//W3C//DTD SVG 1.1//EN"
  "http://www.w3.org/Graphics/SVG/1.1/DTD/svg11.dtd">
<svg xmlns:xlink="http://www.w3.org/1999/xlink" width="730.070406pt" height="390.334219pt" viewBox="0 0 730.070406 390.334219" xmlns="http://www.w3.org/2000/svg" version="1.1">
 <metadata>
  <rdf:RDF xmlns:dc="http://purl.org/dc/elements/1.1/" xmlns:cc="http://creativecommons.org/ns#" xmlns:rdf="http://www.w3.org/1999/02/22-rdf-syntax-ns#">
   <cc:Work>
    <dc:type rdf:resource="http://purl.org/dc/dcmitype/StillImage"/>
    <dc:date>2022-04-28T19:46:52.255444</dc:date>
    <dc:format>image/svg+xml</dc:format>
    <dc:creator>
     <cc:Agent>
      <dc:title>Matplotlib v3.5.1, https://matplotlib.org/</dc:title>
     </cc:Agent>
    </dc:creator>
   </cc:Work>
  </rdf:RDF>
 </metadata>
 <defs>
  <style type="text/css">*{stroke-linejoin: round; stroke-linecap: butt}</style>
 </defs>
 <g id="figure_1">
  <g id="patch_1">
   <path d="M 0 390.334219 
L 730.070406 390.334219 
L 730.070406 0 
L 0 0 
z
" style="fill: #ffffff"/>
  </g>
  <g id="axes_1">
   <g id="patch_2">
    <path d="M 48.11 348.6 
L 494.51 348.6 
L 494.51 22.44 
L 48.11 22.44 
z
" style="fill: #ffffff"/>
   </g>
   <g id="matplotlib.axis_1">
    <g id="xtick_1">
     <g id="line2d_1">
      <defs>
       <path id="m6cc3fd7611" d="M 0 0 
L 0 6 
" style="stroke: #262626; stroke-width: 1.25"/>
      </defs>
      <g>
       <use xlink:href="#m6cc3fd7611" x="68.400909" y="348.6" style="fill: #262626; stroke: #262626; stroke-width: 1.25"/>
      </g>
     </g>
     <g id="text_1">
      <!-- 0.0 -->
      <g style="fill: #262626" transform="translate(60.755909 365.973594)scale(0.11 -0.11)">
       <defs>
        <path id="ArialMT-30" d="M 266 2259 
Q 266 3072 433 3567 
Q 600 4063 929 4331 
Q 1259 4600 1759 4600 
Q 2128 4600 2406 4451 
Q 2684 4303 2865 4023 
Q 3047 3744 3150 3342 
Q 3253 2941 3253 2259 
Q 3253 1453 3087 958 
Q 2922 463 2592 192 
Q 2263 -78 1759 -78 
Q 1097 -78 719 397 
Q 266 969 266 2259 
z
M 844 2259 
Q 844 1131 1108 757 
Q 1372 384 1759 384 
Q 2147 384 2411 759 
Q 2675 1134 2675 2259 
Q 2675 3391 2411 3762 
Q 2147 4134 1753 4134 
Q 1366 4134 1134 3806 
Q 844 3388 844 2259 
z
" transform="scale(0.015625)"/>
        <path id="ArialMT-2e" d="M 581 0 
L 581 641 
L 1222 641 
L 1222 0 
L 581 0 
z
" transform="scale(0.015625)"/>
       </defs>
       <use xlink:href="#ArialMT-30"/>
       <use xlink:href="#ArialMT-2e" x="55.615234"/>
       <use xlink:href="#ArialMT-30" x="83.398438"/>
      </g>
     </g>
    </g>
    <g id="xtick_2">
     <g id="line2d_2">
      <g>
       <use xlink:href="#m6cc3fd7611" x="132.988879" y="348.6" style="fill: #262626; stroke: #262626; stroke-width: 1.25"/>
      </g>
     </g>
     <g id="text_2">
      <!-- 0.5 -->
      <g style="fill: #262626" transform="translate(125.343879 365.973594)scale(0.11 -0.11)">
       <defs>
        <path id="ArialMT-35" d="M 266 1200 
L 856 1250 
Q 922 819 1161 601 
Q 1400 384 1738 384 
Q 2144 384 2425 690 
Q 2706 997 2706 1503 
Q 2706 1984 2436 2262 
Q 2166 2541 1728 2541 
Q 1456 2541 1237 2417 
Q 1019 2294 894 2097 
L 366 2166 
L 809 4519 
L 3088 4519 
L 3088 3981 
L 1259 3981 
L 1013 2750 
Q 1425 3038 1878 3038 
Q 2478 3038 2890 2622 
Q 3303 2206 3303 1553 
Q 3303 931 2941 478 
Q 2500 -78 1738 -78 
Q 1113 -78 717 272 
Q 322 622 266 1200 
z
" transform="scale(0.015625)"/>
       </defs>
       <use xlink:href="#ArialMT-30"/>
       <use xlink:href="#ArialMT-2e" x="55.615234"/>
       <use xlink:href="#ArialMT-35" x="83.398438"/>
      </g>
     </g>
    </g>
    <g id="xtick_3">
     <g id="line2d_3">
      <g>
       <use xlink:href="#m6cc3fd7611" x="197.576848" y="348.6" style="fill: #262626; stroke: #262626; stroke-width: 1.25"/>
      </g>
     </g>
     <g id="text_3">
      <!-- 1.0 -->
      <g style="fill: #262626" transform="translate(189.931848 365.973594)scale(0.11 -0.11)">
       <defs>
        <path id="ArialMT-31" d="M 2384 0 
L 1822 0 
L 1822 3584 
Q 1619 3391 1289 3197 
Q 959 3003 697 2906 
L 697 3450 
Q 1169 3672 1522 3987 
Q 1875 4303 2022 4600 
L 2384 4600 
L 2384 0 
z
" transform="scale(0.015625)"/>
       </defs>
       <use xlink:href="#ArialMT-31"/>
       <use xlink:href="#ArialMT-2e" x="55.615234"/>
       <use xlink:href="#ArialMT-30" x="83.398438"/>
      </g>
     </g>
    </g>
    <g id="xtick_4">
     <g id="line2d_4">
      <g>
       <use xlink:href="#m6cc3fd7611" x="262.164818" y="348.6" style="fill: #262626; stroke: #262626; stroke-width: 1.25"/>
      </g>
     </g>
     <g id="text_4">
      <!-- 1.5 -->
      <g style="fill: #262626" transform="translate(254.519818 365.973594)scale(0.11 -0.11)">
       <use xlink:href="#ArialMT-31"/>
       <use xlink:href="#ArialMT-2e" x="55.615234"/>
       <use xlink:href="#ArialMT-35" x="83.398438"/>
      </g>
     </g>
    </g>
    <g id="xtick_5">
     <g id="line2d_5">
      <g>
       <use xlink:href="#m6cc3fd7611" x="326.752788" y="348.6" style="fill: #262626; stroke: #262626; stroke-width: 1.25"/>
      </g>
     </g>
     <g id="text_5">
      <!-- 2.0 -->
      <g style="fill: #262626" transform="translate(319.107788 365.973594)scale(0.11 -0.11)">
       <defs>
        <path id="ArialMT-32" d="M 3222 541 
L 3222 0 
L 194 0 
Q 188 203 259 391 
Q 375 700 629 1000 
Q 884 1300 1366 1694 
Q 2113 2306 2375 2664 
Q 2638 3022 2638 3341 
Q 2638 3675 2398 3904 
Q 2159 4134 1775 4134 
Q 1369 4134 1125 3890 
Q 881 3647 878 3216 
L 300 3275 
Q 359 3922 746 4261 
Q 1134 4600 1788 4600 
Q 2447 4600 2831 4234 
Q 3216 3869 3216 3328 
Q 3216 3053 3103 2787 
Q 2991 2522 2730 2228 
Q 2469 1934 1863 1422 
Q 1356 997 1212 845 
Q 1069 694 975 541 
L 3222 541 
z
" transform="scale(0.015625)"/>
       </defs>
       <use xlink:href="#ArialMT-32"/>
       <use xlink:href="#ArialMT-2e" x="55.615234"/>
       <use xlink:href="#ArialMT-30" x="83.398438"/>
      </g>
     </g>
    </g>
    <g id="xtick_6">
     <g id="line2d_6">
      <g>
       <use xlink:href="#m6cc3fd7611" x="391.340757" y="348.6" style="fill: #262626; stroke: #262626; stroke-width: 1.25"/>
      </g>
     </g>
     <g id="text_6">
      <!-- 2.5 -->
      <g style="fill: #262626" transform="translate(383.695757 365.973594)scale(0.11 -0.11)">
       <use xlink:href="#ArialMT-32"/>
       <use xlink:href="#ArialMT-2e" x="55.615234"/>
       <use xlink:href="#ArialMT-35" x="83.398438"/>
      </g>
     </g>
    </g>
    <g id="xtick_7">
     <g id="line2d_7">
      <g>
       <use xlink:href="#m6cc3fd7611" x="455.928727" y="348.6" style="fill: #262626; stroke: #262626; stroke-width: 1.25"/>
      </g>
     </g>
     <g id="text_7">
      <!-- 3.0 -->
      <g style="fill: #262626" transform="translate(448.283727 365.973594)scale(0.11 -0.11)">
       <defs>
        <path id="ArialMT-33" d="M 269 1209 
L 831 1284 
Q 928 806 1161 595 
Q 1394 384 1728 384 
Q 2125 384 2398 659 
Q 2672 934 2672 1341 
Q 2672 1728 2419 1979 
Q 2166 2231 1775 2231 
Q 1616 2231 1378 2169 
L 1441 2663 
Q 1497 2656 1531 2656 
Q 1891 2656 2178 2843 
Q 2466 3031 2466 3422 
Q 2466 3731 2256 3934 
Q 2047 4138 1716 4138 
Q 1388 4138 1169 3931 
Q 950 3725 888 3313 
L 325 3413 
Q 428 3978 793 4289 
Q 1159 4600 1703 4600 
Q 2078 4600 2393 4439 
Q 2709 4278 2876 4000 
Q 3044 3722 3044 3409 
Q 3044 3113 2884 2869 
Q 2725 2625 2413 2481 
Q 2819 2388 3044 2092 
Q 3269 1797 3269 1353 
Q 3269 753 2831 336 
Q 2394 -81 1725 -81 
Q 1122 -81 723 278 
Q 325 638 269 1209 
z
" transform="scale(0.015625)"/>
       </defs>
       <use xlink:href="#ArialMT-33"/>
       <use xlink:href="#ArialMT-2e" x="55.615234"/>
       <use xlink:href="#ArialMT-30" x="83.398438"/>
      </g>
     </g>
    </g>
    <g id="text_8">
     <!-- time -->
     <g style="fill: #262626" transform="translate(259.975625 380.749219)scale(0.12 -0.12)">
      <defs>
       <path id="ArialMT-74" d="M 1650 503 
L 1731 6 
Q 1494 -44 1306 -44 
Q 1000 -44 831 53 
Q 663 150 594 308 
Q 525 466 525 972 
L 525 2881 
L 113 2881 
L 113 3319 
L 525 3319 
L 525 4141 
L 1084 4478 
L 1084 3319 
L 1650 3319 
L 1650 2881 
L 1084 2881 
L 1084 941 
Q 1084 700 1114 631 
Q 1144 563 1211 522 
Q 1278 481 1403 481 
Q 1497 481 1650 503 
z
" transform="scale(0.015625)"/>
       <path id="ArialMT-69" d="M 425 3934 
L 425 4581 
L 988 4581 
L 988 3934 
L 425 3934 
z
M 425 0 
L 425 3319 
L 988 3319 
L 988 0 
L 425 0 
z
" transform="scale(0.015625)"/>
       <path id="ArialMT-6d" d="M 422 0 
L 422 3319 
L 925 3319 
L 925 2853 
Q 1081 3097 1340 3245 
Q 1600 3394 1931 3394 
Q 2300 3394 2536 3241 
Q 2772 3088 2869 2813 
Q 3263 3394 3894 3394 
Q 4388 3394 4653 3120 
Q 4919 2847 4919 2278 
L 4919 0 
L 4359 0 
L 4359 2091 
Q 4359 2428 4304 2576 
Q 4250 2725 4106 2815 
Q 3963 2906 3769 2906 
Q 3419 2906 3187 2673 
Q 2956 2441 2956 1928 
L 2956 0 
L 2394 0 
L 2394 2156 
Q 2394 2531 2256 2718 
Q 2119 2906 1806 2906 
Q 1569 2906 1367 2781 
Q 1166 2656 1075 2415 
Q 984 2175 984 1722 
L 984 0 
L 422 0 
z
" transform="scale(0.015625)"/>
       <path id="ArialMT-65" d="M 2694 1069 
L 3275 997 
Q 3138 488 2766 206 
Q 2394 -75 1816 -75 
Q 1088 -75 661 373 
Q 234 822 234 1631 
Q 234 2469 665 2931 
Q 1097 3394 1784 3394 
Q 2450 3394 2872 2941 
Q 3294 2488 3294 1666 
Q 3294 1616 3291 1516 
L 816 1516 
Q 847 969 1125 678 
Q 1403 388 1819 388 
Q 2128 388 2347 550 
Q 2566 713 2694 1069 
z
M 847 1978 
L 2700 1978 
Q 2663 2397 2488 2606 
Q 2219 2931 1791 2931 
Q 1403 2931 1139 2672 
Q 875 2413 847 1978 
z
" transform="scale(0.015625)"/>
      </defs>
      <use xlink:href="#ArialMT-74"/>
      <use xlink:href="#ArialMT-69" x="27.783203"/>
      <use xlink:href="#ArialMT-6d" x="50"/>
      <use xlink:href="#ArialMT-65" x="133.300781"/>
     </g>
    </g>
   </g>
   <g id="matplotlib.axis_2">
    <g id="ytick_1">
     <g id="line2d_8">
      <path d="M 48.11 348.6 
L 494.51 348.6 
" clip-path="url(#p5510088947)" style="fill: none; stroke-dasharray: 1.85,0.8; stroke-dashoffset: 0; stroke: #cccccc; stroke-width: 0.5"/>
     </g>
     <g id="line2d_9">
      <defs>
       <path id="m396b2cac86" d="M 0 0 
L -6 0 
" style="stroke: #262626; stroke-width: 1.25"/>
      </defs>
      <g>
       <use xlink:href="#m396b2cac86" x="48.11" y="348.6" style="fill: #262626; stroke: #262626; stroke-width: 1.25"/>
      </g>
     </g>
     <g id="text_9">
      <!-- 0.0 -->
      <g style="fill: #262626" transform="translate(23.32 352.536797)scale(0.11 -0.11)">
       <use xlink:href="#ArialMT-30"/>
       <use xlink:href="#ArialMT-2e" x="55.615234"/>
       <use xlink:href="#ArialMT-30" x="83.398438"/>
      </g>
     </g>
    </g>
    <g id="ytick_2">
     <g id="line2d_10">
      <path d="M 48.11 286.177332 
L 494.51 286.177332 
" clip-path="url(#p5510088947)" style="fill: none; stroke-dasharray: 1.85,0.8; stroke-dashoffset: 0; stroke: #cccccc; stroke-width: 0.5"/>
     </g>
     <g id="line2d_11">
      <g>
       <use xlink:href="#m396b2cac86" x="48.11" y="286.177332" style="fill: #262626; stroke: #262626; stroke-width: 1.25"/>
      </g>
     </g>
     <g id="text_10">
      <!-- 0.2 -->
      <g style="fill: #262626" transform="translate(23.32 290.114129)scale(0.11 -0.11)">
       <use xlink:href="#ArialMT-30"/>
       <use xlink:href="#ArialMT-2e" x="55.615234"/>
       <use xlink:href="#ArialMT-32" x="83.398438"/>
      </g>
     </g>
    </g>
    <g id="ytick_3">
     <g id="line2d_12">
      <path d="M 48.11 223.754664 
L 494.51 223.754664 
" clip-path="url(#p5510088947)" style="fill: none; stroke-dasharray: 1.85,0.8; stroke-dashoffset: 0; stroke: #cccccc; stroke-width: 0.5"/>
     </g>
     <g id="line2d_13">
      <g>
       <use xlink:href="#m396b2cac86" x="48.11" y="223.754664" style="fill: #262626; stroke: #262626; stroke-width: 1.25"/>
      </g>
     </g>
     <g id="text_11">
      <!-- 0.4 -->
      <g style="fill: #262626" transform="translate(23.32 227.691461)scale(0.11 -0.11)">
       <defs>
        <path id="ArialMT-34" d="M 2069 0 
L 2069 1097 
L 81 1097 
L 81 1613 
L 2172 4581 
L 2631 4581 
L 2631 1613 
L 3250 1613 
L 3250 1097 
L 2631 1097 
L 2631 0 
L 2069 0 
z
M 2069 1613 
L 2069 3678 
L 634 1613 
L 2069 1613 
z
" transform="scale(0.015625)"/>
       </defs>
       <use xlink:href="#ArialMT-30"/>
       <use xlink:href="#ArialMT-2e" x="55.615234"/>
       <use xlink:href="#ArialMT-34" x="83.398438"/>
      </g>
     </g>
    </g>
    <g id="ytick_4">
     <g id="line2d_14">
      <path d="M 48.11 161.331996 
L 494.51 161.331996 
" clip-path="url(#p5510088947)" style="fill: none; stroke-dasharray: 1.85,0.8; stroke-dashoffset: 0; stroke: #cccccc; stroke-width: 0.5"/>
     </g>
     <g id="line2d_15">
      <g>
       <use xlink:href="#m396b2cac86" x="48.11" y="161.331996" style="fill: #262626; stroke: #262626; stroke-width: 1.25"/>
      </g>
     </g>
     <g id="text_12">
      <!-- 0.6 -->
      <g style="fill: #262626" transform="translate(23.32 165.268793)scale(0.11 -0.11)">
       <defs>
        <path id="ArialMT-36" d="M 3184 3459 
L 2625 3416 
Q 2550 3747 2413 3897 
Q 2184 4138 1850 4138 
Q 1581 4138 1378 3988 
Q 1113 3794 959 3422 
Q 806 3050 800 2363 
Q 1003 2672 1297 2822 
Q 1591 2972 1913 2972 
Q 2475 2972 2870 2558 
Q 3266 2144 3266 1488 
Q 3266 1056 3080 686 
Q 2894 316 2569 119 
Q 2244 -78 1831 -78 
Q 1128 -78 684 439 
Q 241 956 241 2144 
Q 241 3472 731 4075 
Q 1159 4600 1884 4600 
Q 2425 4600 2770 4297 
Q 3116 3994 3184 3459 
z
M 888 1484 
Q 888 1194 1011 928 
Q 1134 663 1356 523 
Q 1578 384 1822 384 
Q 2178 384 2434 671 
Q 2691 959 2691 1453 
Q 2691 1928 2437 2201 
Q 2184 2475 1800 2475 
Q 1419 2475 1153 2201 
Q 888 1928 888 1484 
z
" transform="scale(0.015625)"/>
       </defs>
       <use xlink:href="#ArialMT-30"/>
       <use xlink:href="#ArialMT-2e" x="55.615234"/>
       <use xlink:href="#ArialMT-36" x="83.398438"/>
      </g>
     </g>
    </g>
    <g id="ytick_5">
     <g id="line2d_16">
      <path d="M 48.11 98.909329 
L 494.51 98.909329 
" clip-path="url(#p5510088947)" style="fill: none; stroke-dasharray: 1.85,0.8; stroke-dashoffset: 0; stroke: #cccccc; stroke-width: 0.5"/>
     </g>
     <g id="line2d_17">
      <g>
       <use xlink:href="#m396b2cac86" x="48.11" y="98.909329" style="fill: #262626; stroke: #262626; stroke-width: 1.25"/>
      </g>
     </g>
     <g id="text_13">
      <!-- 0.8 -->
      <g style="fill: #262626" transform="translate(23.32 102.846126)scale(0.11 -0.11)">
       <defs>
        <path id="ArialMT-38" d="M 1131 2484 
Q 781 2613 612 2850 
Q 444 3088 444 3419 
Q 444 3919 803 4259 
Q 1163 4600 1759 4600 
Q 2359 4600 2725 4251 
Q 3091 3903 3091 3403 
Q 3091 3084 2923 2848 
Q 2756 2613 2416 2484 
Q 2838 2347 3058 2040 
Q 3278 1734 3278 1309 
Q 3278 722 2862 322 
Q 2447 -78 1769 -78 
Q 1091 -78 675 323 
Q 259 725 259 1325 
Q 259 1772 486 2073 
Q 713 2375 1131 2484 
z
M 1019 3438 
Q 1019 3113 1228 2906 
Q 1438 2700 1772 2700 
Q 2097 2700 2305 2904 
Q 2513 3109 2513 3406 
Q 2513 3716 2298 3927 
Q 2084 4138 1766 4138 
Q 1444 4138 1231 3931 
Q 1019 3725 1019 3438 
z
M 838 1322 
Q 838 1081 952 856 
Q 1066 631 1291 507 
Q 1516 384 1775 384 
Q 2178 384 2440 643 
Q 2703 903 2703 1303 
Q 2703 1709 2433 1975 
Q 2163 2241 1756 2241 
Q 1359 2241 1098 1978 
Q 838 1716 838 1322 
z
" transform="scale(0.015625)"/>
       </defs>
       <use xlink:href="#ArialMT-30"/>
       <use xlink:href="#ArialMT-2e" x="55.615234"/>
       <use xlink:href="#ArialMT-38" x="83.398438"/>
      </g>
     </g>
    </g>
    <g id="ytick_6">
     <g id="line2d_18">
      <path d="M 48.11 36.486661 
L 494.51 36.486661 
" clip-path="url(#p5510088947)" style="fill: none; stroke-dasharray: 1.85,0.8; stroke-dashoffset: 0; stroke: #cccccc; stroke-width: 0.5"/>
     </g>
     <g id="line2d_19">
      <g>
       <use xlink:href="#m396b2cac86" x="48.11" y="36.486661" style="fill: #262626; stroke: #262626; stroke-width: 1.25"/>
      </g>
     </g>
     <g id="text_14">
      <!-- 1.0 -->
      <g style="fill: #262626" transform="translate(23.32 40.423458)scale(0.11 -0.11)">
       <use xlink:href="#ArialMT-31"/>
       <use xlink:href="#ArialMT-2e" x="55.615234"/>
       <use xlink:href="#ArialMT-30" x="83.398438"/>
      </g>
     </g>
    </g>
    <g id="text_15">
     <!-- probability of state $|110\rangle$ -->
     <g style="fill: #262626" transform="translate(16.44 251.7)rotate(-90)scale(0.12 -0.12)">
      <defs>
       <path id="ArialMT-70" d="M 422 -1272 
L 422 3319 
L 934 3319 
L 934 2888 
Q 1116 3141 1344 3267 
Q 1572 3394 1897 3394 
Q 2322 3394 2647 3175 
Q 2972 2956 3137 2557 
Q 3303 2159 3303 1684 
Q 3303 1175 3120 767 
Q 2938 359 2589 142 
Q 2241 -75 1856 -75 
Q 1575 -75 1351 44 
Q 1128 163 984 344 
L 984 -1272 
L 422 -1272 
z
M 931 1641 
Q 931 1000 1190 694 
Q 1450 388 1819 388 
Q 2194 388 2461 705 
Q 2728 1022 2728 1688 
Q 2728 2322 2467 2637 
Q 2206 2953 1844 2953 
Q 1484 2953 1207 2617 
Q 931 2281 931 1641 
z
" transform="scale(0.015625)"/>
       <path id="ArialMT-72" d="M 416 0 
L 416 3319 
L 922 3319 
L 922 2816 
Q 1116 3169 1280 3281 
Q 1444 3394 1641 3394 
Q 1925 3394 2219 3213 
L 2025 2691 
Q 1819 2813 1613 2813 
Q 1428 2813 1281 2702 
Q 1134 2591 1072 2394 
Q 978 2094 978 1738 
L 978 0 
L 416 0 
z
" transform="scale(0.015625)"/>
       <path id="ArialMT-6f" d="M 213 1659 
Q 213 2581 725 3025 
Q 1153 3394 1769 3394 
Q 2453 3394 2887 2945 
Q 3322 2497 3322 1706 
Q 3322 1066 3130 698 
Q 2938 331 2570 128 
Q 2203 -75 1769 -75 
Q 1072 -75 642 372 
Q 213 819 213 1659 
z
M 791 1659 
Q 791 1022 1069 705 
Q 1347 388 1769 388 
Q 2188 388 2466 706 
Q 2744 1025 2744 1678 
Q 2744 2294 2464 2611 
Q 2184 2928 1769 2928 
Q 1347 2928 1069 2612 
Q 791 2297 791 1659 
z
" transform="scale(0.015625)"/>
       <path id="ArialMT-62" d="M 941 0 
L 419 0 
L 419 4581 
L 981 4581 
L 981 2947 
Q 1338 3394 1891 3394 
Q 2197 3394 2470 3270 
Q 2744 3147 2920 2923 
Q 3097 2700 3197 2384 
Q 3297 2069 3297 1709 
Q 3297 856 2875 390 
Q 2453 -75 1863 -75 
Q 1275 -75 941 416 
L 941 0 
z
M 934 1684 
Q 934 1088 1097 822 
Q 1363 388 1816 388 
Q 2184 388 2453 708 
Q 2722 1028 2722 1663 
Q 2722 2313 2464 2622 
Q 2206 2931 1841 2931 
Q 1472 2931 1203 2611 
Q 934 2291 934 1684 
z
" transform="scale(0.015625)"/>
       <path id="ArialMT-61" d="M 2588 409 
Q 2275 144 1986 34 
Q 1697 -75 1366 -75 
Q 819 -75 525 192 
Q 231 459 231 875 
Q 231 1119 342 1320 
Q 453 1522 633 1644 
Q 813 1766 1038 1828 
Q 1203 1872 1538 1913 
Q 2219 1994 2541 2106 
Q 2544 2222 2544 2253 
Q 2544 2597 2384 2738 
Q 2169 2928 1744 2928 
Q 1347 2928 1158 2789 
Q 969 2650 878 2297 
L 328 2372 
Q 403 2725 575 2942 
Q 747 3159 1072 3276 
Q 1397 3394 1825 3394 
Q 2250 3394 2515 3294 
Q 2781 3194 2906 3042 
Q 3031 2891 3081 2659 
Q 3109 2516 3109 2141 
L 3109 1391 
Q 3109 606 3145 398 
Q 3181 191 3288 0 
L 2700 0 
Q 2613 175 2588 409 
z
M 2541 1666 
Q 2234 1541 1622 1453 
Q 1275 1403 1131 1340 
Q 988 1278 909 1158 
Q 831 1038 831 891 
Q 831 666 1001 516 
Q 1172 366 1500 366 
Q 1825 366 2078 508 
Q 2331 650 2450 897 
Q 2541 1088 2541 1459 
L 2541 1666 
z
" transform="scale(0.015625)"/>
       <path id="ArialMT-6c" d="M 409 0 
L 409 4581 
L 972 4581 
L 972 0 
L 409 0 
z
" transform="scale(0.015625)"/>
       <path id="ArialMT-79" d="M 397 -1278 
L 334 -750 
Q 519 -800 656 -800 
Q 844 -800 956 -737 
Q 1069 -675 1141 -563 
Q 1194 -478 1313 -144 
Q 1328 -97 1363 -6 
L 103 3319 
L 709 3319 
L 1400 1397 
Q 1534 1031 1641 628 
Q 1738 1016 1872 1384 
L 2581 3319 
L 3144 3319 
L 1881 -56 
Q 1678 -603 1566 -809 
Q 1416 -1088 1222 -1217 
Q 1028 -1347 759 -1347 
Q 597 -1347 397 -1278 
z
" transform="scale(0.015625)"/>
       <path id="ArialMT-20" transform="scale(0.015625)"/>
       <path id="ArialMT-66" d="M 556 0 
L 556 2881 
L 59 2881 
L 59 3319 
L 556 3319 
L 556 3672 
Q 556 4006 616 4169 
Q 697 4388 901 4523 
Q 1106 4659 1475 4659 
Q 1713 4659 2000 4603 
L 1916 4113 
Q 1741 4144 1584 4144 
Q 1328 4144 1222 4034 
Q 1116 3925 1116 3625 
L 1116 3319 
L 1763 3319 
L 1763 2881 
L 1116 2881 
L 1116 0 
L 556 0 
z
" transform="scale(0.015625)"/>
       <path id="ArialMT-73" d="M 197 991 
L 753 1078 
Q 800 744 1014 566 
Q 1228 388 1613 388 
Q 2000 388 2187 545 
Q 2375 703 2375 916 
Q 2375 1106 2209 1216 
Q 2094 1291 1634 1406 
Q 1016 1563 777 1677 
Q 538 1791 414 1992 
Q 291 2194 291 2438 
Q 291 2659 392 2848 
Q 494 3038 669 3163 
Q 800 3259 1026 3326 
Q 1253 3394 1513 3394 
Q 1903 3394 2198 3281 
Q 2494 3169 2634 2976 
Q 2775 2784 2828 2463 
L 2278 2388 
Q 2241 2644 2061 2787 
Q 1881 2931 1553 2931 
Q 1166 2931 1000 2803 
Q 834 2675 834 2503 
Q 834 2394 903 2306 
Q 972 2216 1119 2156 
Q 1203 2125 1616 2013 
Q 2213 1853 2448 1751 
Q 2684 1650 2818 1456 
Q 2953 1263 2953 975 
Q 2953 694 2789 445 
Q 2625 197 2315 61 
Q 2006 -75 1616 -75 
Q 969 -75 630 194 
Q 291 463 197 991 
z
" transform="scale(0.015625)"/>
       <path id="DejaVuSans-7c" d="M 1344 4891 
L 1344 -1509 
L 813 -1509 
L 813 4891 
L 1344 4891 
z
" transform="scale(0.015625)"/>
       <path id="DejaVuSans-31" d="M 794 531 
L 1825 531 
L 1825 4091 
L 703 3866 
L 703 4441 
L 1819 4666 
L 2450 4666 
L 2450 531 
L 3481 531 
L 3481 0 
L 794 0 
L 794 531 
z
" transform="scale(0.015625)"/>
       <path id="DejaVuSans-30" d="M 2034 4250 
Q 1547 4250 1301 3770 
Q 1056 3291 1056 2328 
Q 1056 1369 1301 889 
Q 1547 409 2034 409 
Q 2525 409 2770 889 
Q 3016 1369 3016 2328 
Q 3016 3291 2770 3770 
Q 2525 4250 2034 4250 
z
M 2034 4750 
Q 2819 4750 3233 4129 
Q 3647 3509 3647 2328 
Q 3647 1150 3233 529 
Q 2819 -91 2034 -91 
Q 1250 -91 836 529 
Q 422 1150 422 2328 
Q 422 3509 836 4129 
Q 1250 4750 2034 4750 
z
" transform="scale(0.015625)"/>
       <path id="DejaVuSans-27e9" d="M 1925 2006 
L 1044 -844 
L 513 -844 
L 1394 2006 
L 513 4856 
L 1044 4856 
L 1925 2006 
z
" transform="scale(0.015625)"/>
      </defs>
      <use xlink:href="#ArialMT-70" transform="translate(0 0.578125)"/>
      <use xlink:href="#ArialMT-72" transform="translate(55.615234 0.578125)"/>
      <use xlink:href="#ArialMT-6f" transform="translate(88.916016 0.578125)"/>
      <use xlink:href="#ArialMT-62" transform="translate(144.53125 0.578125)"/>
      <use xlink:href="#ArialMT-61" transform="translate(200.146484 0.578125)"/>
      <use xlink:href="#ArialMT-62" transform="translate(255.761719 0.578125)"/>
      <use xlink:href="#ArialMT-69" transform="translate(311.376953 0.578125)"/>
      <use xlink:href="#ArialMT-6c" transform="translate(333.59375 0.578125)"/>
      <use xlink:href="#ArialMT-69" transform="translate(355.810547 0.578125)"/>
      <use xlink:href="#ArialMT-74" transform="translate(378.027344 0.578125)"/>
      <use xlink:href="#ArialMT-79" transform="translate(405.810547 0.578125)"/>
      <use xlink:href="#ArialMT-20" transform="translate(455.810547 0.578125)"/>
      <use xlink:href="#ArialMT-6f" transform="translate(483.59375 0.578125)"/>
      <use xlink:href="#ArialMT-66" transform="translate(539.208984 0.578125)"/>
      <use xlink:href="#ArialMT-20" transform="translate(566.992188 0.578125)"/>
      <use xlink:href="#ArialMT-73" transform="translate(594.775391 0.578125)"/>
      <use xlink:href="#ArialMT-74" transform="translate(644.775391 0.578125)"/>
      <use xlink:href="#ArialMT-61" transform="translate(672.558594 0.578125)"/>
      <use xlink:href="#ArialMT-74" transform="translate(728.173828 0.578125)"/>
      <use xlink:href="#ArialMT-65" transform="translate(755.957031 0.578125)"/>
      <use xlink:href="#ArialMT-20" transform="translate(811.572266 0.578125)"/>
      <use xlink:href="#DejaVuSans-7c" transform="translate(839.355469 0.578125)"/>
      <use xlink:href="#DejaVuSans-31" transform="translate(873.046875 0.578125)"/>
      <use xlink:href="#DejaVuSans-31" transform="translate(936.669922 0.578125)"/>
      <use xlink:href="#DejaVuSans-30" transform="translate(1000.292969 0.578125)"/>
      <use xlink:href="#DejaVuSans-27e9" transform="translate(1063.916016 0.578125)"/>
     </g>
    </g>
   </g>
   <g id="line2d_20">
    <path d="M 68.400909 36.486661 
L 72.500083 37.741324 
L 76.599256 41.475084 
L 80.69843 47.59819 
L 84.797603 55.964121 
L 88.896777 66.374091 
L 92.99595 78.583125 
L 97.095124 92.307523 
L 101.194298 107.233452 
L 105.293471 123.026386 
L 109.392645 139.341067 
L 113.491818 155.831672 
L 117.590992 172.161835 
L 121.690165 188.014212 
L 125.789339 203.099262 
L 129.888512 217.162976 
L 133.987686 229.993305 
L 138.08686 241.425093 
L 142.186033 251.343369 
L 146.285207 259.684925 
L 150.38438 266.438135 
L 154.483554 271.641073 
L 158.582727 275.378016 
L 162.681901 277.77448 
L 166.781074 278.990991 
L 170.880248 279.215845 
L 174.979421 278.657109 
L 179.078595 277.534184 
L 183.177769 276.069222 
L 187.276942 274.478718 
L 191.376116 272.965574 
L 195.475289 271.711911 
L 199.574463 270.872878 
L 203.673636 270.571665 
L 207.77281 270.895888 
L 211.871983 271.895437 
L 215.971157 273.581857 
L 220.070331 275.929249 
L 224.169504 278.876625 
L 228.268678 282.331606 
L 232.367851 286.175303 
L 236.467025 290.268157 
L 240.566198 294.456514 
L 244.665372 298.579649 
L 248.764545 302.476973 
L 252.863719 305.99512 
L 256.962893 308.994643 
L 261.062066 311.356051 
L 265.16124 312.984944 
L 269.260413 313.816062 
L 273.359587 313.816062 
L 277.45876 312.984944 
L 281.557934 311.356051 
L 285.657107 308.994643 
L 289.756281 305.99512 
L 293.855455 302.476973 
L 297.954628 298.579649 
L 302.053802 294.456514 
L 306.152975 290.268157 
L 310.252149 286.175303 
L 314.351322 282.331606 
L 318.450496 278.876625 
L 322.549669 275.929249 
L 326.648843 273.581857 
L 330.748017 271.895437 
L 334.84719 270.895888 
L 338.946364 270.571665 
L 343.045537 270.872878 
L 347.144711 271.711911 
L 351.243884 272.965574 
L 355.343058 274.478718 
L 359.442231 276.069222 
L 363.541405 277.534184 
L 367.640579 278.657109 
L 371.739752 279.215845 
L 375.838926 278.990991 
L 379.938099 277.77448 
L 384.037273 275.378016 
L 388.136446 271.641073 
L 392.23562 266.438135 
L 396.334793 259.684925 
L 400.433967 251.343369 
L 404.53314 241.425093 
L 408.632314 229.993305 
L 412.731488 217.162976 
L 416.830661 203.099262 
L 420.929835 188.014212 
L 425.029008 172.161835 
L 429.128182 155.831672 
L 433.227355 139.341067 
L 437.326529 123.026386 
L 441.425702 107.233452 
L 445.524876 92.307523 
L 449.62405 78.583125 
L 453.723223 66.374091 
L 457.822397 55.964121 
L 461.92157 47.59819 
L 466.020744 41.475084 
L 470.119917 37.741324 
L 474.219091 36.486661 
" clip-path="url(#p5510088947)" style="fill: none; stroke-dasharray: 5.55,2.4; stroke-dashoffset: 0; stroke: #000000; stroke-opacity: 0.7; stroke-width: 1.5"/>
   </g>
   <g id="line2d_21">
    <path d="M 68.400909 36.486661 
L 169.855455 279.935065 
L 271.31 313.674517 
L 372.764545 271.102258 
L 474.219091 42.666505 
" clip-path="url(#p5510088947)" style="fill: none"/>
    <defs>
     <path id="m5d06ce6a14" d="M 0 -3.5 
L -0.785799 -1.081559 
L -3.328698 -1.081559 
L -1.271449 0.413119 
L -2.057248 2.831559 
L -0 1.336881 
L 2.057248 2.831559 
L 1.271449 0.413119 
L 3.328698 -1.081559 
L 0.785799 -1.081559 
z
" style="stroke: #a9a9a9; stroke-opacity: 0.85; stroke-linejoin: bevel"/>
    </defs>
    <g clip-path="url(#p5510088947)">
     <use xlink:href="#m5d06ce6a14" x="68.400909" y="36.486661" style="fill: #a9a9a9; fill-opacity: 0.85; stroke: #a9a9a9; stroke-opacity: 0.85; stroke-linejoin: bevel"/>
     <use xlink:href="#m5d06ce6a14" x="169.855455" y="279.935065" style="fill: #a9a9a9; fill-opacity: 0.85; stroke: #a9a9a9; stroke-opacity: 0.85; stroke-linejoin: bevel"/>
     <use xlink:href="#m5d06ce6a14" x="271.31" y="313.674517" style="fill: #a9a9a9; fill-opacity: 0.85; stroke: #a9a9a9; stroke-opacity: 0.85; stroke-linejoin: bevel"/>
     <use xlink:href="#m5d06ce6a14" x="372.764545" y="271.102258" style="fill: #a9a9a9; fill-opacity: 0.85; stroke: #a9a9a9; stroke-opacity: 0.85; stroke-linejoin: bevel"/>
     <use xlink:href="#m5d06ce6a14" x="474.219091" y="42.666505" style="fill: #a9a9a9; fill-opacity: 0.85; stroke: #a9a9a9; stroke-opacity: 0.85; stroke-linejoin: bevel"/>
    </g>
   </g>
   <g id="line2d_22">
    <path d="M 68.400909 60.519388 
L 169.855455 305.996529 
L 271.31 313.705729 
L 372.764545 304.685653 
L 474.219091 290.016326 
" clip-path="url(#p5510088947)" style="fill: none"/>
    <defs>
     <path id="mb2168cafbf" d="M -1.166667 3.5 
L 1.166667 3.5 
L 1.166667 1.166667 
L 3.5 1.166667 
L 3.5 -1.166667 
L 1.166667 -1.166667 
L 1.166667 -3.5 
L -1.166667 -3.5 
L -1.166667 -1.166667 
L -3.5 -1.166667 
L -3.5 1.166667 
L -1.166667 1.166667 
z
" style="stroke: #00bfff; stroke-opacity: 0.85; stroke-linejoin: miter"/>
    </defs>
    <g clip-path="url(#p5510088947)">
     <use xlink:href="#mb2168cafbf" x="68.400909" y="60.519388" style="fill: #00bfff; fill-opacity: 0.85; stroke: #00bfff; stroke-opacity: 0.85; stroke-linejoin: miter"/>
     <use xlink:href="#mb2168cafbf" x="169.855455" y="305.996529" style="fill: #00bfff; fill-opacity: 0.85; stroke: #00bfff; stroke-opacity: 0.85; stroke-linejoin: miter"/>
     <use xlink:href="#mb2168cafbf" x="271.31" y="313.705729" style="fill: #00bfff; fill-opacity: 0.85; stroke: #00bfff; stroke-opacity: 0.85; stroke-linejoin: miter"/>
     <use xlink:href="#mb2168cafbf" x="372.764545" y="304.685653" style="fill: #00bfff; fill-opacity: 0.85; stroke: #00bfff; stroke-opacity: 0.85; stroke-linejoin: miter"/>
     <use xlink:href="#mb2168cafbf" x="474.219091" y="290.016326" style="fill: #00bfff; fill-opacity: 0.85; stroke: #00bfff; stroke-opacity: 0.85; stroke-linejoin: miter"/>
    </g>
   </g>
   <g id="line2d_23">
    <path d="M 68.400909 61.26846 
L 169.855455 60.300909 
L 271.31 311.177611 
L 372.764545 289.829058 
L 474.219091 240.515151 
" clip-path="url(#p5510088947)" style="fill: none"/>
    <defs>
     <path id="md617e694da" d="M 0 -3.5 
L -3.5 3.5 
L 3.5 3.5 
z
" style="stroke: #0000ff; stroke-opacity: 0.85; stroke-linejoin: miter"/>
    </defs>
    <g clip-path="url(#p5510088947)">
     <use xlink:href="#md617e694da" x="68.400909" y="61.26846" style="fill: #0000ff; fill-opacity: 0.85; stroke: #0000ff; stroke-opacity: 0.85; stroke-linejoin: miter"/>
     <use xlink:href="#md617e694da" x="169.855455" y="60.300909" style="fill: #0000ff; fill-opacity: 0.85; stroke: #0000ff; stroke-opacity: 0.85; stroke-linejoin: miter"/>
     <use xlink:href="#md617e694da" x="271.31" y="311.177611" style="fill: #0000ff; fill-opacity: 0.85; stroke: #0000ff; stroke-opacity: 0.85; stroke-linejoin: miter"/>
     <use xlink:href="#md617e694da" x="372.764545" y="289.829058" style="fill: #0000ff; fill-opacity: 0.85; stroke: #0000ff; stroke-opacity: 0.85; stroke-linejoin: miter"/>
     <use xlink:href="#md617e694da" x="474.219091" y="240.515151" style="fill: #0000ff; fill-opacity: 0.85; stroke: #0000ff; stroke-opacity: 0.85; stroke-linejoin: miter"/>
    </g>
   </g>
   <g id="line2d_24">
    <path d="M 68.400909 36.486661 
L 169.855455 36.486661 
L 271.31 309.180085 
L 372.764545 285.209781 
L 474.219091 229.622395 
" clip-path="url(#p5510088947)" style="fill: none"/>
    <defs>
     <path id="m4ca282e58f" d="M -0 3.5 
L 3.5 -3.5 
L -3.5 -3.5 
z
" style="stroke: #00008b; stroke-opacity: 0.85; stroke-linejoin: miter"/>
    </defs>
    <g clip-path="url(#p5510088947)">
     <use xlink:href="#m4ca282e58f" x="68.400909" y="36.486661" style="fill: #00008b; fill-opacity: 0.85; stroke: #00008b; stroke-opacity: 0.85; stroke-linejoin: miter"/>
     <use xlink:href="#m4ca282e58f" x="169.855455" y="36.486661" style="fill: #00008b; fill-opacity: 0.85; stroke: #00008b; stroke-opacity: 0.85; stroke-linejoin: miter"/>
     <use xlink:href="#m4ca282e58f" x="271.31" y="309.180085" style="fill: #00008b; fill-opacity: 0.85; stroke: #00008b; stroke-opacity: 0.85; stroke-linejoin: miter"/>
     <use xlink:href="#m4ca282e58f" x="372.764545" y="285.209781" style="fill: #00008b; fill-opacity: 0.85; stroke: #00008b; stroke-opacity: 0.85; stroke-linejoin: miter"/>
     <use xlink:href="#m4ca282e58f" x="474.219091" y="229.622395" style="fill: #00008b; fill-opacity: 0.85; stroke: #00008b; stroke-opacity: 0.85; stroke-linejoin: miter"/>
    </g>
   </g>
   <g id="line2d_25">
    <path d="M 68.400909 69.352195 
L 169.855455 287.956378 
L 271.31 317.419877 
L 372.764545 279.872643 
L 474.219091 111.019326 
" clip-path="url(#p5510088947)" style="fill: none"/>
    <defs>
     <path id="mbcf9f9a1d1" d="M -3.5 3.5 
L 3.5 3.5 
L 3.5 -3.5 
L -3.5 -3.5 
z
" style="stroke: #ff0000; stroke-opacity: 0.85; stroke-linejoin: miter"/>
    </defs>
    <g clip-path="url(#p5510088947)">
     <use xlink:href="#mbcf9f9a1d1" x="68.400909" y="69.352195" style="fill: #ff0000; fill-opacity: 0.85; stroke: #ff0000; stroke-opacity: 0.85; stroke-linejoin: miter"/>
     <use xlink:href="#mbcf9f9a1d1" x="169.855455" y="287.956378" style="fill: #ff0000; fill-opacity: 0.85; stroke: #ff0000; stroke-opacity: 0.85; stroke-linejoin: miter"/>
     <use xlink:href="#mbcf9f9a1d1" x="271.31" y="317.419877" style="fill: #ff0000; fill-opacity: 0.85; stroke: #ff0000; stroke-opacity: 0.85; stroke-linejoin: miter"/>
     <use xlink:href="#mbcf9f9a1d1" x="372.764545" y="279.872643" style="fill: #ff0000; fill-opacity: 0.85; stroke: #ff0000; stroke-opacity: 0.85; stroke-linejoin: miter"/>
     <use xlink:href="#mbcf9f9a1d1" x="474.219091" y="111.019326" style="fill: #ff0000; fill-opacity: 0.85; stroke: #ff0000; stroke-opacity: 0.85; stroke-linejoin: miter"/>
    </g>
   </g>
   <g id="line2d_26">
    <path d="M 68.400909 36.486661 
L 169.855455 281.089885 
L 271.31 314.267533 
L 372.764545 271.976175 
L 474.219091 81.680672 
" clip-path="url(#p5510088947)" style="fill: none"/>
    <defs>
     <path id="mce127aed83" d="M 0 3.5 
C 0.928211 3.5 1.81853 3.131218 2.474874 2.474874 
C 3.131218 1.81853 3.5 0.928211 3.5 0 
C 3.5 -0.928211 3.131218 -1.81853 2.474874 -2.474874 
C 1.81853 -3.131218 0.928211 -3.5 0 -3.5 
C -0.928211 -3.5 -1.81853 -3.131218 -2.474874 -2.474874 
C -3.131218 -1.81853 -3.5 -0.928211 -3.5 0 
C -3.5 0.928211 -3.131218 1.81853 -2.474874 2.474874 
C -1.81853 3.131218 -0.928211 3.5 0 3.5 
z
" style="stroke: #b22222; stroke-opacity: 0.85"/>
    </defs>
    <g clip-path="url(#p5510088947)">
     <use xlink:href="#mce127aed83" x="68.400909" y="36.486661" style="fill: #b22222; fill-opacity: 0.85; stroke: #b22222; stroke-opacity: 0.85"/>
     <use xlink:href="#mce127aed83" x="169.855455" y="281.089885" style="fill: #b22222; fill-opacity: 0.85; stroke: #b22222; stroke-opacity: 0.85"/>
     <use xlink:href="#mce127aed83" x="271.31" y="314.267533" style="fill: #b22222; fill-opacity: 0.85; stroke: #b22222; stroke-opacity: 0.85"/>
     <use xlink:href="#mce127aed83" x="372.764545" y="271.976175" style="fill: #b22222; fill-opacity: 0.85; stroke: #b22222; stroke-opacity: 0.85"/>
     <use xlink:href="#mce127aed83" x="474.219091" y="81.680672" style="fill: #b22222; fill-opacity: 0.85; stroke: #b22222; stroke-opacity: 0.85"/>
    </g>
   </g>
   <g id="patch_3">
    <path d="M 48.11 348.6 
L 48.11 22.44 
" style="fill: none; stroke: #262626; stroke-width: 1.25; stroke-linejoin: miter; stroke-linecap: square"/>
   </g>
   <g id="patch_4">
    <path d="M 494.51 348.6 
L 494.51 22.44 
" style="fill: none; stroke: #262626; stroke-width: 1.25; stroke-linejoin: miter; stroke-linecap: square"/>
   </g>
   <g id="patch_5">
    <path d="M 48.11 348.6 
L 494.51 348.6 
" style="fill: none; stroke: #262626; stroke-width: 1.25; stroke-linejoin: miter; stroke-linecap: square"/>
   </g>
   <g id="patch_6">
    <path d="M 48.11 22.44 
L 494.51 22.44 
" style="fill: none; stroke: #262626; stroke-width: 1.25; stroke-linejoin: miter; stroke-linecap: square"/>
   </g>
   <g id="text_16">
    <!-- Evolution of state $|110\rangle$ under $H_{Heis3}$ -->
    <g style="fill: #262626" transform="translate(172.67 16.44)scale(0.12 -0.12)">
     <defs>
      <path id="ArialMT-45" d="M 506 0 
L 506 4581 
L 3819 4581 
L 3819 4041 
L 1113 4041 
L 1113 2638 
L 3647 2638 
L 3647 2100 
L 1113 2100 
L 1113 541 
L 3925 541 
L 3925 0 
L 506 0 
z
" transform="scale(0.015625)"/>
      <path id="ArialMT-76" d="M 1344 0 
L 81 3319 
L 675 3319 
L 1388 1331 
Q 1503 1009 1600 663 
Q 1675 925 1809 1294 
L 2547 3319 
L 3125 3319 
L 1869 0 
L 1344 0 
z
" transform="scale(0.015625)"/>
      <path id="ArialMT-75" d="M 2597 0 
L 2597 488 
Q 2209 -75 1544 -75 
Q 1250 -75 995 37 
Q 741 150 617 320 
Q 494 491 444 738 
Q 409 903 409 1263 
L 409 3319 
L 972 3319 
L 972 1478 
Q 972 1038 1006 884 
Q 1059 663 1231 536 
Q 1403 409 1656 409 
Q 1909 409 2131 539 
Q 2353 669 2445 892 
Q 2538 1116 2538 1541 
L 2538 3319 
L 3100 3319 
L 3100 0 
L 2597 0 
z
" transform="scale(0.015625)"/>
      <path id="ArialMT-6e" d="M 422 0 
L 422 3319 
L 928 3319 
L 928 2847 
Q 1294 3394 1984 3394 
Q 2284 3394 2536 3286 
Q 2788 3178 2913 3003 
Q 3038 2828 3088 2588 
Q 3119 2431 3119 2041 
L 3119 0 
L 2556 0 
L 2556 2019 
Q 2556 2363 2490 2533 
Q 2425 2703 2258 2804 
Q 2091 2906 1866 2906 
Q 1506 2906 1245 2678 
Q 984 2450 984 1813 
L 984 0 
L 422 0 
z
" transform="scale(0.015625)"/>
      <path id="ArialMT-64" d="M 2575 0 
L 2575 419 
Q 2259 -75 1647 -75 
Q 1250 -75 917 144 
Q 584 363 401 755 
Q 219 1147 219 1656 
Q 219 2153 384 2558 
Q 550 2963 881 3178 
Q 1213 3394 1622 3394 
Q 1922 3394 2156 3267 
Q 2391 3141 2538 2938 
L 2538 4581 
L 3097 4581 
L 3097 0 
L 2575 0 
z
M 797 1656 
Q 797 1019 1065 703 
Q 1334 388 1700 388 
Q 2069 388 2326 689 
Q 2584 991 2584 1609 
Q 2584 2291 2321 2609 
Q 2059 2928 1675 2928 
Q 1300 2928 1048 2622 
Q 797 2316 797 1656 
z
" transform="scale(0.015625)"/>
      <path id="DejaVuSans-Oblique-48" d="M 1081 4666 
L 1716 4666 
L 1344 2753 
L 3634 2753 
L 4006 4666 
L 4641 4666 
L 3731 0 
L 3097 0 
L 3531 2222 
L 1241 2222 
L 806 0 
L 172 0 
L 1081 4666 
z
" transform="scale(0.015625)"/>
      <path id="DejaVuSans-Oblique-65" d="M 3078 2063 
Q 3088 2113 3092 2166 
Q 3097 2219 3097 2272 
Q 3097 2653 2873 2875 
Q 2650 3097 2266 3097 
Q 1838 3097 1509 2826 
Q 1181 2556 1013 2059 
L 3078 2063 
z
M 3578 1613 
L 903 1613 
Q 884 1494 878 1425 
Q 872 1356 872 1306 
Q 872 872 1139 634 
Q 1406 397 1894 397 
Q 2269 397 2603 481 
Q 2938 566 3225 728 
L 3116 159 
Q 2806 34 2476 -28 
Q 2147 -91 1806 -91 
Q 1078 -91 686 257 
Q 294 606 294 1247 
Q 294 1794 489 2264 
Q 684 2734 1063 3103 
Q 1306 3334 1642 3459 
Q 1978 3584 2356 3584 
Q 2950 3584 3301 3228 
Q 3653 2872 3653 2272 
Q 3653 2128 3634 1964 
Q 3616 1800 3578 1613 
z
" transform="scale(0.015625)"/>
      <path id="DejaVuSans-Oblique-69" d="M 1172 4863 
L 1747 4863 
L 1606 4134 
L 1031 4134 
L 1172 4863 
z
M 909 3500 
L 1484 3500 
L 800 0 
L 225 0 
L 909 3500 
z
" transform="scale(0.015625)"/>
      <path id="DejaVuSans-Oblique-73" d="M 3200 3397 
L 3091 2853 
Q 2863 2978 2609 3040 
Q 2356 3103 2088 3103 
Q 1634 3103 1373 2948 
Q 1113 2794 1113 2528 
Q 1113 2219 1719 2053 
Q 1766 2041 1788 2034 
L 1972 1978 
Q 2547 1819 2739 1644 
Q 2931 1469 2931 1166 
Q 2931 609 2489 259 
Q 2047 -91 1331 -91 
Q 1053 -91 747 -37 
Q 441 16 72 128 
L 184 722 
Q 500 559 806 475 
Q 1113 391 1394 391 
Q 1816 391 2080 572 
Q 2344 753 2344 1031 
Q 2344 1331 1650 1516 
L 1591 1531 
L 1394 1581 
Q 956 1697 753 1886 
Q 550 2075 550 2369 
Q 550 2928 970 3256 
Q 1391 3584 2113 3584 
Q 2397 3584 2667 3537 
Q 2938 3491 3200 3397 
z
" transform="scale(0.015625)"/>
      <path id="DejaVuSans-33" d="M 2597 2516 
Q 3050 2419 3304 2112 
Q 3559 1806 3559 1356 
Q 3559 666 3084 287 
Q 2609 -91 1734 -91 
Q 1441 -91 1130 -33 
Q 819 25 488 141 
L 488 750 
Q 750 597 1062 519 
Q 1375 441 1716 441 
Q 2309 441 2620 675 
Q 2931 909 2931 1356 
Q 2931 1769 2642 2001 
Q 2353 2234 1838 2234 
L 1294 2234 
L 1294 2753 
L 1863 2753 
Q 2328 2753 2575 2939 
Q 2822 3125 2822 3475 
Q 2822 3834 2567 4026 
Q 2313 4219 1838 4219 
Q 1578 4219 1281 4162 
Q 984 4106 628 3988 
L 628 4550 
Q 988 4650 1302 4700 
Q 1616 4750 1894 4750 
Q 2613 4750 3031 4423 
Q 3450 4097 3450 3541 
Q 3450 3153 3228 2886 
Q 3006 2619 2597 2516 
z
" transform="scale(0.015625)"/>
     </defs>
     <use xlink:href="#ArialMT-45" transform="translate(0 0.578125)"/>
     <use xlink:href="#ArialMT-76" transform="translate(66.699219 0.578125)"/>
     <use xlink:href="#ArialMT-6f" transform="translate(116.699219 0.578125)"/>
     <use xlink:href="#ArialMT-6c" transform="translate(172.314453 0.578125)"/>
     <use xlink:href="#ArialMT-75" transform="translate(194.53125 0.578125)"/>
     <use xlink:href="#ArialMT-74" transform="translate(250.146484 0.578125)"/>
     <use xlink:href="#ArialMT-69" transform="translate(277.929688 0.578125)"/>
     <use xlink:href="#ArialMT-6f" transform="translate(300.146484 0.578125)"/>
     <use xlink:href="#ArialMT-6e" transform="translate(355.761719 0.578125)"/>
     <use xlink:href="#ArialMT-20" transform="translate(411.376953 0.578125)"/>
     <use xlink:href="#ArialMT-6f" transform="translate(439.160156 0.578125)"/>
     <use xlink:href="#ArialMT-66" transform="translate(494.775391 0.578125)"/>
     <use xlink:href="#ArialMT-20" transform="translate(522.558594 0.578125)"/>
     <use xlink:href="#ArialMT-73" transform="translate(550.341797 0.578125)"/>
     <use xlink:href="#ArialMT-74" transform="translate(600.341797 0.578125)"/>
     <use xlink:href="#ArialMT-61" transform="translate(628.125 0.578125)"/>
     <use xlink:href="#ArialMT-74" transform="translate(683.740234 0.578125)"/>
     <use xlink:href="#ArialMT-65" transform="translate(711.523438 0.578125)"/>
     <use xlink:href="#ArialMT-20" transform="translate(767.138672 0.578125)"/>
     <use xlink:href="#DejaVuSans-7c" transform="translate(794.921875 0.578125)"/>
     <use xlink:href="#DejaVuSans-31" transform="translate(828.613281 0.578125)"/>
     <use xlink:href="#DejaVuSans-31" transform="translate(892.236328 0.578125)"/>
     <use xlink:href="#DejaVuSans-30" transform="translate(955.859375 0.578125)"/>
     <use xlink:href="#DejaVuSans-27e9" transform="translate(1019.482422 0.578125)"/>
     <use xlink:href="#ArialMT-20" transform="translate(1058.496094 0.578125)"/>
     <use xlink:href="#ArialMT-75" transform="translate(1086.279297 0.578125)"/>
     <use xlink:href="#ArialMT-6e" transform="translate(1141.894531 0.578125)"/>
     <use xlink:href="#ArialMT-64" transform="translate(1197.509766 0.578125)"/>
     <use xlink:href="#ArialMT-65" transform="translate(1253.125 0.578125)"/>
     <use xlink:href="#ArialMT-72" transform="translate(1308.740234 0.578125)"/>
     <use xlink:href="#ArialMT-20" transform="translate(1342.041016 0.578125)"/>
     <use xlink:href="#DejaVuSans-Oblique-48" transform="translate(1369.824219 0.578125)"/>
     <use xlink:href="#DejaVuSans-Oblique-48" transform="translate(1445.019531 -15.828125)scale(0.7)"/>
     <use xlink:href="#DejaVuSans-Oblique-65" transform="translate(1497.65625 -15.828125)scale(0.7)"/>
     <use xlink:href="#DejaVuSans-Oblique-69" transform="translate(1540.722656 -15.828125)scale(0.7)"/>
     <use xlink:href="#DejaVuSans-Oblique-73" transform="translate(1560.170898 -15.828125)scale(0.7)"/>
     <use xlink:href="#DejaVuSans-33" transform="translate(1596.640625 -15.828125)scale(0.7)"/>
    </g>
   </g>
   <g id="legend_1">
    <g id="patch_7">
     <path d="M 506.674 140.775937 
L 720.670406 140.775937 
Q 722.870406 140.775937 722.870406 138.575938 
L 722.870406 30.14 
Q 722.870406 27.94 720.670406 27.94 
L 506.674 27.94 
Q 504.474 27.94 504.474 30.14 
L 504.474 138.575938 
Q 504.474 140.775937 506.674 140.775937 
z
" style="fill: #ffffff; opacity: 0.8; stroke: #cccccc; stroke-linejoin: miter"/>
    </g>
    <g id="line2d_27">
     <path d="M 508.874 36.363594 
L 519.874 36.363594 
L 530.874 36.363594 
" style="fill: none; stroke-dasharray: 5.55,2.4; stroke-dashoffset: 0; stroke: #000000; stroke-opacity: 0.7; stroke-width: 1.5"/>
    </g>
    <g id="text_17">
     <!-- Classical Simulation -->
     <g style="fill: #262626" transform="translate(539.674 40.213594)scale(0.11 -0.11)">
      <defs>
       <path id="ArialMT-43" d="M 3763 1606 
L 4369 1453 
Q 4178 706 3683 314 
Q 3188 -78 2472 -78 
Q 1731 -78 1267 223 
Q 803 525 561 1097 
Q 319 1669 319 2325 
Q 319 3041 592 3573 
Q 866 4106 1370 4382 
Q 1875 4659 2481 4659 
Q 3169 4659 3637 4309 
Q 4106 3959 4291 3325 
L 3694 3184 
Q 3534 3684 3231 3912 
Q 2928 4141 2469 4141 
Q 1941 4141 1586 3887 
Q 1231 3634 1087 3207 
Q 944 2781 944 2328 
Q 944 1744 1114 1308 
Q 1284 872 1643 656 
Q 2003 441 2422 441 
Q 2931 441 3284 734 
Q 3638 1028 3763 1606 
z
" transform="scale(0.015625)"/>
       <path id="ArialMT-63" d="M 2588 1216 
L 3141 1144 
Q 3050 572 2676 248 
Q 2303 -75 1759 -75 
Q 1078 -75 664 370 
Q 250 816 250 1647 
Q 250 2184 428 2587 
Q 606 2991 970 3192 
Q 1334 3394 1763 3394 
Q 2303 3394 2647 3120 
Q 2991 2847 3088 2344 
L 2541 2259 
Q 2463 2594 2264 2762 
Q 2066 2931 1784 2931 
Q 1359 2931 1093 2626 
Q 828 2322 828 1663 
Q 828 994 1084 691 
Q 1341 388 1753 388 
Q 2084 388 2306 591 
Q 2528 794 2588 1216 
z
" transform="scale(0.015625)"/>
       <path id="ArialMT-53" d="M 288 1472 
L 859 1522 
Q 900 1178 1048 958 
Q 1197 738 1509 602 
Q 1822 466 2213 466 
Q 2559 466 2825 569 
Q 3091 672 3220 851 
Q 3350 1031 3350 1244 
Q 3350 1459 3225 1620 
Q 3100 1781 2813 1891 
Q 2628 1963 1997 2114 
Q 1366 2266 1113 2400 
Q 784 2572 623 2826 
Q 463 3081 463 3397 
Q 463 3744 659 4045 
Q 856 4347 1234 4503 
Q 1613 4659 2075 4659 
Q 2584 4659 2973 4495 
Q 3363 4331 3572 4012 
Q 3781 3694 3797 3291 
L 3216 3247 
Q 3169 3681 2898 3903 
Q 2628 4125 2100 4125 
Q 1550 4125 1298 3923 
Q 1047 3722 1047 3438 
Q 1047 3191 1225 3031 
Q 1400 2872 2139 2705 
Q 2878 2538 3153 2413 
Q 3553 2228 3743 1945 
Q 3934 1663 3934 1294 
Q 3934 928 3725 604 
Q 3516 281 3123 101 
Q 2731 -78 2241 -78 
Q 1619 -78 1198 103 
Q 778 284 539 648 
Q 300 1013 288 1472 
z
" transform="scale(0.015625)"/>
      </defs>
      <use xlink:href="#ArialMT-43"/>
      <use xlink:href="#ArialMT-6c" x="72.216797"/>
      <use xlink:href="#ArialMT-61" x="94.433594"/>
      <use xlink:href="#ArialMT-73" x="150.048828"/>
      <use xlink:href="#ArialMT-73" x="200.048828"/>
      <use xlink:href="#ArialMT-69" x="250.048828"/>
      <use xlink:href="#ArialMT-63" x="272.265625"/>
      <use xlink:href="#ArialMT-61" x="322.265625"/>
      <use xlink:href="#ArialMT-6c" x="377.880859"/>
      <use xlink:href="#ArialMT-20" x="400.097656"/>
      <use xlink:href="#ArialMT-53" x="427.880859"/>
      <use xlink:href="#ArialMT-69" x="494.580078"/>
      <use xlink:href="#ArialMT-6d" x="516.796875"/>
      <use xlink:href="#ArialMT-75" x="600.097656"/>
      <use xlink:href="#ArialMT-6c" x="655.712891"/>
      <use xlink:href="#ArialMT-61" x="677.929688"/>
      <use xlink:href="#ArialMT-74" x="733.544922"/>
      <use xlink:href="#ArialMT-69" x="761.328125"/>
      <use xlink:href="#ArialMT-6f" x="783.544922"/>
      <use xlink:href="#ArialMT-6e" x="839.160156"/>
     </g>
    </g>
    <g id="line2d_28">
     <path d="M 508.874 52.064375 
L 519.874 52.064375 
L 530.874 52.064375 
" style="fill: none"/>
     <g>
      <use xlink:href="#m5d06ce6a14" x="519.874" y="52.064375" style="fill: #a9a9a9; fill-opacity: 0.85; stroke: #a9a9a9; stroke-opacity: 0.85; stroke-linejoin: bevel"/>
     </g>
    </g>
    <g id="text_18">
     <!-- Noiseleless (QasmSimulator) - N=13 -->
     <g style="fill: #262626" transform="translate(539.674 55.914375)scale(0.11 -0.11)">
      <defs>
       <path id="ArialMT-4e" d="M 488 0 
L 488 4581 
L 1109 4581 
L 3516 984 
L 3516 4581 
L 4097 4581 
L 4097 0 
L 3475 0 
L 1069 3600 
L 1069 0 
L 488 0 
z
" transform="scale(0.015625)"/>
       <path id="ArialMT-28" d="M 1497 -1347 
Q 1031 -759 709 28 
Q 388 816 388 1659 
Q 388 2403 628 3084 
Q 909 3875 1497 4659 
L 1900 4659 
Q 1522 4009 1400 3731 
Q 1209 3300 1100 2831 
Q 966 2247 966 1656 
Q 966 153 1900 -1347 
L 1497 -1347 
z
" transform="scale(0.015625)"/>
       <path id="ArialMT-51" d="M 3966 491 
Q 4388 200 4744 66 
L 4566 -356 
Q 4072 -178 3581 206 
Q 3072 -78 2456 -78 
Q 1834 -78 1328 222 
Q 822 522 548 1065 
Q 275 1609 275 2291 
Q 275 2969 550 3525 
Q 825 4081 1333 4372 
Q 1841 4663 2469 4663 
Q 3103 4663 3612 4361 
Q 4122 4059 4389 3517 
Q 4656 2975 4656 2294 
Q 4656 1728 4484 1276 
Q 4313 825 3966 491 
z
M 2631 1266 
Q 3156 1119 3497 828 
Q 4031 1316 4031 2294 
Q 4031 2850 3842 3265 
Q 3653 3681 3289 3911 
Q 2925 4141 2472 4141 
Q 1794 4141 1347 3677 
Q 900 3213 900 2291 
Q 900 1397 1342 919 
Q 1784 441 2472 441 
Q 2797 441 3084 563 
Q 2800 747 2484 825 
L 2631 1266 
z
" transform="scale(0.015625)"/>
       <path id="ArialMT-29" d="M 791 -1347 
L 388 -1347 
Q 1322 153 1322 1656 
Q 1322 2244 1188 2822 
Q 1081 3291 891 3722 
Q 769 4003 388 4659 
L 791 4659 
Q 1378 3875 1659 3084 
Q 1900 2403 1900 1659 
Q 1900 816 1576 28 
Q 1253 -759 791 -1347 
z
" transform="scale(0.015625)"/>
       <path id="ArialMT-2d" d="M 203 1375 
L 203 1941 
L 1931 1941 
L 1931 1375 
L 203 1375 
z
" transform="scale(0.015625)"/>
       <path id="ArialMT-3d" d="M 3381 2694 
L 356 2694 
L 356 3219 
L 3381 3219 
L 3381 2694 
z
M 3381 1303 
L 356 1303 
L 356 1828 
L 3381 1828 
L 3381 1303 
z
" transform="scale(0.015625)"/>
      </defs>
      <use xlink:href="#ArialMT-4e"/>
      <use xlink:href="#ArialMT-6f" x="72.216797"/>
      <use xlink:href="#ArialMT-69" x="127.832031"/>
      <use xlink:href="#ArialMT-73" x="150.048828"/>
      <use xlink:href="#ArialMT-65" x="200.048828"/>
      <use xlink:href="#ArialMT-6c" x="255.664062"/>
      <use xlink:href="#ArialMT-65" x="277.880859"/>
      <use xlink:href="#ArialMT-6c" x="333.496094"/>
      <use xlink:href="#ArialMT-65" x="355.712891"/>
      <use xlink:href="#ArialMT-73" x="411.328125"/>
      <use xlink:href="#ArialMT-73" x="461.328125"/>
      <use xlink:href="#ArialMT-20" x="511.328125"/>
      <use xlink:href="#ArialMT-28" x="539.111328"/>
      <use xlink:href="#ArialMT-51" x="572.412109"/>
      <use xlink:href="#ArialMT-61" x="650.195312"/>
      <use xlink:href="#ArialMT-73" x="705.810547"/>
      <use xlink:href="#ArialMT-6d" x="755.810547"/>
      <use xlink:href="#ArialMT-53" x="839.111328"/>
      <use xlink:href="#ArialMT-69" x="905.810547"/>
      <use xlink:href="#ArialMT-6d" x="928.027344"/>
      <use xlink:href="#ArialMT-75" x="1011.328125"/>
      <use xlink:href="#ArialMT-6c" x="1066.943359"/>
      <use xlink:href="#ArialMT-61" x="1089.160156"/>
      <use xlink:href="#ArialMT-74" x="1144.775391"/>
      <use xlink:href="#ArialMT-6f" x="1172.558594"/>
      <use xlink:href="#ArialMT-72" x="1228.173828"/>
      <use xlink:href="#ArialMT-29" x="1261.474609"/>
      <use xlink:href="#ArialMT-20" x="1294.775391"/>
      <use xlink:href="#ArialMT-2d" x="1322.558594"/>
      <use xlink:href="#ArialMT-20" x="1355.859375"/>
      <use xlink:href="#ArialMT-4e" x="1383.642578"/>
      <use xlink:href="#ArialMT-3d" x="1455.859375"/>
      <use xlink:href="#ArialMT-31" x="1514.257812"/>
      <use xlink:href="#ArialMT-33" x="1569.873047"/>
     </g>
    </g>
    <g id="line2d_29">
     <path d="M 508.874 67.753125 
L 519.874 67.753125 
L 530.874 67.753125 
" style="fill: none"/>
     <g>
      <use xlink:href="#mb2168cafbf" x="519.874" y="67.753125" style="fill: #00bfff; fill-opacity: 0.85; stroke: #00bfff; stroke-opacity: 0.85; stroke-linejoin: miter"/>
     </g>
    </g>
    <g id="text_19">
     <!-- Native Gate - N=8 -->
     <g style="fill: #262626" transform="translate(539.674 71.603125)scale(0.11 -0.11)">
      <defs>
       <path id="ArialMT-47" d="M 2638 1797 
L 2638 2334 
L 4578 2338 
L 4578 638 
Q 4131 281 3656 101 
Q 3181 -78 2681 -78 
Q 2006 -78 1454 211 
Q 903 500 622 1047 
Q 341 1594 341 2269 
Q 341 2938 620 3517 
Q 900 4097 1425 4378 
Q 1950 4659 2634 4659 
Q 3131 4659 3532 4498 
Q 3934 4338 4162 4050 
Q 4391 3763 4509 3300 
L 3963 3150 
Q 3859 3500 3706 3700 
Q 3553 3900 3268 4020 
Q 2984 4141 2638 4141 
Q 2222 4141 1919 4014 
Q 1616 3888 1430 3681 
Q 1244 3475 1141 3228 
Q 966 2803 966 2306 
Q 966 1694 1177 1281 
Q 1388 869 1791 669 
Q 2194 469 2647 469 
Q 3041 469 3416 620 
Q 3791 772 3984 944 
L 3984 1797 
L 2638 1797 
z
" transform="scale(0.015625)"/>
      </defs>
      <use xlink:href="#ArialMT-4e"/>
      <use xlink:href="#ArialMT-61" x="72.216797"/>
      <use xlink:href="#ArialMT-74" x="127.832031"/>
      <use xlink:href="#ArialMT-69" x="155.615234"/>
      <use xlink:href="#ArialMT-76" x="177.832031"/>
      <use xlink:href="#ArialMT-65" x="227.832031"/>
      <use xlink:href="#ArialMT-20" x="283.447266"/>
      <use xlink:href="#ArialMT-47" x="311.230469"/>
      <use xlink:href="#ArialMT-61" x="389.013672"/>
      <use xlink:href="#ArialMT-74" x="444.628906"/>
      <use xlink:href="#ArialMT-65" x="472.412109"/>
      <use xlink:href="#ArialMT-20" x="528.027344"/>
      <use xlink:href="#ArialMT-2d" x="555.810547"/>
      <use xlink:href="#ArialMT-20" x="589.111328"/>
      <use xlink:href="#ArialMT-4e" x="616.894531"/>
      <use xlink:href="#ArialMT-3d" x="689.111328"/>
      <use xlink:href="#ArialMT-38" x="747.509766"/>
     </g>
    </g>
    <g id="line2d_30">
     <path d="M 508.874 83.453906 
L 519.874 83.453906 
L 530.874 83.453906 
" style="fill: none"/>
     <g>
      <use xlink:href="#md617e694da" x="519.874" y="83.453906" style="fill: #0000ff; fill-opacity: 0.85; stroke: #0000ff; stroke-opacity: 0.85; stroke-linejoin: miter"/>
     </g>
    </g>
    <g id="text_20">
     <!-- Native Gates Opt 3 - N=8 -->
     <g style="fill: #262626" transform="translate(539.674 87.303906)scale(0.11 -0.11)">
      <defs>
       <path id="ArialMT-4f" d="M 309 2231 
Q 309 3372 921 4017 
Q 1534 4663 2503 4663 
Q 3138 4663 3647 4359 
Q 4156 4056 4423 3514 
Q 4691 2972 4691 2284 
Q 4691 1588 4409 1038 
Q 4128 488 3612 205 
Q 3097 -78 2500 -78 
Q 1853 -78 1343 234 
Q 834 547 571 1087 
Q 309 1628 309 2231 
z
M 934 2222 
Q 934 1394 1379 917 
Q 1825 441 2497 441 
Q 3181 441 3623 922 
Q 4066 1403 4066 2288 
Q 4066 2847 3877 3264 
Q 3688 3681 3323 3911 
Q 2959 4141 2506 4141 
Q 1863 4141 1398 3698 
Q 934 3256 934 2222 
z
" transform="scale(0.015625)"/>
      </defs>
      <use xlink:href="#ArialMT-4e"/>
      <use xlink:href="#ArialMT-61" x="72.216797"/>
      <use xlink:href="#ArialMT-74" x="127.832031"/>
      <use xlink:href="#ArialMT-69" x="155.615234"/>
      <use xlink:href="#ArialMT-76" x="177.832031"/>
      <use xlink:href="#ArialMT-65" x="227.832031"/>
      <use xlink:href="#ArialMT-20" x="283.447266"/>
      <use xlink:href="#ArialMT-47" x="311.230469"/>
      <use xlink:href="#ArialMT-61" x="389.013672"/>
      <use xlink:href="#ArialMT-74" x="444.628906"/>
      <use xlink:href="#ArialMT-65" x="472.412109"/>
      <use xlink:href="#ArialMT-73" x="528.027344"/>
      <use xlink:href="#ArialMT-20" x="578.027344"/>
      <use xlink:href="#ArialMT-4f" x="605.810547"/>
      <use xlink:href="#ArialMT-70" x="683.59375"/>
      <use xlink:href="#ArialMT-74" x="739.208984"/>
      <use xlink:href="#ArialMT-20" x="766.992188"/>
      <use xlink:href="#ArialMT-33" x="794.775391"/>
      <use xlink:href="#ArialMT-20" x="850.390625"/>
      <use xlink:href="#ArialMT-2d" x="878.173828"/>
      <use xlink:href="#ArialMT-20" x="911.474609"/>
      <use xlink:href="#ArialMT-4e" x="939.257812"/>
      <use xlink:href="#ArialMT-3d" x="1011.474609"/>
      <use xlink:href="#ArialMT-38" x="1069.873047"/>
     </g>
    </g>
    <g id="line2d_31">
     <path d="M 508.874 99.154687 
L 519.874 99.154687 
L 530.874 99.154687 
" style="fill: none"/>
     <g>
      <use xlink:href="#m4ca282e58f" x="519.874" y="99.154687" style="fill: #00008b; fill-opacity: 0.85; stroke: #00008b; stroke-opacity: 0.85; stroke-linejoin: miter"/>
     </g>
    </g>
    <g id="text_21">
     <!-- Native Gates Opt 3 and MEM - N=8 -->
     <g style="fill: #262626" transform="translate(539.674 103.004687)scale(0.11 -0.11)">
      <defs>
       <path id="ArialMT-4d" d="M 475 0 
L 475 4581 
L 1388 4581 
L 2472 1338 
Q 2622 884 2691 659 
Q 2769 909 2934 1394 
L 4031 4581 
L 4847 4581 
L 4847 0 
L 4263 0 
L 4263 3834 
L 2931 0 
L 2384 0 
L 1059 3900 
L 1059 0 
L 475 0 
z
" transform="scale(0.015625)"/>
      </defs>
      <use xlink:href="#ArialMT-4e"/>
      <use xlink:href="#ArialMT-61" x="72.216797"/>
      <use xlink:href="#ArialMT-74" x="127.832031"/>
      <use xlink:href="#ArialMT-69" x="155.615234"/>
      <use xlink:href="#ArialMT-76" x="177.832031"/>
      <use xlink:href="#ArialMT-65" x="227.832031"/>
      <use xlink:href="#ArialMT-20" x="283.447266"/>
      <use xlink:href="#ArialMT-47" x="311.230469"/>
      <use xlink:href="#ArialMT-61" x="389.013672"/>
      <use xlink:href="#ArialMT-74" x="444.628906"/>
      <use xlink:href="#ArialMT-65" x="472.412109"/>
      <use xlink:href="#ArialMT-73" x="528.027344"/>
      <use xlink:href="#ArialMT-20" x="578.027344"/>
      <use xlink:href="#ArialMT-4f" x="605.810547"/>
      <use xlink:href="#ArialMT-70" x="683.59375"/>
      <use xlink:href="#ArialMT-74" x="739.208984"/>
      <use xlink:href="#ArialMT-20" x="766.992188"/>
      <use xlink:href="#ArialMT-33" x="794.775391"/>
      <use xlink:href="#ArialMT-20" x="850.390625"/>
      <use xlink:href="#ArialMT-61" x="878.173828"/>
      <use xlink:href="#ArialMT-6e" x="933.789062"/>
      <use xlink:href="#ArialMT-64" x="989.404297"/>
      <use xlink:href="#ArialMT-20" x="1045.019531"/>
      <use xlink:href="#ArialMT-4d" x="1072.802734"/>
      <use xlink:href="#ArialMT-45" x="1156.103516"/>
      <use xlink:href="#ArialMT-4d" x="1222.802734"/>
      <use xlink:href="#ArialMT-20" x="1306.103516"/>
      <use xlink:href="#ArialMT-2d" x="1333.886719"/>
      <use xlink:href="#ArialMT-20" x="1367.1875"/>
      <use xlink:href="#ArialMT-4e" x="1394.970703"/>
      <use xlink:href="#ArialMT-3d" x="1467.1875"/>
      <use xlink:href="#ArialMT-38" x="1525.585938"/>
     </g>
    </g>
    <g id="line2d_32">
     <path d="M 508.874 114.747187 
L 519.874 114.747187 
L 530.874 114.747187 
" style="fill: none"/>
     <g>
      <use xlink:href="#mbcf9f9a1d1" x="519.874" y="114.747187" style="fill: #ff0000; fill-opacity: 0.85; stroke: #ff0000; stroke-opacity: 0.85; stroke-linejoin: miter"/>
     </g>
    </g>
    <g id="text_22">
     <!-- PE Template = N=11 -->
     <g style="fill: #262626" transform="translate(539.674 118.597187)scale(0.11 -0.11)">
      <defs>
       <path id="ArialMT-50" d="M 494 0 
L 494 4581 
L 2222 4581 
Q 2678 4581 2919 4538 
Q 3256 4481 3484 4323 
Q 3713 4166 3852 3881 
Q 3991 3597 3991 3256 
Q 3991 2672 3619 2267 
Q 3247 1863 2275 1863 
L 1100 1863 
L 1100 0 
L 494 0 
z
M 1100 2403 
L 2284 2403 
Q 2872 2403 3119 2622 
Q 3366 2841 3366 3238 
Q 3366 3525 3220 3729 
Q 3075 3934 2838 4000 
Q 2684 4041 2272 4041 
L 1100 4041 
L 1100 2403 
z
" transform="scale(0.015625)"/>
       <path id="ArialMT-54" d="M 1659 0 
L 1659 4041 
L 150 4041 
L 150 4581 
L 3781 4581 
L 3781 4041 
L 2266 4041 
L 2266 0 
L 1659 0 
z
" transform="scale(0.015625)"/>
      </defs>
      <use xlink:href="#ArialMT-50"/>
      <use xlink:href="#ArialMT-45" x="66.699219"/>
      <use xlink:href="#ArialMT-20" x="133.398438"/>
      <use xlink:href="#ArialMT-54" x="159.431641"/>
      <use xlink:href="#ArialMT-65" x="209.390625"/>
      <use xlink:href="#ArialMT-6d" x="265.005859"/>
      <use xlink:href="#ArialMT-70" x="348.306641"/>
      <use xlink:href="#ArialMT-6c" x="403.921875"/>
      <use xlink:href="#ArialMT-61" x="426.138672"/>
      <use xlink:href="#ArialMT-74" x="481.753906"/>
      <use xlink:href="#ArialMT-65" x="509.537109"/>
      <use xlink:href="#ArialMT-20" x="565.152344"/>
      <use xlink:href="#ArialMT-3d" x="592.935547"/>
      <use xlink:href="#ArialMT-20" x="651.333984"/>
      <use xlink:href="#ArialMT-4e" x="679.117188"/>
      <use xlink:href="#ArialMT-3d" x="751.333984"/>
      <use xlink:href="#ArialMT-31" x="809.732422"/>
      <use xlink:href="#ArialMT-31" x="857.972656"/>
     </g>
    </g>
    <g id="line2d_33">
     <path d="M 508.874 130.339687 
L 519.874 130.339687 
L 530.874 130.339687 
" style="fill: none"/>
     <g>
      <use xlink:href="#mce127aed83" x="519.874" y="130.339687" style="fill: #b22222; fill-opacity: 0.85; stroke: #b22222; stroke-opacity: 0.85"/>
     </g>
    </g>
    <g id="text_23">
     <!-- PE Template and MEM - N=11 -->
     <g style="fill: #262626" transform="translate(539.674 134.189687)scale(0.11 -0.11)">
      <use xlink:href="#ArialMT-50"/>
      <use xlink:href="#ArialMT-45" x="66.699219"/>
      <use xlink:href="#ArialMT-20" x="133.398438"/>
      <use xlink:href="#ArialMT-54" x="159.431641"/>
      <use xlink:href="#ArialMT-65" x="209.390625"/>
      <use xlink:href="#ArialMT-6d" x="265.005859"/>
      <use xlink:href="#ArialMT-70" x="348.306641"/>
      <use xlink:href="#ArialMT-6c" x="403.921875"/>
      <use xlink:href="#ArialMT-61" x="426.138672"/>
      <use xlink:href="#ArialMT-74" x="481.753906"/>
      <use xlink:href="#ArialMT-65" x="509.537109"/>
      <use xlink:href="#ArialMT-20" x="565.152344"/>
      <use xlink:href="#ArialMT-61" x="592.935547"/>
      <use xlink:href="#ArialMT-6e" x="648.550781"/>
      <use xlink:href="#ArialMT-64" x="704.166016"/>
      <use xlink:href="#ArialMT-20" x="759.78125"/>
      <use xlink:href="#ArialMT-4d" x="787.564453"/>
      <use xlink:href="#ArialMT-45" x="870.865234"/>
      <use xlink:href="#ArialMT-4d" x="937.564453"/>
      <use xlink:href="#ArialMT-20" x="1020.865234"/>
      <use xlink:href="#ArialMT-2d" x="1048.648438"/>
      <use xlink:href="#ArialMT-20" x="1081.949219"/>
      <use xlink:href="#ArialMT-4e" x="1109.732422"/>
      <use xlink:href="#ArialMT-3d" x="1181.949219"/>
      <use xlink:href="#ArialMT-31" x="1240.347656"/>
      <use xlink:href="#ArialMT-31" x="1288.587891"/>
     </g>
    </g>
   </g>
  </g>
 </g>
 <defs>
  <clipPath id="p5510088947">
   <rect x="48.11" y="22.44" width="446.4" height="326.16"/>
  </clipPath>
 </defs>
</svg>
